<svg width="40" height="40" viewBox="0 0 40 40" fill="none" xmlns="http://www.w3.org/2000/svg">
<path fill-rule="evenodd" clip-rule="evenodd" d="M10.85 9.98781C10.8975 9.39615 11.0517 8.83448 11.2925 8.32115H5V10.3886L8.33333 12.9136V35.0136H31.6667V12.9428L35.4167 10.4178V8.32031H20.3742C20.6158 8.83365 20.7692 9.39531 20.8175 9.98698H33.0725L30 12.057V33.3461H10V12.0861L7.23 9.98781H10.8492H10.85Z" fill="#212121"/>
<path fill-rule="evenodd" clip-rule="evenodd" d="M16.667 21.6667H13.3337V25H16.667V21.6667ZM11.667 20V26.6667H18.3337V20H11.667ZM26.667 21.6667H21.667V33.3333H26.667V21.6667ZM20.0003 20V35H28.3337V20H20.0003Z" fill="#212121"/>
<path d="M5 34.1654C5 34.3864 5.0878 34.5983 5.24408 34.7546C5.40036 34.9109 5.61232 34.9987 5.83333 34.9987H34.1667C34.3877 34.9987 34.5996 34.9109 34.7559 34.7546C34.9122 34.5983 35 34.3864 35 34.1654C35 33.9444 34.9122 33.7324 34.7559 33.5761C34.5996 33.4198 34.3877 33.332 34.1667 33.332H5.83333C5.61232 33.332 5.40036 33.4198 5.24408 33.5761C5.0878 33.7324 5 33.9444 5 34.1654Z" fill="#212121"/>
<path fill-rule="evenodd" clip-rule="evenodd" d="M12.4997 13.3346H8.33301V11.668H12.4997V13.3346ZM31.2497 13.3346H19.1663V11.668H31.2497V13.3346Z" fill="#212121"/>
<path fill-rule="evenodd" clip-rule="evenodd" d="M20.833 10C20.833 10.6566 20.7037 11.3068 20.4524 11.9134C20.2011 12.52 19.8328 13.0712 19.3685 13.5355C18.9042 13.9998 18.3531 14.3681 17.7464 14.6194C17.1398 14.8707 16.4896 15 15.833 15C15.1764 15 14.5262 14.8707 13.9196 14.6194C13.313 14.3681 12.7618 13.9998 12.2975 13.5355C11.8332 13.0712 11.4649 12.52 11.2136 11.9134C10.9623 11.3068 10.833 10.6566 10.833 10C10.833 8.67392 11.3598 7.40215 12.2975 6.46447C13.2352 5.52678 14.5069 5 15.833 5C17.1591 5 18.4309 5.52678 19.3685 6.46447C20.3062 7.40215 20.833 8.67392 20.833 10ZM16.6663 7.5V9.16667H18.333V10.8333H16.6663V12.5H14.9997V10.8333H13.333V9.16667H14.9997V7.5H16.6663Z" fill="#212121"/>
</svg>
