<svg width="40" height="40" viewBox="0 0 40 40" fill="none" xmlns="http://www.w3.org/2000/svg">
<path d="M22.5 10.8333V9.16667H20.8333V7.5H19.1667V9.16667H17.5V10.8333H19.1667V12.5H20.8333V10.8333H22.5Z" fill="#212121"/>
<path fill-rule="evenodd" clip-rule="evenodd" d="M26.1004 13.9725L27.7487 9.30083C28.1954 8.03417 27.5587 6.60083 26.2246 6.17833C24.6754 5.68667 22.1421 5 20.0004 5C17.8587 5 15.3254 5.68667 13.7754 6.17833C12.4421 6.60167 11.8054 8.035 12.2521 9.30083L13.9012 13.9725C13.4536 14.9873 13.2662 16.0978 13.3561 17.2033C13.4459 18.3088 13.8102 19.3745 14.4159 20.3037C15.0216 21.2329 15.8496 21.9962 16.8248 22.5246C17.8 23.0531 18.8916 23.3298 20.0008 23.3298C21.11 23.3298 22.2016 23.0531 23.1768 22.5246C24.1521 21.9962 24.98 21.2329 25.5857 20.3037C26.1914 19.3745 26.5557 18.3088 26.6456 17.2033C26.7354 16.0978 26.5481 14.9873 26.1004 13.9725ZM20.0004 6.66667C18.1337 6.66667 15.8096 7.28167 14.2796 7.76667C13.8962 7.88833 13.6712 8.315 13.8237 8.74667L15.5104 13.525C18.4996 12.575 21.5012 12.575 24.4904 13.525L26.1771 8.74667C26.3296 8.315 26.1046 7.88833 25.7212 7.7675C24.1912 7.28167 21.8662 6.66667 20.0004 6.66667ZM24.8387 15.4008H24.8379C24.7936 15.3919 24.7501 15.3794 24.7079 15.3633C21.5629 14.1842 18.4379 14.1842 15.2929 15.3633C15.2504 15.3794 15.2066 15.3919 15.1621 15.4008C14.9696 16.1401 14.9491 16.9137 15.1022 17.6621C15.2552 18.4105 15.5777 19.114 16.0449 19.7184C16.5122 20.3227 17.1116 20.8121 17.7974 21.1487C18.4831 21.4854 19.2369 21.6604 20.0008 21.6604C20.7647 21.6604 21.5185 21.4854 22.2042 21.1487C22.89 20.8121 23.4895 20.3227 23.9567 19.7184C24.4239 19.114 24.7464 18.4105 24.8994 17.6621C25.0525 16.9137 25.032 16.1401 24.8396 15.4008H24.8387Z" fill="#212121"/>
<path d="M28.3333 28.3346H30V30.0013H28.3333V31.668H26.6667V30.0013H25V28.3346H26.6667V26.668H28.3333V28.3346Z" fill="#212121"/>
<path fill-rule="evenodd" clip-rule="evenodd" d="M14.0658 23.332C14.0658 23.332 5 26.1595 5 29.5545V34.9987H35V29.5545C35 26.1595 25.9342 23.332 25.9342 23.332L20.9575 26.8262C20.677 27.0231 20.3427 27.1287 20 27.1287C19.6573 27.1287 19.323 27.0231 19.0425 26.8262L14.0658 23.332ZM26.2008 25.182L21.9158 28.1904C21.3547 28.5845 20.6857 28.7959 20 28.7959C19.3143 28.7959 18.6453 28.5845 18.0842 28.1904L13.7992 25.182C12.5961 25.6036 11.4198 26.0979 10.2767 26.662C9.19667 27.2004 8.20833 27.7979 7.51333 28.4054C6.7625 29.0612 6.66667 29.4512 6.66667 29.5545V33.332H33.3333V29.5545C33.3333 29.4512 33.2375 29.0612 32.4867 28.4045C31.7917 27.7979 30.8033 27.2004 29.7225 26.6612C28.7596 26.1867 27.773 25.7617 26.7667 25.3879C26.5583 25.3095 26.3683 25.2412 26.2008 25.1812V25.182Z" fill="#212121"/>
</svg>
