<svg width="51" height="50" viewBox="0 0 51 50" fill="none" xmlns="http://www.w3.org/2000/svg">
<path d="M16.4814 18.75C17.2201 18.75 17.9516 18.6045 18.634 18.3218C19.3165 18.0391 19.9366 17.6248 20.4589 17.1025C20.9812 16.5801 21.3956 15.96 21.6783 15.2776C21.9609 14.5951 22.1064 13.8637 22.1064 13.125C22.1064 12.3863 21.9609 11.6549 21.6783 10.9724C21.3956 10.2899 20.9812 9.66985 20.4589 9.14752C19.9366 8.62519 19.3165 8.21086 18.634 7.92818C17.9516 7.64549 17.2201 7.5 16.4814 7.5C14.9896 7.5 13.5589 8.09263 12.504 9.14752C11.4491 10.2024 10.8564 11.6332 10.8564 13.125C10.8564 14.6168 11.4491 16.0476 12.504 17.1025C13.5589 18.1574 14.9896 18.75 16.4814 18.75ZM16.4814 16.25C15.6526 16.25 14.8578 15.9208 14.2717 15.3347C13.6857 14.7487 13.3564 13.9538 13.3564 13.125C13.3564 12.2962 13.6857 11.5013 14.2717 10.9153C14.8578 10.3292 15.6526 10 16.4814 10C17.3102 10 18.1051 10.3292 18.6912 10.9153C19.2772 11.5013 19.6064 12.2962 19.6064 13.125C19.6064 13.9538 19.2772 14.7487 18.6912 15.3347C18.1051 15.9208 17.3102 16.25 16.4814 16.25ZM7.73145 22.5C7.73145 21.837 7.99484 21.2011 8.46368 20.7322C8.93252 20.2634 9.5684 20 10.2314 20H22.7314C23.3945 20 24.0304 20.2634 24.4992 20.7322C24.9681 21.2011 25.2314 21.837 25.2314 22.5V33.75C25.2314 34.8991 25.0051 36.0369 24.5654 37.0985C24.1257 38.1601 23.4811 39.1247 22.6686 39.9372C21.8561 40.7497 20.8915 41.3942 19.8299 41.8339C18.7683 42.2737 17.6305 42.5 16.4814 42.5C15.3324 42.5 14.1946 42.2737 13.133 41.8339C12.0714 41.3942 11.1068 40.7497 10.2943 39.9372C9.48175 39.1247 8.83723 38.1601 8.3975 37.0985C7.95777 36.0369 7.73145 34.8991 7.73145 33.75V22.5ZM10.2314 22.5V33.75C10.2314 35.4076 10.8899 36.9973 12.062 38.1694C13.2341 39.3415 14.8238 40 16.4814 40C18.139 40 19.7288 39.3415 20.9009 38.1694C22.073 36.9973 22.7314 35.4076 22.7314 33.75V22.5H10.2314ZM24.2964 15.3575C24.076 16.1275 23.7424 16.8605 23.3064 17.5325C24.3389 17.6525 25.2739 18.0825 26.0164 18.7325C26.9193 18.8071 27.8269 18.6626 28.6619 18.3111C29.4969 17.9597 30.2347 17.4117 30.8124 16.7139C31.3902 16.0161 31.7909 15.189 31.9804 14.3031C32.1698 13.4172 32.1425 12.4986 31.9008 11.6255C31.659 10.7524 31.2099 9.95062 30.5917 9.28835C29.9736 8.62608 29.2045 8.12292 28.3501 7.82168C27.4957 7.52044 26.5812 7.43003 25.6843 7.55814C24.7875 7.68625 23.9348 8.02909 23.1989 8.5575C23.6814 9.2625 24.0539 10.05 24.2964 10.8925C24.7362 10.4623 25.2931 10.1715 25.8974 10.0564C26.5017 9.94134 27.1265 10.0072 27.6935 10.2457C28.2605 10.4842 28.7446 10.8848 29.0849 11.3972C29.4253 11.9096 29.6068 12.5111 29.6068 13.1262C29.6068 13.7414 29.4253 14.3429 29.0849 14.8553C28.7446 15.3677 28.2605 15.7683 27.6935 16.0068C27.1265 16.2453 26.5017 16.3112 25.8974 16.1961C25.2931 16.081 24.7362 15.7902 24.2964 15.36V15.3575ZM23.9789 42.1375C25.2853 42.5274 26.6646 42.6067 28.007 42.369C29.3494 42.1313 30.6177 41.5832 31.7107 40.7685C32.8038 39.9537 33.6913 38.8949 34.3026 37.6763C34.9138 36.4578 35.2319 35.1133 35.2314 33.75V22.5C35.2314 21.837 34.9681 21.2011 34.4992 20.7322C34.0304 20.2634 33.3945 20 32.7314 20H27.0639C27.4889 20.735 27.7339 21.59 27.7339 22.5H32.7339V33.75C32.7341 34.6236 32.5512 35.4875 32.1969 36.286C31.8426 37.0845 31.3249 37.7999 30.6771 38.386C30.0293 38.9721 29.2658 39.4159 28.4359 39.6887C27.606 39.9615 26.7282 40.0574 25.8589 39.97C25.3264 40.77 24.6964 41.4975 23.9839 42.1375H23.9789ZM34.2964 15.3575C34.0759 16.1275 33.7423 16.8605 33.3064 17.5325C34.3389 17.6525 35.2739 18.0825 36.0164 18.7325C36.9193 18.8071 37.8269 18.6626 38.6619 18.3111C39.4969 17.9597 40.2347 17.4117 40.8124 16.7139C41.3902 16.0161 41.7909 15.189 41.9804 14.3031C42.1698 13.4172 42.1425 12.4986 41.9008 11.6255C41.659 10.7524 41.2099 9.95062 40.5917 9.28835C39.9736 8.62608 39.2045 8.12292 38.3501 7.82168C37.4957 7.52044 36.5812 7.43003 35.6843 7.55814C34.7875 7.68625 33.9348 8.02909 33.1989 8.5575C33.6814 9.2625 34.0539 10.05 34.2964 10.8925C34.7362 10.4623 35.2931 10.1715 35.8974 10.0564C36.5017 9.94134 37.1265 10.0072 37.6935 10.2457C38.2605 10.4842 38.7446 10.8848 39.0849 11.3972C39.4253 11.9096 39.6068 12.5111 39.6068 13.1262C39.6068 13.7414 39.4253 14.3429 39.0849 14.8553C38.7446 15.3677 38.2605 15.7683 37.6935 16.0068C37.1265 16.2453 36.5017 16.3112 35.8974 16.1961C35.2931 16.081 34.7362 15.7902 34.2964 15.36V15.3575ZM33.9789 42.1375C35.2853 42.5274 36.6646 42.6067 38.007 42.369C39.3494 42.1313 40.6177 41.5832 41.7107 40.7685C42.8038 39.9537 43.6913 38.8949 44.3026 37.6763C44.9138 36.4578 45.2319 35.1133 45.2314 33.75V22.5C45.2314 21.837 44.9681 21.2011 44.4992 20.7322C44.0304 20.2634 43.3945 20 42.7314 20H37.0639C37.4889 20.735 37.7339 21.59 37.7339 22.5H42.7339V33.75C42.7341 34.6236 42.5512 35.4875 42.1969 36.286C41.8426 37.0845 41.3249 37.7999 40.6771 38.386C40.0293 38.9721 39.2658 39.4159 38.4359 39.6887C37.606 39.9615 36.7282 40.0574 35.8589 39.97C35.3264 40.77 34.6964 41.4975 33.9839 42.1375H33.9789Z" fill="#212121"/>
</svg>
