<svg width="40" height="40" viewBox="0 0 40 40" fill="none" xmlns="http://www.w3.org/2000/svg">
<path d="M20 8C18.9391 8 17.9217 8.42143 17.1716 9.17157C16.4214 9.92172 16 10.9391 16 12C16 13.0609 16.4214 14.0783 17.1716 14.8284C17.9217 15.5786 18.9391 16 20 16C21.0609 16 22.0783 15.5786 22.8284 14.8284C23.5786 14.0783 24 13.0609 24 12C24 10.9391 23.5786 9.92172 22.8284 9.17157C22.0783 8.42143 21.0609 8 20 8ZM13 29C12.7348 29 12.4804 29.1054 12.2929 29.2929C12.1054 29.4804 12 29.7348 12 30C12 30.2652 12.1054 30.5196 12.2929 30.7071C12.4804 30.8946 12.7348 31 13 31H27C27.2652 31 27.5196 30.8946 27.7071 30.7071C27.8946 30.5196 28 30.2652 28 30C28 29.7348 27.8946 29.4804 27.7071 29.2929C27.5196 29.1054 27.2652 29 27 29H13ZM8 8C8 6.93913 8.42143 5.92172 9.17157 5.17157C9.92172 4.42143 10.9391 4 12 4H28C29.0609 4 30.0783 4.42143 30.8284 5.17157C31.5786 5.92172 32 6.93913 32 8V32C32 33.0609 31.5786 34.0783 30.8284 34.8284C30.0783 35.5786 29.0609 36 28 36H12C10.9391 36 9.92172 35.5786 9.17157 34.8284C8.42143 34.0783 8 33.0609 8 32V8ZM28 6H12C11.4696 6 10.9609 6.21071 10.5858 6.58579C10.2107 6.96086 10 7.46957 10 8V24H14V20C14 19.4696 14.2107 18.9609 14.5858 18.5858C14.9609 18.2107 15.4696 18 16 18H24C24.5304 18 25.0391 18.2107 25.4142 18.5858C25.7893 18.9609 26 19.4696 26 20V24H30V8C30 7.46957 29.7893 6.96086 29.4142 6.58579C29.0391 6.21071 28.5304 6 28 6ZM10 26V32C10 32.5304 10.2107 33.0391 10.5858 33.4142C10.9609 33.7893 11.4696 34 12 34H28C28.5304 34 29.0391 33.7893 29.4142 33.4142C29.7893 33.0391 30 32.5304 30 32V26H10Z" fill="#212121"/>
</svg>
