<svg width="40" height="40" viewBox="0 0 40 40" fill="none" xmlns="http://www.w3.org/2000/svg">
<path fill-rule="evenodd" clip-rule="evenodd" d="M13.8745 7.77116L13.9203 7.57116C14.0078 7.1995 14.1511 6.65283 14.447 6.1145C14.7486 5.56616 15.2161 5.01033 15.9495 4.6445C16.6803 4.28033 17.5961 4.1445 18.7286 4.2945C19.9786 4.46116 22.4895 4.8745 24.7078 6.00283C26.9386 7.13783 29.0286 9.09033 29.0286 12.342C29.0286 14.022 28.3786 15.8245 27.7486 16.9995C27.4461 17.5645 27.087 18.1045 26.727 18.3953C26.6445 18.462 26.527 18.5453 26.3811 18.6037C25.9811 19.9183 25.1848 21.0773 24.1011 21.9222C23.0174 22.7671 21.6992 23.2567 20.3267 23.324C18.9542 23.3913 17.5944 23.033 16.4332 22.2982C15.2721 21.5634 14.3662 20.4879 13.8395 19.2187L13.8195 19.222L13.5236 18.8628L14.167 18.3328L13.5236 18.8628L13.5228 18.8612L13.5211 18.8595L13.517 18.8537L13.5028 18.837C13.4315 18.7482 13.3628 18.6574 13.297 18.5645C13.117 18.3149 12.9474 18.058 12.7886 17.7945C12.397 17.1462 11.9245 16.2228 11.622 15.1453C11.3203 14.0678 11.182 12.8045 11.4986 11.5012C11.807 10.2328 12.5345 8.9845 13.852 7.8695L13.8745 7.77116ZM15.2745 18.3028C15.6359 19.3422 16.3299 20.2334 17.2491 20.8384C18.1683 21.4434 19.2613 21.7284 20.3589 21.6494C21.4564 21.5703 22.4973 21.1315 23.3203 20.4011C24.1433 19.6706 24.7024 18.6891 24.9111 17.6087L25.0053 17.6403C25.002 17.5932 25.0003 17.5459 25.0003 17.4987C25.0003 16.1195 24.8086 15.157 24.6303 14.557C24.5955 14.4402 24.5568 14.3246 24.5145 14.2103L24.4803 14.212H24.447C23.8238 14.2255 23.2009 14.178 22.587 14.0703C21.1561 13.8287 19.2186 13.2253 16.937 11.8278C16.887 11.9395 16.837 12.0653 16.787 12.2053C16.6236 12.6678 16.4895 13.217 16.3736 13.797C16.2711 14.3078 16.187 14.822 16.107 15.3037L16.0761 15.4937C15.9903 16.0103 15.9045 16.5178 15.8045 16.8853C15.6295 17.5237 15.4511 17.977 15.2745 18.302V18.3028ZM14.1078 16.7503C13.7314 16.1043 13.4358 15.4144 13.2278 14.6962C12.9786 13.8078 12.887 12.8462 13.1186 11.8953C13.3436 10.9703 13.8878 9.99783 15.007 9.07616C15.2086 8.9395 15.3003 8.75616 15.3253 8.707V8.70616C15.3691 8.61606 15.4042 8.52204 15.4303 8.42533C15.457 8.33033 15.4861 8.20033 15.5136 8.08366L15.5428 7.95283C15.622 7.617 15.7245 7.25116 15.9078 6.917C16.0861 6.59366 16.3303 6.317 16.6936 6.13616C17.0586 5.95366 17.6236 5.82866 18.5086 5.947C19.7195 6.10783 21.997 6.49366 23.952 7.48866C25.8936 8.47616 27.362 9.97116 27.362 12.342C27.362 13.4337 26.9953 14.6753 26.5536 15.6545C26.4703 15.0162 26.3503 14.4945 26.227 14.0812C26.141 13.7857 26.0338 13.4969 25.9061 13.217C25.858 13.1132 25.8052 13.0118 25.7478 12.9128L25.7336 12.8903L25.7286 12.882L25.7261 12.8778L25.7245 12.8753L25.0245 13.3253L25.7245 12.8753L25.4161 12.397L24.8645 12.5078L24.8528 12.5103L24.772 12.5212C24.6479 12.535 24.5234 12.5433 24.3986 12.5462C23.8848 12.5561 23.3713 12.5159 22.8653 12.4262C21.5211 12.1995 19.5461 11.582 17.147 9.9845L16.5636 9.59533L16.0811 10.1037C15.6836 10.522 15.4136 11.0928 15.2161 11.6487C15.0145 12.2195 14.862 12.857 14.7395 13.4687C14.6379 13.9892 14.5457 14.5115 14.4628 15.0353L14.4311 15.222C14.342 15.7645 14.2695 16.1787 14.1961 16.447C14.1688 16.5487 14.1393 16.6498 14.1078 16.7503ZM25.6753 17.102L25.6786 17.1003L25.6753 17.102ZM25.6786 17.1003L25.6753 17.102L25.6778 17.1003H25.6786Z" fill="#212121"/>
<path fill-rule="evenodd" clip-rule="evenodd" d="M14.9283 24.0443C14.7517 23.6926 14.5342 23.2585 14.1667 23.3426C9.66333 24.3676 5 27.3268 5 30.4735V34.9985H35V30.4735C35 27.9951 32.1067 25.6326 28.6775 24.2401L28.6733 24.2318C28.6695 24.2243 28.6656 24.2168 28.6617 24.2093L28.6342 24.2226C27.7233 23.856 26.775 23.556 25.8333 23.3426C25.4142 23.2468 24.9808 23.8235 24.7917 24.1843H15C14.9767 24.141 14.9533 24.0926 14.9283 24.0443ZM26.1692 25.1443C26.5333 25.2451 26.8958 25.3585 27.2533 25.4835C27.2633 25.7685 27.2417 26.1051 27.195 26.4485C27.1475 26.8039 27.0717 27.155 26.9683 27.4985H25.8333C25.6786 27.4985 25.527 27.5417 25.3954 27.6231C25.2638 27.7045 25.1575 27.8209 25.0883 27.9593L24.255 29.626C24.197 29.7416 24.1668 29.8691 24.1667 29.9985V31.6651C24.1667 31.8861 24.2545 32.0981 24.4107 32.2544C24.567 32.4107 24.779 32.4985 25 32.4985H26.6667V30.8318H25.8333V30.1951L26.3483 29.1651H28.6517L29.1667 30.1951V30.8318H28.3333V32.4985H30C30.221 32.4985 30.433 32.4107 30.5893 32.2544C30.7455 32.0981 30.8333 31.8861 30.8333 31.6651V29.9985C30.8332 29.8691 30.803 29.7416 30.745 29.626L29.9117 27.9593C29.8425 27.8209 29.7362 27.7045 29.6046 27.6231C29.473 27.5417 29.3214 27.4985 29.1667 27.4985H28.695C28.798 27.0574 28.8671 26.6092 28.9017 26.1576C29.7142 26.5418 30.4692 26.9826 31.1233 27.4593C32.725 28.6276 33.3333 29.721 33.3333 30.4735V33.3318H6.66667V30.4735C6.66667 29.721 7.275 28.6276 8.87667 27.4593C9.68167 26.8718 10.6425 26.3401 11.6725 25.9001C11.7011 26.5642 11.8077 27.2226 11.99 27.8618L11.9967 27.8851C11.4985 28.2003 11.1277 28.6814 10.9498 29.2434C10.7719 29.8055 10.7983 30.4123 11.0244 30.9567C11.2505 31.5012 11.6618 31.9482 12.1855 32.2188C12.7092 32.4895 13.3117 32.5663 13.8866 32.4358C14.4615 32.3053 14.9718 31.9759 15.3274 31.5056C15.6829 31.0354 15.8609 30.4546 15.8298 29.8659C15.7987 29.2772 15.5605 28.7185 15.1574 28.2883C14.7543 27.8582 14.2121 27.5843 13.6267 27.5151C13.5202 27.1665 13.4422 26.8097 13.3933 26.4485C13.3469 26.1254 13.3277 25.7989 13.3358 25.4726C13.3382 25.4103 13.3424 25.3481 13.3483 25.286C13.4483 25.2551 13.5483 25.2251 13.6483 25.1968L13.9942 25.8518H25.7975L26.1692 25.1451V25.1443ZM13.3333 30.8451C13.7817 30.8451 14.1667 30.4785 14.1667 29.9993C14.1667 29.521 13.7817 29.1535 13.3333 29.1535C12.885 29.1535 12.5 29.5201 12.5 29.9993C12.5 30.4776 12.885 30.8451 13.3333 30.8451Z" fill="#212121"/>
</svg>
