<svg width="331" height="290" viewBox="0 0 331 290" fill="none" xmlns="http://www.w3.org/2000/svg">
<path d="M225.917 6.13302C236.452 9.22585 283.536 24.417 303.613 65.3494C331.804 122.78 284.083 184.432 270.995 201.344C240.983 240.117 160.737 312.395 80.8706 283.245C16.8995 259.896 -9.35967 180.869 2.95011 124.896C23.2305 32.6394 142.331 -18.412 225.917 6.13302Z" fill="#CD7D96"/>
<path d="M293.061 147.293H271.404C271.011 147.293 270.692 147.615 270.692 148.011V156.967C270.692 157.363 271.011 157.685 271.404 157.685H293.061C293.453 157.685 293.772 157.363 293.772 156.967V148.011C293.772 147.615 293.453 147.293 293.061 147.293Z" fill="#BE184B"/>
<path d="M293.061 168.043H271.404C271.011 168.043 270.692 168.365 270.692 168.761V177.717C270.692 178.113 271.011 178.435 271.404 178.435H293.061C293.453 178.435 293.772 178.113 293.772 177.717V168.761C293.772 168.365 293.453 168.043 293.061 168.043Z" fill="#BE184B"/>
<path d="M304.599 157.688H282.942C282.549 157.688 282.23 158.009 282.23 158.406V167.361C282.23 167.758 282.549 168.08 282.942 168.08H304.599C304.992 168.08 305.31 167.758 305.31 167.361V158.406C305.31 158.009 304.992 157.688 304.599 157.688Z" stroke="#BE184B" stroke-width="2" stroke-miterlimit="10"/>
<path d="M281.522 157.688H259.866C259.473 157.688 259.154 158.009 259.154 158.406V167.361C259.154 167.758 259.473 168.08 259.866 168.08H281.522C281.915 168.08 282.234 167.758 282.234 167.361V158.406C282.234 158.009 281.915 157.688 281.522 157.688Z" stroke="#BE184B" stroke-width="2" stroke-miterlimit="10"/>
<path d="M39.9004 198.66H18.2436C17.8507 198.66 17.5322 198.982 17.5322 199.379V208.334C17.5322 208.731 17.8507 209.052 18.2436 209.052H39.9004C40.2933 209.052 40.6117 208.731 40.6117 208.334V199.379C40.6117 198.982 40.2933 198.66 39.9004 198.66Z" stroke="#BE184B" stroke-width="2" stroke-miterlimit="10"/>
<path d="M51.4385 219.406H29.7817C29.3888 219.406 29.0703 219.728 29.0703 220.125V229.08C29.0703 229.477 29.3888 229.798 29.7817 229.798H51.4385C51.8313 229.798 52.1498 229.477 52.1498 229.08V220.125C52.1498 219.728 51.8313 219.406 51.4385 219.406Z" stroke="#BE184B" stroke-width="2" stroke-miterlimit="10"/>
<path d="M56.2373 209.055H34.5805C34.1876 209.055 33.8691 209.376 33.8691 209.773V218.728C33.8691 219.125 34.1876 219.447 34.5805 219.447H56.2373C56.6302 219.447 56.9486 219.125 56.9486 218.728V209.773C56.9486 209.376 56.6302 209.055 56.2373 209.055Z" stroke="#BE184B" stroke-width="2" stroke-miterlimit="10"/>
<path d="M33.1572 209.055H11.5004C11.1075 209.055 10.7891 209.376 10.7891 209.773V218.728C10.7891 219.125 11.1075 219.447 11.5004 219.447H33.1572C33.5501 219.447 33.8686 219.125 33.8686 218.728V209.773C33.8686 209.376 33.5501 209.055 33.1572 209.055Z" fill="#BE184B"/>
<path d="M174.128 60.207H152.471C152.078 60.207 151.76 60.5287 151.76 60.9255V69.8806C151.76 70.2774 152.078 70.5991 152.471 70.5991H174.128C174.521 70.5991 174.839 70.2774 174.839 69.8806V60.9255C174.839 60.5287 174.521 60.207 174.128 60.207Z" stroke="#BE184B" stroke-width="2" stroke-miterlimit="10"/>
<path d="M181.924 80.9922H160.267C159.874 80.9922 159.556 81.3138 159.556 81.7106V90.6658C159.556 91.0626 159.874 91.3842 160.267 91.3842H181.924C182.317 91.3842 182.635 91.0626 182.635 90.6658V81.7106C182.635 81.3138 182.317 80.9922 181.924 80.9922Z" stroke="#BE184B" stroke-width="2" stroke-miterlimit="10"/>
<path d="M190.464 70.5977H168.807C168.414 70.5977 168.096 70.9193 168.096 71.3161V80.2713C168.096 80.668 168.414 80.9897 168.807 80.9897H190.464C190.857 80.9897 191.175 80.668 191.175 80.2713V71.3161C191.175 70.9193 190.857 70.5977 190.464 70.5977Z" fill="#E0F8F2"/>
<path d="M167.384 70.5977H145.727C145.334 70.5977 145.016 70.9193 145.016 71.3161V80.2713C145.016 80.668 145.334 80.9897 145.727 80.9897H167.384C167.777 80.9897 168.095 80.668 168.095 80.2713V71.3161C168.095 70.9193 167.777 70.5977 167.384 70.5977Z" stroke="#E0F8F2" stroke-width="2" stroke-miterlimit="10"/>
<path d="M137.067 12.1641H21.1787V142.246H137.067V12.1641Z" fill="#367164"/>
<path d="M38.2125 40.0538L37.2379 43.046H34.5811L38.8242 30.082H42.2173L46.6419 43.046H43.7965L42.7686 40.0538H38.2125ZM42.196 37.7548C41.3068 35.0176 40.7413 33.2683 40.439 32.1044H40.4212C40.1153 33.3832 39.4893 35.4164 38.778 37.7548H42.196Z" fill="white"/>
<path d="M52.7236 30.082H57.6781C61.3166 30.082 63.6961 32.5678 63.6961 36.4006C63.6961 40.2334 61.3878 43.046 57.5643 43.046H52.7236V30.082ZM55.4267 40.783H57.4505C59.8477 40.783 60.9041 38.9331 60.9041 36.4078C60.9041 34.2884 59.9153 32.3451 57.4683 32.3451H55.4267V40.783Z" fill="white"/>
<path d="M73.1497 30.082V43.046H70.4502V30.082H73.1497Z" fill="white"/>
<path d="M82.3361 39.2445C82.6207 40.5485 83.5205 41.1196 84.9681 41.1196C86.4157 41.1196 87.0239 40.5269 87.0239 39.5786C87.0239 38.5225 86.4228 38.0663 84.2852 37.5491C80.8885 36.7193 80.0456 35.4369 80.0456 33.6875C80.0456 31.4281 81.6746 29.8906 84.6338 29.8906C87.9486 29.8906 89.2575 31.7442 89.4495 33.6408H86.7287C86.5971 32.8434 86.1738 31.9741 84.5626 31.9741C83.4672 31.9741 82.8056 32.4446 82.8056 33.3642C82.8056 34.2838 83.3356 34.6322 85.3522 35.1172C88.9872 36.008 89.7839 37.409 89.7839 39.2374C89.7839 41.6046 88.0589 43.2282 84.7547 43.2282C81.5821 43.2282 79.914 41.6082 79.6152 39.2445H82.3361Z" fill="white"/>
<path d="M98.8966 32.3774H95.1016V30.082H105.38V32.3774H101.6V43.046H98.8966V32.3774Z" fill="white"/>
<path d="M122.944 36.5181C122.944 40.1282 120.856 43.2354 116.798 43.2354C112.886 43.2354 110.826 40.2755 110.826 36.5612C110.826 32.7895 113.092 29.8906 116.972 29.8906C120.628 29.8906 122.944 32.5668 122.944 36.5181ZM113.615 36.5181C113.615 39.0326 114.682 40.9652 116.901 40.9652C119.305 40.9652 120.155 38.8746 120.155 36.5648C120.155 34.1114 119.188 32.186 116.858 32.186C114.6 32.1752 113.615 33.9821 113.615 36.5181ZM120.312 41.0693L123.869 43.5838L122.307 45.4482L117.9 42.2799L120.312 41.0693Z" fill="white"/>
<path d="M51.5492 60.9461H46.6943V63.6222H52.0507L51.7875 65.4865H44.5674V54.9688H51.7626V56.8367H46.6943V59.0925H51.5492V60.9461Z" fill="white"/>
<path d="M65.7307 61.5495C65.7307 59.7535 65.7591 57.7383 65.8018 56.5493H65.7307C65.2541 58.7046 64.2404 62.2033 63.2659 65.4973H61.3986C60.6588 62.6236 59.6202 58.622 59.165 56.517H59.0974C59.1827 57.7527 59.2254 59.9187 59.2254 61.722V65.4937H57.2266V54.9688H60.4916C61.2812 57.7203 62.1668 61.1724 62.4727 62.7421H62.4905C62.7395 61.3556 63.8527 57.6664 64.6992 54.9688H67.8469V65.4973H65.7307V61.5495Z" fill="white"/>
<path d="M75.8881 54.9688V61.2442C75.8881 63.263 76.8876 63.8629 77.983 63.8629C79.2385 63.8629 80.0281 63.1445 80.0281 61.2442V54.9688H82.2226V61.1293C82.2226 64.7214 80.1918 65.6482 77.9546 65.6482C75.6641 65.6482 73.6865 64.6891 73.6865 61.1724V54.9688H75.8881Z" fill="white"/>
<path d="M89.6883 65.4973L87.1025 54.9688H89.4429C90.3961 59.8074 90.8264 61.9519 90.9473 63.1121C91.3315 61.176 92.3131 57.512 92.9035 54.9688H94.8775C95.3968 56.9911 96.4247 61.0754 96.7555 63.0008C97.0933 60.6838 98.0892 56.6068 98.4449 54.9688H100.579L97.8296 65.4973H95.5889C95.0553 63.166 94.1662 59.7499 93.8105 57.9538C93.4548 59.8289 92.5265 63.3708 91.9823 65.4973H89.6883Z" fill="white"/>
<path d="M114.233 62.2521C113.824 64.217 112.398 65.6467 109.855 65.6467C106.654 65.6467 105.117 63.2831 105.117 60.2872C105.117 57.4135 106.686 54.8164 109.961 54.8164C112.665 54.8164 113.973 56.4616 114.229 58.2217H112.035C111.822 57.4099 111.277 56.6017 109.901 56.6017C108.094 56.6017 107.411 58.29 107.411 60.1938C107.411 61.9899 108.019 63.8506 109.979 63.8506C110.457 63.8727 110.928 63.7233 111.307 63.4288C111.687 63.1343 111.951 62.7136 112.053 62.2413L114.233 62.2521Z" fill="white"/>
<path d="M59.7295 78.7031H63.1404C64.8903 78.7031 66.0818 79.7269 66.0818 81.3541C66.0818 83.2113 64.7231 84.0626 63.0977 84.0626H61.5114V87.2596H59.7331L59.7295 78.7031ZM61.5078 82.5898H62.8665C63.6917 82.5898 64.2892 82.2629 64.2892 81.39C64.2892 80.5172 63.6739 80.1759 62.9163 80.1759H61.5185L61.5078 82.5898Z" fill="white"/>
<path d="M77.6064 87.261H76.301C76.2304 86.9842 76.184 86.7017 76.1623 86.4168C75.7071 87.0562 74.8997 87.4046 73.7544 87.4046C71.3608 87.4046 70.0234 85.5259 70.0234 83.0941C70.0234 80.5221 71.4675 78.5859 74.0674 78.5859C76.2014 78.5859 77.4356 79.8252 77.6241 81.2872H75.8458C75.6751 80.7125 75.2411 80.0336 74.0354 80.0336C72.3424 80.0336 71.8587 81.5028 71.8587 83.0115C71.8587 84.5201 72.41 85.9355 74.0461 85.9355C75.5719 85.9355 75.8493 84.8363 75.8493 84.0711V83.9921H74.0425V82.4762H77.5992L77.6064 87.261Z" fill="white"/>
<path d="M89.8975 82.9537C89.8975 85.3352 88.5175 87.3828 85.8393 87.3828C83.2535 87.3828 81.8984 85.4322 81.8984 82.9824C81.8984 80.5326 83.3958 78.582 85.9566 78.582C88.3681 78.582 89.8975 80.3422 89.8975 82.9537ZM83.7408 82.9537C83.7408 84.624 84.4522 85.8848 85.9068 85.8848C87.4931 85.8848 88.0409 84.5091 88.0409 82.9824C88.0409 81.3659 87.4042 80.1087 85.8642 80.1087C84.3241 80.1087 83.7408 81.2797 83.7408 82.9465V82.9537Z" fill="white"/>
<path d="M94.3477 87.2596V78.7031H96.5599C97.5878 80.6249 99.4942 84.0913 99.8712 85.0217H99.8926C99.8001 84.1272 99.8037 82.6437 99.8037 81.2392V78.7031H101.418V87.2596H99.3235C98.4379 85.5893 96.3287 81.6092 95.9197 80.6177H95.8948C95.9553 81.3685 95.9766 83.1322 95.9766 84.6589V87.2596H94.3477Z" fill="white"/>
<path d="M74.7882 106.499L73.4296 104.182L72.0424 106.499H70.5664L72.6755 103.187L70.6233 99.918H72.2167L73.4971 102.102L74.8202 99.918H76.2749L74.2476 103.054L76.3816 106.499H74.7882Z" fill="white"/>
<path d="M79.2598 99.918H82.0304C83.5598 99.918 84.1431 100.748 84.1431 101.603C84.1624 101.896 84.0962 102.188 83.9527 102.443C83.8092 102.699 83.5947 102.906 83.3358 103.04C83.6334 103.157 83.888 103.364 84.0649 103.633C84.2418 103.901 84.3325 104.218 84.3245 104.541C84.3245 105.665 83.4709 106.51 82.1229 106.51H79.2598V99.918ZM81.8704 102.515C82.5213 102.515 82.7916 102.21 82.7916 101.75C82.7916 101.29 82.4359 101.032 81.9095 101.032H80.6042V102.529L81.8704 102.515ZM80.6042 105.389H81.8419C82.5817 105.389 82.909 105.069 82.909 104.473C82.909 103.941 82.5782 103.604 81.8242 103.604H80.5935L80.6042 105.389Z" fill="white"/>
<path d="M89.0653 99.918V106.499H87.6924V99.918H89.0653Z" fill="white"/>
<path d="M75.3442 124.885V122.561C75.3474 122.487 75.3288 122.413 75.2909 122.349L73.1035 118.305H74.6542C75.1451 119.3 75.7817 120.618 76.0983 121.333C76.3757 120.643 77.0693 119.26 77.5494 118.305H78.9721L76.7563 122.328C76.7164 122.391 76.6989 122.466 76.7065 122.54V124.885H75.3442Z" fill="white"/>
<path d="M83.3612 124.885L81.124 118.305H82.5965L83.539 121.347C83.8236 122.263 84.0441 123.046 84.1899 123.718H84.2077C84.3393 123.104 84.5847 122.299 84.887 121.365L85.8758 118.305H87.2736L84.9759 124.885H83.3612Z" fill="white"/>
<path d="M105.949 203.027H32.5703C30.7317 203.027 29.2412 204.533 29.2412 206.39V207.65C29.2412 209.507 30.7317 211.013 32.5703 211.013H105.949C107.787 211.013 109.278 209.507 109.278 207.65V206.39C109.278 204.533 107.787 203.027 105.949 203.027Z" fill="#CC7829"/>
<path d="M35.0667 280.085H28.2129L36.7668 211.012H43.5637L35.0667 280.085Z" fill="#CC7829"/>
<path d="M103.473 280.085H110.306L101.752 211.012H94.9512L103.473 280.085Z" fill="#CC7829"/>
<path d="M36.7673 211.012H43.5642L35.8604 218.124L36.7673 211.012Z" fill="#A04833"/>
<path d="M101.752 211.012H94.9512L95.8617 218.124L101.752 211.012Z" fill="#A04833"/>
<path d="M279.154 203.027H205.775C203.937 203.027 202.446 204.533 202.446 206.39V207.65C202.446 209.507 203.937 211.013 205.775 211.013H279.154C280.993 211.013 282.483 209.507 282.483 207.65V206.39C282.483 204.533 280.993 203.027 279.154 203.027Z" fill="#CC7829"/>
<path d="M208.273 280.085H201.419L209.973 211.012H216.77L208.273 280.085Z" fill="#CC7829"/>
<path d="M276.678 280.085H283.507L274.953 211.012H268.156L276.678 280.085Z" fill="#CC7829"/>
<path d="M209.972 211.012H216.769L209.065 218.124L209.972 211.012Z" fill="#A04833"/>
<path d="M274.953 211.012H268.156L269.063 218.124L274.953 211.012Z" fill="#A04833"/>
<path d="M53.2354 120.277C53.2354 120.277 54.1245 131.161 58.3855 135.881C62.6464 140.601 58.4637 119.914 58.4637 119.914L53.2354 120.277Z" fill="black"/>
<path d="M66.9252 141.166C66.7011 140.368 67.6187 138.432 68.2056 137.315C64.3465 137.911 59.7477 135.16 57.3576 130.285C57.2128 130.365 57.0569 130.422 56.8952 130.454C56.8952 130.454 56.5396 140.587 54.3451 140.713C51.802 142.919 43.4935 150.376 45.1865 153.835C46.6092 156.738 54.2775 155.24 65.7159 153.009C66.8281 152.835 67.8655 152.335 68.7 151.572C71.0972 149.259 70.4428 145.106 70.1226 144.169C69.6674 142.944 67.2453 142.312 66.9252 141.166Z" fill="#EA9D7D"/>
<path d="M58.5991 142.321C57.0803 139.002 60.2672 138.298 60.2672 138.298L60.2458 138.251C62.3514 139.688 64.7024 140.31 66.8115 139.893C66.9111 139.893 67.0107 139.85 67.1067 139.825C67.4088 138.95 67.7811 138.102 68.22 137.289C64.3609 137.889 59.9826 134.878 57.589 130.004C57.5313 130.136 57.4356 130.247 57.3145 130.323C57.1933 130.4 57.0522 130.437 56.9096 130.431C56.9096 130.431 56.8385 132.317 56.586 134.469C56.2516 137.314 55.5972 140.64 54.3559 140.712C50.9094 143.668 42.5867 151.19 44.2584 154.524C45.93 157.857 57.3507 156.679 65.7267 153.008C67 152.448 68.0457 151.902 68.8033 151.478C63.5785 152.06 59.9471 145.299 58.5991 142.321Z" fill="#D18165"/>
<path d="M62.2341 111.171C57.8238 112.04 55.1207 117.712 55.7431 124.297H55.7075C54.5018 124.534 53.7905 126.093 54.1177 127.806C54.4449 129.52 55.6897 130.68 56.8955 130.454C57.0324 130.448 57.1665 130.413 57.2891 130.351C57.4117 130.289 57.5199 130.202 57.6068 130.095C60.0574 135.077 64.5531 138.037 68.4655 137.279C73.3239 136.323 75.0418 130.271 73.6085 122.86C72.1751 115.449 67.089 110.216 62.2341 111.171Z" fill="#EA9D7D"/>
<path d="M55.6639 125.809C55.5469 126.401 55.5385 127.009 55.639 127.605C55.6978 127.882 55.7873 128.152 55.9058 128.409C55.9556 128.549 56.041 128.679 56.1085 128.83C56.1761 128.98 56.2686 129.11 56.3362 129.282C56.1675 129.23 56.0052 129.159 55.8525 129.07C55.704 128.974 55.5678 128.859 55.447 128.729C55.1908 128.457 55.0158 128.117 54.9419 127.748C54.8633 127.38 54.8917 126.997 55.0237 126.646C55.1451 126.306 55.369 126.013 55.6639 125.809Z" fill="#D18165"/>
<path d="M71.4238 132.429C67.8849 132.591 67.4688 129.832 67.4688 129.832C68.8961 130.287 70.4103 130.393 71.8862 130.141C71.8862 130.141 70.8405 131.319 71.4238 132.429Z" fill="#BE3E5F"/>
<path d="M70.4316 122.332C70.5917 123.05 70.7304 123.769 70.926 124.462C71.015 124.788 71.1415 125.103 71.303 125.4C71.3706 125.518 71.4951 125.687 71.5911 125.838C71.6871 125.989 71.7938 126.158 71.8863 126.33C72.1121 126.703 72.227 127.133 72.2171 127.569C72.1942 127.832 72.0765 128.078 71.8863 128.259C71.7145 128.412 71.508 128.519 71.2852 128.572C70.5328 128.718 69.7555 128.663 69.0303 128.414C69.7345 128.379 70.4319 128.258 71.1074 128.054C71.233 127.999 71.3476 127.921 71.4453 127.824C71.515 127.744 71.5508 127.64 71.5449 127.533C71.5172 127.231 71.4197 126.94 71.2603 126.682C71.1821 126.531 71.0932 126.38 71.0007 126.229C70.9082 126.079 70.8122 125.942 70.7126 125.734C70.5435 125.373 70.433 124.988 70.3854 124.591C70.2802 123.841 70.2958 123.078 70.4316 122.332Z" fill="#D18165"/>
<path d="M68.2018 120.861C67.4929 120.975 66.7929 121.14 66.1069 121.353C65.7753 121.457 65.4529 121.59 65.143 121.748C64.8193 121.895 64.5312 122.107 64.1934 122.29C64.3577 121.937 64.6012 121.627 64.9047 121.385C65.209 121.138 65.5564 120.95 65.929 120.832C66.2977 120.711 66.683 120.649 67.0707 120.649C67.458 120.643 67.8425 120.715 68.2018 120.861Z" fill="black"/>
<path d="M71.8478 120.163C72.1602 120.032 72.4918 119.953 72.8295 119.93C72.8899 120.109 72.9504 120.289 73.0073 120.469C72.6602 120.476 72.3141 120.511 71.9723 120.573C71.6166 120.627 71.2894 120.738 70.9053 120.831C71.1625 120.536 71.4856 120.307 71.8478 120.163Z" fill="black"/>
<path d="M72.68 125.051C72.5381 125.079 72.3912 125.048 72.2713 124.967C72.1514 124.886 72.0682 124.76 72.0398 124.617L71.7339 123.036C71.7125 122.896 71.7455 122.753 71.8262 122.636C71.9068 122.52 72.0289 122.44 72.1667 122.413C72.3046 122.385 72.4476 122.413 72.5658 122.489C72.684 122.566 72.7683 122.686 72.801 122.824L73.1068 124.405C73.1341 124.547 73.1047 124.695 73.0248 124.816C72.9449 124.937 72.821 125.022 72.68 125.051Z" fill="black"/>
<path d="M67.196 125.391C67.0545 125.418 66.9081 125.388 66.7887 125.307C66.6694 125.225 66.5869 125.099 66.5594 124.956L66.2535 123.376C66.232 123.236 66.265 123.092 66.3457 122.976C66.4264 122.86 66.5484 122.78 66.6862 122.753C66.8241 122.725 66.9671 122.753 67.0853 122.829C67.2035 122.906 67.2878 123.026 67.3205 123.164L67.6228 124.744C67.6511 124.887 67.622 125.036 67.542 125.157C67.4619 125.278 67.3375 125.362 67.196 125.391Z" fill="black"/>
<path d="M53.2282 118.9C53.2282 118.9 55.2341 106.461 61.4975 110.796C61.4975 110.796 67.6079 108.576 70.5245 113.182C73.441 117.787 74.821 116.623 74.821 116.623C74.821 116.623 69.7882 120.369 66.356 118.484L62.0559 119.769C61.4461 119.952 60.9086 120.324 60.5193 120.832C60.13 121.339 59.9085 121.958 59.8863 122.6L59.712 127.694C59.5916 127.944 59.4018 128.154 59.1657 128.297C58.9296 128.44 58.6573 128.511 58.382 128.501C58.1066 128.492 57.8401 128.401 57.6147 128.241C57.3892 128.081 57.2146 127.859 57.1121 127.6C56.8489 126.972 56.5715 126.282 56.3189 125.574C55.4333 123.089 52.6271 121.21 53.2282 118.9Z" fill="black"/>
<path d="M95.5566 235.233L96.9793 232.805L105.636 237.191C105.261 238.087 105.07 239.051 105.074 240.025C105.142 241.512 95.5566 235.233 95.5566 235.233Z" fill="#EA9D7D"/>
<path d="M45.6049 181.796C45.6049 181.796 38.0078 197.35 52.1742 204.811C66.3405 212.272 75.1647 214.973 75.5773 218.102C75.9899 221.231 73.3188 225.358 74.5494 237.798C75.7801 250.237 77.8358 264.958 77.8358 264.958C77.8358 264.958 88.7158 266.617 90.359 264.958C92.0022 263.298 89.9464 242.475 91.7817 223.756C91.7817 223.756 95.2708 214.776 90.6507 209.186L86.7383 205.454L109.832 205.246C109.832 205.246 103.469 212.089 101.314 218.203C99.1583 224.316 96.2845 232.93 96.2845 232.93L106.062 237.679C106.062 237.679 119.819 216.22 124.539 211.97C129.259 207.721 134.597 195.806 126.389 192.573C118.18 189.34 99.3966 185.198 78.252 184.577L77.4802 181.789L45.6049 181.796Z" fill="#EF3E3B"/>
<path d="M76.126 194.792L86.7677 205.435L109.861 205.227C109.861 205.227 103.498 212.07 101.343 218.184C99.1877 224.298 96.3139 232.912 96.3139 232.912L106.063 237.678C104.672 234.259 103.242 229.205 104.249 223.547C106.447 211.215 117.387 206.56 116.342 201.71C115.506 197.939 107.418 194.343 76.126 194.792Z" fill="#C82833"/>
<path d="M103.207 276.752C99.9202 273.781 92.1203 270.049 90.342 264.934C88.9762 266.313 81.2403 265.401 78.6582 265.052C78.6582 265.052 77.4062 269.079 77.3386 271.981C77.2711 274.884 77.3386 275.714 77.3386 275.714L82.1295 276.335V275.092C82.1295 275.092 84.9358 275.232 86.4403 276.752C87.9447 278.271 92.259 280.276 96.9112 280.067C101.563 279.859 106.493 279.722 103.207 276.752Z" fill="#D18165"/>
<path d="M96.9073 280.063C92.2551 280.272 87.9444 278.267 86.4363 276.748C84.9283 275.228 82.1256 275.088 82.1256 275.088V276.331L77.3383 275.71C77.3383 275.71 77.2671 274.88 77.3383 271.977C77.4182 270.443 77.6469 268.92 78.0211 267.43C78.3448 266.058 78.6578 265.048 78.6578 265.048C81.2364 265.407 88.9723 266.305 90.338 264.93C90.7124 265.943 91.2562 266.883 91.9457 267.71C92.1698 267.994 92.4081 268.27 92.657 268.54C92.906 268.809 93.0803 268.971 93.2972 269.186C93.5746 269.456 93.8592 269.725 94.1615 269.991C97.1954 272.66 101.115 274.858 103.206 276.748C106.489 279.722 101.563 279.862 96.9073 280.063Z" fill="#ABBCCA"/>
<path d="M114.114 254.534C112.048 250.583 106.005 244.372 106.087 238.951C104.333 239.77 97.387 236.211 95.0858 235C95.0858 235 92.5321 238.341 91.4722 241.042C90.4123 243.743 90.1953 244.544 90.1953 244.544L94.4634 246.8L94.8902 245.633C94.8902 245.633 97.4759 246.743 98.3686 248.693C99.2614 250.644 102.619 254.031 107.054 255.464C111.489 256.898 116.177 258.471 114.114 254.534Z" fill="#D18165"/>
<path d="M107.068 255.445C102.63 254.008 99.2721 250.628 98.3794 248.678C97.4866 246.727 94.9009 245.614 94.9009 245.614L94.4741 246.781L90.2061 244.525C90.2061 244.525 90.423 243.724 91.4829 241.023C92.0871 239.612 92.8231 238.262 93.681 236.992C94.4563 235.821 95.1037 234.984 95.1037 234.984C97.4013 236.209 104.351 239.766 106.105 238.936C106.108 240.017 106.296 241.09 106.659 242.108C106.773 242.467 106.901 242.794 107.04 243.131C107.161 243.412 107.285 243.685 107.417 243.961C107.588 244.32 107.773 244.68 107.954 245.039C109.889 248.599 112.813 252.033 114.129 254.536C116.174 258.466 111.504 256.878 107.068 255.445Z" fill="#ABBCCA"/>
<path d="M77.8363 264.939C78.1137 264.982 78.3911 265.021 78.6721 265.057L79.9632 265.219H79.9845L81.2614 265.359L81.6704 265.402C82.2573 265.46 82.837 265.506 83.4168 265.553L84.1601 265.6H84.2953L85.0066 265.636L85.7749 265.657C86.0274 265.657 86.2764 265.657 86.5218 265.657C87.3885 265.668 88.2542 265.596 89.1075 265.442C84.1494 260.88 81.9585 256.494 80.8773 253.415C77.2779 243.178 79.3479 228.798 79.8494 225.321C80.3935 221.539 81.0017 219.082 79.7284 216.136C78.0603 212.289 74.749 210.945 68.5568 207.903C62.923 205.137 57.8867 202.662 54.1663 199.72C52.9044 198.747 52.0025 197.375 51.6052 195.823C51.2079 194.27 51.3383 192.628 51.9754 191.16C52.8539 189.227 54.6003 187.64 57.9187 187.392C63.6215 186.897 69.1106 184.966 73.8848 181.777H45.6053V181.81V181.838L45.5769 181.903V181.925L45.5271 182.04C45.5191 182.052 45.5131 182.065 45.5093 182.079C45.5093 182.111 45.4773 182.147 45.4631 182.187C45.4534 182.204 45.4451 182.222 45.4382 182.241L45.3813 182.381L45.3635 182.42L45.2817 182.625C45.2817 182.647 45.2639 182.665 45.2568 182.683C45.2497 182.701 45.2141 182.798 45.1892 182.859L45.1572 182.941C45.1358 183.006 45.111 183.071 45.0861 183.139C45.0612 183.207 45.0683 183.185 45.0576 183.207C45.0256 183.3 44.99 183.397 44.958 183.494L44.9367 183.555L44.8513 183.803C44.8513 183.839 44.8264 183.875 44.8157 183.911C44.8051 183.947 44.7624 184.069 44.7375 184.152L44.7055 184.252C44.6699 184.371 44.6344 184.486 44.5952 184.612C44.5973 184.628 44.5973 184.645 44.5952 184.662C44.5632 184.77 44.5348 184.877 44.5028 184.989C44.5028 185.028 44.4779 185.071 44.4672 185.114L44.3925 185.398L44.3605 185.524C44.3249 185.66 44.2894 185.797 44.2573 185.941L44.1613 186.368C44.1613 186.415 44.14 186.461 44.1329 186.505C44.108 186.612 44.0866 186.72 44.0653 186.831C44.0653 186.878 44.0439 186.928 44.0368 186.975L43.9621 187.374V187.446C43.9337 187.604 43.9088 187.762 43.8839 187.923C43.8839 187.97 43.8839 188.017 43.8839 188.064C43.8661 188.182 43.8483 188.304 43.8341 188.423L43.8128 188.588L43.7701 188.987V189.098C43.7523 189.271 43.7416 189.457 43.7274 189.612C43.7274 189.658 43.7274 189.702 43.7274 189.748L43.7061 190.143C43.7061 190.204 43.7061 190.262 43.7061 190.319V190.722V190.865C43.7061 191.041 43.7061 191.225 43.7061 191.404C43.7061 191.444 43.7061 191.483 43.7061 191.523C43.7061 191.666 43.7061 191.814 43.7238 191.957C43.7238 192.019 43.7238 192.076 43.7238 192.137C43.7238 192.274 43.7416 192.41 43.7523 192.543C43.7523 192.597 43.7523 192.651 43.7523 192.705C43.7689 192.891 43.7902 193.078 43.8163 193.265C43.8163 193.29 43.8163 193.319 43.8163 193.348C43.8377 193.506 43.8626 193.667 43.8875 193.829L43.9195 194.009C43.9444 194.145 43.9728 194.282 44.0013 194.418C44.0013 194.476 44.0226 194.533 44.0368 194.594C44.0795 194.781 44.1222 194.953 44.172 195.154C44.4495 196.226 44.8518 197.261 45.3706 198.237C45.4654 198.414 45.565 198.59 45.6694 198.765L45.7796 198.955C45.9041 199.16 46.0393 199.361 46.178 199.566L46.2847 199.716C46.579 200.131 46.8948 200.529 47.2308 200.909L47.3588 201.053C47.5366 201.25 47.7145 201.444 47.9101 201.635C49.0168 202.719 50.2606 203.652 51.6091 204.408C51.8225 204.53 52.0359 204.648 52.2599 204.767C53.5878 205.469 54.867 206.128 56.0976 206.746C56.9204 207.158 57.7195 207.556 58.4949 207.939L59.6437 208.499L61.8346 209.555L63.8797 210.529C67.8277 212.4 70.89 213.826 72.9067 215.087C73.3606 215.366 73.7977 215.672 74.2155 216.003C74.4456 216.184 74.6631 216.381 74.8664 216.592C75.2771 216.973 75.5563 217.477 75.6631 218.029C75.7116 218.437 75.7187 218.849 75.6845 219.258C75.5547 220.428 75.366 221.591 75.1189 222.742C75.0869 222.929 75.0514 223.101 75.0158 223.313C74.9802 223.525 74.9589 223.672 74.9304 223.83C74.902 223.989 74.87 224.19 74.8415 224.376C74.3847 227.364 74.2179 230.39 74.3436 233.411C74.3436 233.745 74.3685 234.086 74.3863 234.438C74.4396 235.465 74.5214 236.557 74.6352 237.725C74.6815 238.188 74.7277 238.659 74.7775 239.129V239.259C74.8735 240.203 74.9731 241.155 75.0763 242.107V242.226C75.1296 242.704 75.1794 243.181 75.2328 243.663L75.4355 245.459C75.5031 246.033 75.5671 246.608 75.6347 247.176V247.266C75.7236 248.034 75.8161 248.796 75.905 249.547C75.9477 249.906 75.9939 250.265 76.0366 250.624V250.725C76.0793 251.059 76.1184 251.393 76.1575 251.72L76.1753 251.849C76.2607 252.542 76.3425 253.218 76.4278 253.879V254.001C76.5132 254.676 76.595 255.333 76.6768 255.966C77.0111 258.584 77.3063 260.815 77.5162 262.388C77.5162 262.485 77.5411 262.582 77.5553 262.676C77.5695 262.769 77.5802 262.859 77.5909 262.949C77.7082 263.815 77.7936 264.422 77.8327 264.702C77.8256 264.878 77.8363 264.939 77.8363 264.939Z" fill="#C82833"/>
<path d="M78.3841 266.011C77.9136 267.684 77.5805 269.394 77.3882 271.123V271.159C77.374 271.324 77.3633 271.489 77.3562 271.654C77.3562 271.69 77.3562 271.723 77.3562 271.759C77.3562 271.794 77.3562 271.909 77.3562 271.981C77.2886 274.884 77.3562 275.714 77.3562 275.714L82.1435 276.335V275.092C82.1435 275.092 84.9498 275.232 86.4543 276.752C87.877 278.188 91.7431 280.028 96.0574 280.082C96.3419 280.082 96.6336 280.082 96.9217 280.082C100.539 279.923 104.32 279.801 104.284 278.361C101.572 278.631 98.8344 278.343 96.2352 277.517C93.3899 276.608 89.4775 275.361 88.2967 271.87C87.3968 269.208 88.5705 266.582 89.1609 265.472C85.6612 265.762 82.1397 265.625 78.6722 265.066C78.6722 265.066 78.5442 265.422 78.3841 266.011Z" fill="#454851"/>
<path d="M94.4918 235.801C93.6702 236.957 92.212 239.145 91.4722 241.027C90.4052 243.725 90.1953 244.529 90.1953 244.529L94.4634 246.782L94.8902 245.614C94.8902 245.614 97.4759 246.724 98.3686 248.675C99.2045 250.507 102.206 253.596 106.236 255.141C106.503 255.241 106.777 255.338 107.054 255.428C110.757 256.624 114.619 257.924 114.594 256.039C112.194 253.244 104.198 251.8 101.968 245.46C100.851 242.288 102.089 240.478 101.765 238.114C100.983 237.812 100.172 237.464 99.3859 237.104C97.6075 236.303 95.9821 235.452 95.0716 234.949C95.0858 234.985 94.8475 235.298 94.4918 235.801Z" fill="#454851"/>
<path d="M70.1431 188.952L42.6248 187.321C42.1938 187.296 41.7732 187.176 41.392 186.971C41.0109 186.766 40.678 186.481 40.4163 186.134C40.1545 185.787 39.9701 185.387 39.8755 184.961C39.7809 184.536 39.7785 184.095 39.8684 183.668L48.8776 140.767L55.6566 139.668C57.748 144.927 65.0926 145.595 67.7495 140.598L72.7289 142.851C73.5923 143.117 74.3363 143.681 74.8319 144.443C75.3275 145.205 75.5435 146.118 75.4426 147.025L75.2968 148.638L71.7579 187.562C71.733 187.666 71.6761 188.191 70.1431 188.952Z" fill="#25BEEF"/>
<path d="M71.7576 187.564C69.716 186.694 64.2885 186.346 56.2219 183.253C48.6496 180.34 47.2127 178.257 46.5939 176.787C45.1356 173.335 46.4623 169.143 47.01 167.419C47.9881 164.326 48.2833 163.137 50.1115 159.251C50.7268 157.943 51.0931 154.717 50.3924 154.408C49.5851 154.049 47.0349 157.519 44.346 162.386L39.8752 183.677C39.7854 184.104 39.7878 184.545 39.8823 184.97C39.9769 185.396 40.1613 185.796 40.4231 186.143C40.6848 186.49 41.0177 186.775 41.3989 186.98C41.7801 187.185 42.2006 187.305 42.6317 187.33L70.15 188.961C70.5432 188.984 70.9299 188.852 71.2285 188.593C71.5271 188.333 71.7143 187.967 71.7505 187.571L71.7576 187.564Z" fill="#1A87C4"/>
<path d="M110.096 169.906C111.053 169.795 112.828 170.193 109.285 174.123L109.321 174.145C109.477 174.227 110.181 174.533 111.81 174.342C113.699 174.12 120.062 173.426 121.15 173.624C121.741 173.735 123.284 175.194 113.902 176.537C113.828 176.546 113.757 176.571 113.693 176.611C113.63 176.65 113.576 176.704 113.535 176.767C113.494 176.83 113.468 176.901 113.458 176.976C113.447 177.05 113.453 177.126 113.475 177.198C113.535 177.371 113.688 177.5 114.03 177.46C114.883 177.36 122.192 176.178 122.299 177.529C122.377 178.513 120.432 178.606 113.991 179.479C113.991 179.479 113.023 179.925 113.927 180.305C114.236 180.438 121.577 179.824 122.032 180.338C122.488 180.851 123.583 181.631 112.543 182.378C112.543 182.378 112.369 182.525 113.411 182.91C114.517 183.323 117.619 183.585 118.572 184.562C119.525 185.539 117.17 185.054 111.291 184.16L104.889 183.876L104.587 183.854C104.734 183.513 104.821 183.148 104.846 182.777C104.91 181.862 104.856 180.944 104.686 180.043C104.473 178.91 104.08 177.818 103.523 176.81L103.502 176.451C103.502 176.451 104.178 175.679 105.099 174.655C106.842 172.758 109.459 169.978 110.096 169.906Z" fill="#EA9D7D"/>
<path d="M67.4578 138.652L64.7227 188.73L75.2221 189.226C75.2221 189.226 76.8795 191.597 79.3763 191.503C81.4641 191.424 98.4865 186.245 103.373 184.007C104.149 183.647 103.754 183.249 103.804 182.39L104.22 174.904C104.266 174.082 104.44 173.873 103.644 174.046C98.1131 175.253 87.2829 177.67 85.6859 176.607C83.7119 175.303 86.1945 142.126 67.4578 138.652Z" fill="#E3EAF3"/>
<path d="M64.7227 188.729L65.4696 172.849C67.2479 172.102 70.4063 168.233 71.2848 167.249C73.3406 164.939 74.2867 162.37 75.0478 159.816C74.0626 166.641 76.3709 192.975 76.3709 192.975L68.603 190.328L64.7227 188.729Z" fill="#ABBCCA"/>
<path d="M74.3267 169.489C75.287 169.389 77.0547 169.809 73.4695 173.696L73.5051 173.721C73.6616 173.803 74.3658 174.116 75.9948 173.943C77.8834 173.746 84.2535 173.121 85.3418 173.336C85.9322 173.451 87.4545 174.931 78.0612 176.167C77.987 176.175 77.9154 176.199 77.8515 176.238C77.7876 176.277 77.733 176.33 77.6916 176.393C77.6502 176.456 77.623 176.527 77.6118 176.601C77.6007 176.676 77.606 176.752 77.6273 176.824C77.6878 176.993 77.8372 177.126 78.1786 177.09C79.0322 177 86.3591 175.898 86.448 177.252C86.5155 178.236 84.5665 178.329 78.1182 179.109C78.1182 179.109 77.1436 179.544 78.0435 179.935C78.3529 180.072 85.6975 179.54 86.1492 180.061C86.6009 180.582 87.6857 181.368 76.635 181.993C76.635 181.993 76.4607 182.137 77.4993 182.536C78.6019 182.956 81.6998 183.254 82.6423 184.242C83.5848 185.23 81.2374 184.72 75.3653 183.761L68.9632 183.402L68.6573 183.38C68.807 183.039 68.8996 182.674 68.9312 182.302C69.0036 181.389 68.9594 180.47 68.7996 179.569C68.596 178.437 68.2154 177.346 67.6721 176.336L67.6543 175.977C67.6543 175.977 68.3372 175.215 69.2726 174.213C71.0474 172.302 73.7007 169.554 74.3267 169.489Z" fill="#EA9D7D"/>
<path d="M55.8592 137.816L53.999 178.766L66.7285 174.858C66.9294 174.796 67.1416 174.78 67.3493 174.812C67.557 174.844 67.7549 174.923 67.9284 175.043C68.1019 175.162 68.2465 175.32 68.3515 175.504C68.4566 175.687 68.5194 175.893 68.5353 176.104L69.1293 183.737C69.1494 184.033 69.0785 184.328 68.9263 184.581C68.7741 184.835 68.5481 185.034 68.2792 185.153C65.3627 186.399 56.2611 190.315 50.6948 192.869L43.6347 236.398L22.1309 233.144C22.1309 233.144 27.2632 198.009 28.5152 192.057C29.7671 186.105 30.6954 149.943 36.6138 144.224C43.8339 137.252 55.8592 137.816 55.8592 137.816Z" fill="#E3EAF3"/>
<path d="M28.515 192.057C29.1836 188.881 29.6389 176.97 30.8837 165.727C30.4391 183.393 31.8156 188.511 36.795 192.165C41.7744 195.818 50.6946 192.851 50.6946 192.851C50.6946 192.851 50.2643 195.078 49.7983 198.372L49.6632 198.217C39.3772 202.711 30.1012 202.858 26.6797 202.941C26.6797 202.948 28.17 193.695 28.515 192.057Z" fill="#ABBCCA"/>
<path d="M39.1602 142.426C39.1602 142.426 51.1072 144.714 47.426 164.147C47.1515 165.494 47.161 166.885 47.4539 168.228C47.7468 169.571 48.3166 170.836 49.1261 171.942C50.3487 173.608 52.137 174.759 54.1481 175.175C54.045 177.729 53.9988 178.742 53.9988 178.742C52.1215 178.982 50.2321 179.113 48.34 179.134C46.6719 180.104 43.261 182.176 41.8063 183.732C42.7463 181.363 44.2356 179.256 46.1491 177.589C46.1258 177.529 46.1056 177.468 46.0886 177.406C45.0193 172.312 45.035 167.047 46.1349 161.96C46.1349 161.96 48.6388 145.881 39.1602 142.426Z" fill="#ABBCCA"/>
<path d="M104.893 183.882L104.591 183.86C104.737 183.519 104.825 183.154 104.85 182.783C104.914 181.868 104.86 180.949 104.69 180.049C104.476 178.915 104.084 177.824 103.527 176.816L103.506 176.457C103.506 176.457 104.182 175.685 105.103 174.661C106.842 172.743 109.467 169.962 110.082 169.89C111.039 169.779 112.814 170.178 109.271 174.108L109.307 174.129" fill="#EA9D7D"/>
<path d="M104.266 174.086L103.689 184.025" stroke="#2F170B" stroke-width="6" stroke-linecap="round" stroke-linejoin="round"/>
<path d="M54.1494 175.174C54.1494 175.174 58.1293 175.609 65.4704 172.836L65.3281 175.264L54 178.767L54.1494 175.174Z" fill="#1A87C4"/>
<path d="M248.11 110.306C247.99 111.01 247.927 111.723 247.922 112.437C247.868 116.596 248.377 117.318 245.912 120.221C245.912 120.221 244.169 123.055 247.335 122.897C247.335 122.897 247.602 123.288 247.627 124.635C247.651 125.918 246.279 132.204 255.163 130.175C255.326 130.139 255.496 130.143 255.657 130.185C255.819 130.228 255.968 130.308 256.093 130.42C256.218 130.531 256.316 130.671 256.378 130.827C256.44 130.983 256.465 131.152 256.451 131.32L254.512 142.097L265.894 141.813L265.243 122.031C265.243 122.031 262.234 121.568 261.843 121.571C261.843 121.571 264.894 116.751 261.939 116.287C258.983 115.824 258.574 118.525 258.574 118.525L257.461 118.428L257.29 110.059L248.11 110.306Z" fill="#EA9D7D"/>
<path d="M265.556 122.541L265.329 126.162C265.329 126.162 263.017 123.712 261.9 122.742C261.757 122.618 261.661 122.447 261.629 122.259C261.597 122.071 261.63 121.878 261.722 121.712C262.551 120.224 264.276 116.654 261.943 116.287C259.61 115.921 258.859 118.579 258.632 119.761C258.604 119.909 258.523 120.042 258.404 120.134C258.285 120.225 258.137 120.269 257.988 120.257C257.838 120.244 257.699 120.176 257.597 120.065C257.495 119.954 257.438 119.808 257.436 119.657L257.39 114.825C257.378 114.203 257.244 113.589 256.995 113.02C256.747 112.45 256.39 111.935 255.944 111.506C255.498 111.076 254.972 110.739 254.397 110.516C253.822 110.292 253.208 110.186 252.592 110.202L249.509 110.289C249.104 110.3 248.719 110.464 248.429 110.749C248.139 111.034 247.966 111.418 247.944 111.826C247.186 109.958 248.299 108.201 248.691 107.609C251.127 103.891 256.16 103.895 257.266 103.895C260.282 103.895 264.536 105.015 265.158 107.268C265.311 107.828 265.684 109.286 265.684 109.286C265.684 109.286 267.417 109.707 268.039 110.49C269.195 111.927 268.192 115.195 266.933 119.215C266.339 121.094 265.884 122.042 265.556 122.541Z" fill="#000001"/>
<path d="M252.905 114.664C252.482 114.791 252.041 114.848 251.6 114.833C251.163 114.822 250.729 114.76 250.305 114.649C249.879 114.541 249.468 114.378 249.082 114.164C248.691 113.951 248.343 113.665 248.058 113.32C248.499 113.414 248.89 113.539 249.292 113.64L250.483 113.956C251.276 114.168 252.084 114.355 252.905 114.664Z" fill="#000001"/>
<path d="M250.463 115.973L250.498 118.415" stroke="#000001" stroke-width="3" stroke-miterlimit="10" stroke-linecap="round"/>
<path d="M249.982 125.601C249.541 125.144 247.848 124.293 247.631 124.523C247.631 124.563 247.631 124.602 247.631 124.645C247.575 125.39 247.564 126.137 247.599 126.883C248.676 127.102 249.992 125.601 249.982 125.601Z" fill="#BE3E5F"/>
<path d="M260.214 117.849C260.368 117.652 260.563 117.491 260.784 117.377C261.006 117.264 261.249 117.2 261.498 117.191C261.643 117.196 261.784 117.237 261.909 117.312C262.033 117.387 262.136 117.492 262.209 117.619C262.325 117.862 262.371 118.134 262.341 118.402C262.299 118.897 262.148 119.377 261.9 119.806C261.784 120.024 261.637 120.223 261.462 120.396C261.297 120.581 261.068 120.697 260.822 120.719C261.037 120.635 261.216 120.479 261.331 120.277C261.459 120.09 261.567 119.89 261.654 119.681C261.834 119.268 261.947 118.829 261.989 118.38C262.015 118.176 261.989 117.969 261.914 117.777C261.87 117.695 261.808 117.625 261.733 117.571C261.658 117.518 261.571 117.482 261.48 117.468C261.028 117.451 260.583 117.585 260.214 117.849Z" fill="#D18165"/>
<path d="M256.864 141.574C258.643 141.215 261.513 133.122 262.057 130.079C262.601 127.036 261.307 126.828 261.307 126.828C259.948 128.527 255.498 130.172 255.498 130.172C255.638 130.183 255.774 130.222 255.898 130.287C256.022 130.352 256.133 130.441 256.222 130.549C256.312 130.658 256.379 130.783 256.419 130.919C256.46 131.054 256.473 131.196 256.459 131.336L254.648 140.881C255.37 141.351 256.171 141.707 256.864 141.574Z" fill="#D18165"/>
<path d="M201.853 125.094H208.649V122.806H201.853V125.094Z" fill="#54A4CC"/>
<path d="M217.598 139.531H223.523V129.674H217.598V139.531Z" fill="#54A4CC"/>
<path d="M219.981 158.715H173.616V150.169C173.616 149.958 173.699 149.755 173.847 149.605C173.995 149.456 174.196 149.372 174.406 149.372H219.981V158.711V158.715Z" fill="#ABBCCA"/>
<path d="M166.563 158.717H227.65V121.574H232.878V164.525H165.773V159.496C165.778 159.288 165.863 159.09 166.011 158.944C166.158 158.798 166.357 158.717 166.563 158.717Z" fill="#54A4CC"/>
<path d="M200.202 149.387H223.722C224.158 149.387 224.512 149.03 224.512 148.589V140.327C224.512 139.887 224.158 139.53 223.722 139.53H200.202C199.765 139.53 199.412 139.887 199.412 140.327V148.589C199.412 149.03 199.765 149.387 200.202 149.387Z" fill="white"/>
<path d="M200.202 129.672H223.722C224.158 129.672 224.512 129.315 224.512 128.874V125.893C224.512 125.453 224.158 125.095 223.722 125.095H200.202C199.765 125.095 199.412 125.453 199.412 125.893V128.874C199.412 129.315 199.765 129.672 200.202 129.672Z" fill="white"/>
<path d="M200.202 122.805H210.125C210.562 122.805 210.915 122.448 210.915 122.007V116.386C210.915 115.945 210.562 115.588 210.125 115.588H200.202C199.766 115.588 199.413 115.945 199.413 116.386V122.007C199.413 122.448 199.766 122.805 200.202 122.805Z" fill="white"/>
<path d="M167.612 103.973H179.278C179.714 103.973 180.067 103.616 180.067 103.175V98.9616C180.067 98.5212 179.714 98.1642 179.278 98.1642H167.612C167.176 98.1642 166.822 98.5212 166.822 98.9616V103.175C166.822 103.616 167.176 103.973 167.612 103.973Z" fill="white"/>
<path d="M208.649 115.59H205.744V106.06C205.744 105.848 205.827 105.646 205.975 105.496C206.123 105.346 206.324 105.262 206.533 105.262H207.856C208.066 105.262 208.266 105.346 208.415 105.496C208.563 105.646 208.646 105.848 208.646 106.06V115.59H208.649Z" fill="#54A4CC"/>
<path d="M202.642 145.254H207.86C208.296 145.254 208.649 144.897 208.649 144.456V143.849C208.649 143.409 208.296 143.052 207.86 143.052H202.642C202.206 143.052 201.853 143.409 201.853 143.849V144.456C201.853 144.897 202.206 145.254 202.642 145.254Z" fill="#54A4CC"/>
<path d="M184.602 156.52H198.623C199.059 156.52 199.412 156.162 199.412 155.722V154.853C199.412 154.412 199.059 154.055 198.623 154.055H184.602C184.166 154.055 183.812 154.412 183.812 154.853V155.722C183.812 156.162 184.166 156.52 184.602 156.52Z" fill="white"/>
<path d="M180.065 102.328H183.027V99.8064H180.065V102.328Z" fill="#54A4CC"/>
<path d="M202.542 102.328H201.852V99.8136H202.542C202.646 99.8136 202.749 99.8343 202.845 99.8743C202.94 99.9144 203.027 99.9731 203.101 100.047C203.174 100.121 203.232 100.209 203.272 100.306C203.312 100.403 203.332 100.506 203.332 100.611V101.531C203.332 101.635 203.312 101.739 203.272 101.836C203.232 101.933 203.174 102.021 203.101 102.095C203.027 102.169 202.94 102.227 202.845 102.267C202.749 102.307 202.646 102.328 202.542 102.328Z" fill="#54A4CC"/>
<path d="M198.805 135.798H217.584V133.402H199.292L189.881 123.98V107.668H187.509V124.479C187.509 124.637 187.54 124.794 187.602 124.939C187.663 125.085 187.752 125.217 187.864 125.327L197.973 135.45C198.194 135.672 198.493 135.797 198.805 135.798Z" fill="#54A4CC"/>
<path d="M203.289 121.138C204.325 121.138 205.164 120.29 205.164 119.245C205.164 118.199 204.325 117.352 203.289 117.352C202.254 117.352 201.415 118.199 201.415 119.245C201.415 120.29 202.254 121.138 203.289 121.138Z" fill="#54A4CC"/>
<path d="M220.678 136.363C221.593 136.363 222.335 135.614 222.335 134.69C222.335 133.765 221.593 133.016 220.678 133.016C219.763 133.016 219.021 133.765 219.021 134.69C219.021 135.614 219.763 136.363 220.678 136.363Z" fill="white"/>
<path d="M223.525 159.317C223.674 159.317 223.818 159.259 223.927 159.157C224.036 159.054 224.104 158.914 224.115 158.764C224.976 147.51 220.462 144.833 220.27 144.726C220.133 144.648 219.971 144.628 219.819 144.671C219.667 144.713 219.539 144.815 219.461 144.954C219.384 145.092 219.364 145.256 219.407 145.41C219.449 145.563 219.55 145.693 219.687 145.771C219.755 145.811 223.728 148.311 222.934 158.67C222.928 158.749 222.937 158.828 222.961 158.902C222.985 158.977 223.024 159.046 223.074 159.106C223.125 159.166 223.186 159.215 223.256 159.251C223.325 159.286 223.401 159.307 223.479 159.313L223.525 159.317Z" fill="#54A4CC"/>
<path d="M224.526 117.676H219.035V115.776C219.035 115.564 219.118 115.361 219.266 115.212C219.414 115.062 219.615 114.978 219.824 114.978H223.737C223.946 114.978 224.147 115.062 224.295 115.212C224.443 115.361 224.526 115.564 224.526 115.776V117.676Z" fill="white"/>
<path d="M229.076 116.877H231.455V82.8562C231.455 82.539 231.331 82.2347 231.109 82.0104C230.886 81.7861 230.585 81.6601 230.271 81.6601H219.48V74.2782C219.48 73.961 219.355 73.6567 219.133 73.4324C218.911 73.2081 218.61 73.082 218.296 73.082H196.799V75.478H217.108V82.8562C217.111 83.1719 217.238 83.4734 217.461 83.6953C217.683 83.9172 217.983 84.0417 218.296 84.0416H229.076V116.877Z" fill="#54A4CC"/>
<path d="M196.799 81.2166C200.592 81.2166 203.667 78.111 203.667 74.2802C203.667 70.4493 200.592 67.3438 196.799 67.3438C193.006 67.3438 189.931 70.4493 189.931 74.2802C189.931 78.111 193.006 81.2166 196.799 81.2166Z" fill="white"/>
<path d="M219.811 101.066H234.529C234.965 101.066 235.318 100.709 235.318 100.269V97.3737C235.318 96.9333 234.965 96.5762 234.529 96.5762H219.811C219.375 96.5762 219.021 96.9333 219.021 97.3737V100.269C219.021 100.709 219.375 101.066 219.811 101.066Z" fill="white"/>
<path d="M234.528 121.574H219.814C219.605 121.574 219.404 121.49 219.256 121.341C219.108 121.191 219.024 120.988 219.024 120.777V116.879H234.532C234.635 116.879 234.738 116.9 234.834 116.94C234.93 116.98 235.017 117.039 235.09 117.113C235.163 117.187 235.222 117.275 235.261 117.372C235.301 117.468 235.321 117.572 235.321 117.677V120.773C235.322 120.878 235.302 120.983 235.262 121.08C235.222 121.178 235.164 121.266 235.09 121.341C235.016 121.415 234.929 121.474 234.832 121.514C234.736 121.554 234.632 121.575 234.528 121.574Z" fill="white"/>
<path d="M208.07 137.584V131.61C208.07 131.17 207.717 130.812 207.281 130.812H207.117C206.681 130.812 206.328 131.17 206.328 131.61V137.584C206.328 138.024 206.681 138.381 207.117 138.381H207.281C207.717 138.381 208.07 138.024 208.07 137.584Z" fill="white"/>
<path d="M185.737 116.879H191.652C192.088 116.879 192.441 116.522 192.441 116.081V114.979C192.441 114.538 192.088 114.181 191.652 114.181H185.737C185.301 114.181 184.947 114.538 184.947 114.979V116.081C184.947 116.522 185.301 116.879 185.737 116.879Z" fill="white"/>
<path d="M191.652 109.012H185.737C185.528 109.012 185.327 108.928 185.179 108.778C185.031 108.629 184.947 108.426 184.947 108.214V107.252H192.441V108.214C192.441 108.426 192.358 108.629 192.21 108.778C192.062 108.928 191.861 109.012 191.652 109.012Z" fill="#E2E2E2"/>
<path d="M183.82 107.668H201.063C201.499 107.668 201.853 107.311 201.853 106.871V98.9606C201.853 98.5202 201.499 98.1632 201.063 98.1632H183.82C183.384 98.1632 183.03 98.5202 183.03 98.9606V106.871C183.03 107.311 183.384 107.668 183.82 107.668Z" fill="white"/>
<path d="M192.442 104.81C193.477 104.81 194.316 103.962 194.316 102.916C194.316 101.871 193.477 101.023 192.442 101.023C191.407 101.023 190.567 101.871 190.567 102.916C190.567 103.962 191.407 104.81 192.442 104.81Z" fill="#54A4CC"/>
<path d="M305.203 50.7109H259.616V91.5751H305.203V50.7109Z" fill="#E3EAF3"/>
<path d="M257.906 50.0304V92.256C257.906 92.7323 258.094 93.1892 258.427 93.526C258.761 93.8628 259.213 94.0521 259.685 94.0521H305.132C305.604 94.0521 306.056 93.8628 306.39 93.526C306.723 93.1892 306.911 92.7323 306.911 92.256V50.0304C306.911 49.5541 306.723 49.0973 306.39 48.7604C306.056 48.4236 305.604 48.2344 305.132 48.2344H259.685C259.213 48.2344 258.761 48.4236 258.427 48.7604C258.094 49.0973 257.906 49.5541 257.906 50.0304ZM301.167 90.3306H263.665C263.193 90.3306 262.741 90.1414 262.407 89.8045C262.074 89.4677 261.886 89.0109 261.886 88.5345V53.7591C261.886 53.2827 262.074 52.8259 262.407 52.4891C262.741 52.1522 263.193 51.963 263.665 51.963H301.167C301.638 51.963 302.091 52.1522 302.424 52.4891C302.758 52.8259 302.945 53.2827 302.945 53.7591V88.5417C302.943 89.0168 302.755 89.4718 302.422 89.8071C302.088 90.1424 301.637 90.3306 301.167 90.3306Z" fill="#A04833"/>
<path fill-rule="evenodd" clip-rule="evenodd" d="M295.547 56.4641V56.5H295.565C295.574 56.5036 295.584 56.5036 295.593 56.5H295.618H295.654H295.696H295.718H295.75H295.785H295.803H295.842H295.867H295.906H295.931H295.952H295.999H296.045H296.087H296.116H296.251H296.28H296.489C296.79 56.5523 297.067 56.697 297.283 56.9144C297.498 57.1317 297.642 57.411 297.695 57.7141V57.9225V57.9548V58.0877V58.1165V58.1631V58.1883V58.429V58.4505V58.5008V58.5475V58.587V58.6122V58.6696V58.7056V58.7235L297.72 58.7918V58.8169V58.8492V58.8744V58.8924H297.802V58.8744V58.8564V58.8241V58.799V58.7882L297.827 58.7199V58.702V58.684V58.6265V58.5367V58.5152V58.429V58.4074V58.3823V58.3607V58.3356V58.2889V58.2098V58.1775V58.1272V58.0949V57.8866C297.876 57.5821 298.02 57.3012 298.236 57.0833C298.452 56.8655 298.731 56.7217 299.032 56.6724H299.242H299.271H299.402H299.434H299.473H299.52H299.545H299.591H299.612H299.655H299.676H299.701H299.737H299.769H299.797H299.822H299.861H299.893H299.915H299.943H299.961L299.982 56.6509V56.579C299.982 56.579 299.982 56.579 299.954 56.579H300.455H300.434H300.402H300.363H300.327H300.295H300.26H300.235H300.213H300.099H300.078H300.032H300.007H299.986H299.961H299.911H299.879H299.744H299.715H299.505C299.205 56.5262 298.929 56.3813 298.713 56.1641C298.497 55.9469 298.353 55.6678 298.3 55.3649V55.1529V55.1242V55.0739V55.0416V54.959V54.9123V54.8907V54.8656V54.844V54.8189V54.7722V54.7506V54.6608V54.6033V54.5854V54.5674V54.5171V54.4992V54.1184V54.0969V54.0609V54.043H298.264H298.229V54.0609V54.0825V54.1184V54.14V54.1579V54.2082V54.2262V54.2621V54.3196V54.3447V54.3842V54.4309V54.4776V54.5028V54.5495V54.571V54.6177V54.65V54.783V54.8117V55.0236C298.177 55.3272 298.033 55.6071 297.817 55.8245C297.601 56.042 297.324 56.1864 297.023 56.2378H296.813H296.785H296.649H296.621H296.568H296.546H296.521H296.475H296.454H296.429H296.372H296.347H296.326H296.308H296.272H296.237H296.194H296.159H296.134H296.112H296.084L296.063 56.2593V56.2952L295.547 56.4641Z" fill="#80CBE8"/>
<path fill-rule="evenodd" clip-rule="evenodd" d="M290.08 57.7327V57.7615L290.101 57.783H290.119H290.187H290.212H290.229H290.251H290.269H290.72C290.914 57.815 291.092 57.9075 291.23 58.0473C291.369 58.1872 291.46 58.3674 291.492 58.5625V58.9217V58.9541V59.0115V59.0511V59.245H291.524L291.549 59.2199V59.0259V58.9864V58.9289V58.8966V58.5374C291.582 58.3429 291.674 58.1635 291.812 58.0239C291.951 57.8843 292.128 57.7914 292.321 57.7579H292.773H292.79H292.815H292.833H292.858H292.925H292.947L292.975 57.7292V57.7112L292.947 57.6825H292.925H292.986H292.965H292.918H292.901H292.876H292.858H292.406C292.214 57.649 292.036 57.556 291.898 57.4165C291.76 57.2769 291.668 57.0975 291.634 56.903V56.5438V56.5114V56.4539V56.4144V56.2205L291.609 56.1953H291.563V56.3893V56.4288V56.4863V56.5186V56.8778C291.53 57.0723 291.438 57.2517 291.3 57.3913C291.162 57.5309 290.984 57.6238 290.791 57.6573H290.34H290.322H290.301H290.283H290.237H290.212H290.141H290.123L290.101 57.6789L290.08 57.7327Z" fill="#80CBE8"/>
<path fill-rule="evenodd" clip-rule="evenodd" d="M293.719 62.7732V62.8019L293.74 62.8235C293.74 62.8235 293.74 62.8235 293.761 62.8235H293.786H293.815H293.843H294.103H294.131H294.185H294.213H294.423C294.646 62.8624 294.851 62.9699 295.011 63.1313C295.171 63.2927 295.277 63.5001 295.316 63.7251V64.113V64.1454V64.2244V64.2711V64.307V64.3321V64.3537V64.3717H295.348V64.3501V64.325V64.289V64.2423V64.1957V64.1669V63.8185C295.386 63.593 295.493 63.3853 295.654 63.2238C295.815 63.0623 296.021 62.9551 296.244 62.9169H296.45H296.479H296.532H296.561H296.824H296.856H296.884H296.906C296.906 62.9169 296.906 62.9169 296.93 62.9169L296.952 62.8953V62.7408L296.93 62.7193C296.93 62.7193 296.93 62.7193 296.906 62.7193H296.884H296.856H296.824H296.898H296.87H296.817H296.788H296.582C296.359 62.6811 296.152 62.5738 295.992 62.4123C295.831 62.2509 295.724 62.0431 295.686 61.8177V61.3615V61.3327V61.286V61.2393V61.2178V61.1818V61.1567V61.1351V61.1172H295.654V61.1351V61.1531V61.1711V61.1926V61.2178V61.2393V61.2645V61.3112V61.304V61.3363V61.7243C295.615 61.9492 295.509 62.1566 295.349 62.318C295.189 62.4794 294.984 62.587 294.761 62.6259H294.551H294.523H294.469H294.441H294.181H294.153H294.124H294.099C294.099 62.6259 294.099 62.6259 294.078 62.6259L294.057 62.6474L293.719 62.7732Z" fill="#80CBE8"/>
<path fill-rule="evenodd" clip-rule="evenodd" d="M269.739 85.0106V84.9819C269.739 84.9819 269.722 84.9819 269.711 84.9819H269.686H269.665H269.629H269.59H269.555H269.53H269.508H269.483H269.462H269.405H269.38H269.355H269.309H269.156H269.131H269.081H269.053H269.01H268.971H268.68C268.379 84.929 268.103 84.7842 267.887 84.5669C267.671 84.3497 267.527 84.0707 267.474 83.7677V83.5558V83.527V83.4732V83.4444V83.3618V83.3151V83.2935V83.2684V83.2217V83.175V83.1534V82.8553V82.7978V82.7619V82.744L267.452 82.6757V82.6577V82.6362V82.6003V82.4961H267.417H267.381H267.364V82.532V82.5679V82.5895V82.6074L267.342 82.6757V82.6937V82.7116V82.7691V82.7942V82.8338V82.8805V82.9272V82.9738V82.999V83.0205V83.0672V83.0996V83.2325V83.2612V83.5737C267.292 83.8777 267.148 84.1581 266.932 84.3758C266.716 84.5935 266.438 84.7375 266.137 84.7879H265.845H265.806H265.763H265.735H265.681H265.66H265.614H265.589H265.244H265.219H265.162H265.137H265.116H265.08H265.059H265.027H264.988H264.952H264.927H264.906H264.877L264.853 84.813V84.8418V84.8741H264.87C264.87 84.8741 264.87 84.8741 264.899 84.8741H264.924H264.959H264.998H265.023H265.052H265.08H265.101H265.137H265.158H265.183H265.244H265.269H265.29H265.336H265.379H265.461H265.5H265.553H265.582H265.791C266.092 84.9264 266.369 85.0711 266.585 85.2885C266.8 85.5058 266.945 85.7851 266.997 86.0882V86.2966V86.3289V86.8067V86.8354V86.8821V86.9072V86.9288V86.9755V87.0222V87.0725V87.112V87.1335V87.1946V87.2126V87.2664V87.2844V87.3096V87.3419V87.3778L267.015 87.3958H267.051H267.086V87.3778V87.3419V87.3203V87.288V87.2629V87.2449V87.191V87.1587V87.0976V87.0114V86.9863V86.9396V86.8929V86.8713V86.8462V86.7995V86.7169V86.6881V86.6378V86.6055V86.4474C267.136 86.143 267.279 85.862 267.495 85.6442C267.712 85.4264 267.99 85.2826 268.292 85.2333H268.502H268.53H268.584H268.623H268.704H268.744H269.156H269.202H269.291H269.309H269.33H269.373H269.391H269.416H269.444H269.473H269.512H269.551H269.587H269.608H269.636L269.658 85.2117V85.0106H269.739Z" fill="#80CBE8"/>
<path fill-rule="evenodd" clip-rule="evenodd" d="M275.202 83.7246V83.6923L275.18 83.6671H275.116H275.091H275.045H275.024H275.006H274.825H274.803H274.551C274.353 83.6323 274.172 83.5348 274.033 83.3888C273.894 83.2428 273.805 83.0559 273.779 82.8553V82.4566V82.4315V82.1836H273.743L273.722 82.2051V82.3991V82.4422V82.4997V82.5284V82.8876C273.687 83.0811 273.595 83.2592 273.457 83.3979C273.319 83.5366 273.142 83.6293 272.95 83.6636H272.701H272.676H272.498H272.477H272.456H272.438H272.392H272.37H272.306L272.274 83.6923V83.7534L272.306 83.7821H272.324H272.395H272.417H272.474H272.495H272.673H272.698H272.947C273.139 83.8151 273.317 83.9079 273.456 84.0475C273.594 84.1872 273.686 84.3668 273.718 84.5616V84.9208V84.9495V85.0106V85.0501V85.2441L273.74 85.2656H273.782V85.0106V84.9891V84.5903C273.816 84.396 273.908 84.2169 274.046 84.0774C274.185 83.9379 274.362 83.8448 274.554 83.8108H274.807H274.828H275.01H275.027H275.084H275.109H275.177L275.198 83.7857L275.202 83.7246Z" fill="#80CBE8"/>
<path fill-rule="evenodd" clip-rule="evenodd" d="M271.567 78.6844V78.6557L271.542 78.6306C271.542 78.6306 271.542 78.6306 271.517 78.6306H271.492H271.446H271.417H271.378H271.076H271.047H270.838C270.613 78.5958 270.406 78.4896 270.245 78.3274C270.084 78.1652 269.979 77.9556 269.945 77.7289V77.341V77.3051V77.2691V77.2404V77.1721V77.1506V77.1254V77.1039L269.927 77.0859H269.881V77.1039V77.1254V77.1506V77.1721V77.2404V77.2691V77.3051V77.341V77.7289C269.846 77.9556 269.741 78.1652 269.581 78.3274C269.42 78.4896 269.213 78.5958 268.988 78.6306H268.778H268.75H268.448H268.405H268.376H268.33H268.309H268.287C268.287 78.6306 268.287 78.6306 268.266 78.6306L268.241 78.6557V78.7132L268.266 78.7383H268.287H268.309H268.337H268.38H268.423H268.643H268.675H268.963C269.188 78.7733 269.396 78.88 269.557 79.0429C269.717 79.2058 269.822 79.4162 269.856 79.6435V80.0279V80.0638V80.0997V80.1285V80.2003V80.2219V80.247V80.2686V80.2865H269.902V80.2686L269.92 80.2506V80.2291V80.2039V80.1824V80.1105V80.0818V80.0459V80.0099V79.7297C269.954 79.5024 270.059 79.292 270.219 79.1291C270.38 78.9663 270.588 78.8595 270.813 78.8245H271.104H271.133H271.353H271.392H271.435H271.464H271.488C271.488 78.8245 271.51 78.8245 271.513 78.8245L271.538 78.7994L271.567 78.6844Z" fill="#80CBE8"/>
<path d="M280.978 72.0374C280.978 72.0374 277.315 75.6296 272.798 75.6296C268.281 75.6296 264.617 72.0374 264.617 72.0374C266.534 70.1731 269.824 68.4453 272.798 68.4453C275.771 68.4453 279.029 70.1588 280.978 72.0374Z" fill="#E2E2E2"/>
<path d="M280.751 71.8327C279.556 72.8277 276.597 74.9112 273.154 74.9112C269.298 74.9112 266.065 72.2961 265.201 71.5274C266.396 70.5323 269.355 68.4453 272.798 68.4453C276.654 68.4453 279.887 71.064 280.751 71.8327Z" fill="white"/>
<path d="M276.355 72.0401C276.354 72.5992 276.225 73.1505 275.977 73.6502C275.728 74.1499 275.368 74.5841 274.924 74.9184C274.481 75.2526 273.966 75.4777 273.421 75.5756C272.876 75.6735 272.316 75.6416 271.785 75.4824C271.254 75.3232 270.768 75.0411 270.364 74.6585C269.961 74.276 269.651 73.8036 269.46 73.2789C269.269 72.7542 269.202 72.1917 269.264 71.6361C269.326 71.0806 269.515 70.5473 269.817 70.0788C271.731 67.101 276.355 68.4696 276.355 72.0401Z" fill="#374F68"/>
<path d="M276.355 72.0384C276.355 72.4586 276.283 72.8756 276.141 73.2705C274.22 76.2592 269.597 74.8942 269.597 71.32C269.594 70.8982 269.667 70.4794 269.814 70.0843C271.731 67.0992 276.355 68.4678 276.355 72.0384Z" fill="#425B72"/>
<path d="M274.22 72.0373C274.221 72.3446 274.125 72.6441 273.945 72.8919C273.765 73.1398 273.511 73.3228 273.221 73.4142C272.93 73.5056 272.618 73.5005 272.331 73.3997C272.044 73.2988 271.796 73.1076 271.624 72.854C271.452 72.6005 271.365 72.2979 271.376 71.9908C271.387 71.6837 271.495 71.3882 271.684 71.1478C271.874 70.9073 272.135 70.7345 272.428 70.6547C272.722 70.575 273.034 70.5924 273.317 70.7046C273.582 70.8097 273.811 70.993 273.972 71.2306C274.133 71.4682 274.219 71.7493 274.22 72.0373Z" fill="#374F68"/>
<path d="M274.196 72.2962C273.987 72.5224 273.71 72.6742 273.408 72.7289C273.106 72.7837 272.795 72.7384 272.521 72.5998C272.246 72.4613 272.024 72.2369 271.886 71.9602C271.748 71.6834 271.703 71.3691 271.756 71.0641C272.731 69.9865 274.491 70.9348 274.196 72.2962Z" fill="#425B72"/>
<path d="M272.798 72.3981C272.711 72.399 272.628 72.3681 272.562 72.3113C272.497 72.2544 272.454 72.1755 272.442 72.0892C272.432 72.0169 272.444 71.9431 272.476 71.8778C272.509 71.8125 272.56 71.7588 272.623 71.7237C272.687 71.6887 272.759 71.674 272.831 71.6817C272.903 71.6893 272.971 71.7189 273.026 71.7666C273.081 71.8142 273.12 71.8776 273.138 71.9482C273.157 72.0189 273.153 72.0935 273.128 72.1622C273.103 72.2308 273.058 72.2901 272.999 72.3323C272.94 72.3744 272.87 72.3974 272.798 72.3981Z" fill="#2C435E"/>
<path d="M281.227 71.7846C280.374 70.9915 279.432 70.3008 278.421 69.7263C277.681 69.0243 277.09 68.1773 276.685 67.237C276.668 67.1931 276.642 67.1531 276.61 67.1192C276.577 67.0853 276.538 67.0583 276.495 67.0396C276.452 67.0209 276.406 67.0109 276.36 67.0103C276.313 67.0097 276.266 67.0183 276.223 67.0358C276.179 67.0532 276.139 67.0793 276.105 67.1124C276.071 67.1456 276.044 67.1852 276.026 67.229C276.007 67.2728 275.998 67.3199 275.997 67.3675C275.997 67.4151 276.006 67.4623 276.024 67.5064C276.828 69.5216 277.596 68.9936 275.142 68.3829C274.075 67.4094 274.366 66.5114 273.779 66.6658C273.734 66.676 273.69 66.6951 273.652 66.7223C273.613 66.7494 273.581 66.7839 273.555 66.8239C273.53 66.8641 273.513 66.9089 273.505 66.9557C273.497 67.0026 273.499 67.0506 273.509 67.0969C273.897 68.6164 274.761 68.0883 272.723 68.0883C272.434 67.7476 272.217 67.3501 272.086 66.9209C272.075 66.8751 272.054 66.8321 272.026 66.7944C271.998 66.7566 271.963 66.7248 271.923 66.7008C271.882 66.6768 271.838 66.661 271.791 66.6544C271.745 66.6478 271.698 66.6505 271.653 66.6623C271.561 66.6861 271.483 66.7456 271.435 66.8278C271.411 66.8685 271.395 66.9135 271.389 66.9603C271.382 67.0071 271.385 67.0547 271.396 67.1005C271.506 67.4693 271.668 67.8202 271.877 68.1422C271.497 68.1755 271.12 68.2355 270.749 68.3218C270.4 68.0321 270.125 67.6627 269.945 67.2442C269.914 67.157 269.85 67.0856 269.767 67.0451C269.684 67.0045 269.589 66.998 269.501 67.0268C269.414 67.0557 269.341 67.1176 269.298 67.1997C269.254 67.2817 269.244 67.3775 269.27 67.4669C269.421 67.8576 269.65 68.2132 269.942 68.5122C269.569 68.6238 269.202 68.7544 268.843 68.9038C268.558 68.6446 268.33 68.3275 268.174 67.9734C268.159 67.9286 268.136 67.8872 268.105 67.8515C268.074 67.8159 268.037 67.7868 267.995 67.7658C267.91 67.7233 267.812 67.7166 267.722 67.7471C267.633 67.7776 267.559 67.8428 267.517 67.9283C267.475 68.0139 267.468 68.1128 267.498 68.2033C267.65 68.5825 267.872 68.9288 268.153 69.2235C267.797 69.3851 267.484 69.5647 267.178 69.7335C266.84 69.453 266.572 69.0962 266.396 68.6918C266.366 68.6013 266.302 68.5264 266.218 68.4837C266.133 68.4409 266.035 68.4337 265.946 68.4637C265.856 68.4937 265.782 68.5585 265.74 68.6437C265.697 68.7289 265.69 68.8276 265.72 68.9181C265.904 69.375 266.184 69.7857 266.542 70.1215C266.214 70.3298 265.919 70.5346 265.66 70.725C265.364 70.4616 265.129 70.1353 264.973 69.7695C264.785 69.2199 263.486 69.5647 265.09 71.1668C264.354 71.7523 264.262 71.8529 264.262 72.0397C264.261 72.0878 264.271 72.1355 264.289 72.1799C264.307 72.2244 264.334 72.2646 264.368 72.2983C264.525 72.4528 268.174 75.991 272.798 75.991C277.422 75.991 281.071 72.4528 281.227 72.2983C281.261 72.2649 281.288 72.2249 281.306 72.1808C281.325 72.1367 281.334 72.0893 281.334 72.0415C281.334 71.9936 281.325 71.9463 281.306 71.9022C281.288 71.858 281.261 71.8181 281.227 71.7846ZM275.999 72.0397C275.999 72.6791 275.811 73.3041 275.459 73.8358C275.108 74.3675 274.608 74.7818 274.023 75.0265C273.438 75.2712 272.794 75.3352 272.173 75.2105C271.552 75.0857 270.982 74.7778 270.534 74.3257C270.087 73.8736 269.782 73.2975 269.658 72.6704C269.535 72.0433 269.598 71.3932 269.84 70.8025C270.083 70.2118 270.493 69.7068 271.019 69.3516C271.546 68.9964 272.165 68.8068 272.798 68.8068C273.647 68.8068 274.461 69.1474 275.061 69.7537C275.662 70.36 275.999 71.1823 275.999 72.0397ZM270.02 69.263C269.296 70.0027 268.889 71.0011 268.889 72.0415C268.889 73.0819 269.296 74.0803 270.02 74.82C268.235 74.2192 266.581 73.2751 265.151 72.0397C266.582 70.8069 268.235 69.8641 270.02 69.263ZM275.576 74.82C276.3 74.0803 276.706 73.0819 276.706 72.0415C276.706 71.0011 276.3 70.0027 275.576 69.263C277.361 69.8633 279.014 70.8061 280.445 72.0397C279.015 73.2756 277.361 74.2198 275.576 74.82Z" fill="#454851"/>
<path d="M272.798 73.8343C273.15 73.8343 273.493 73.729 273.786 73.5316C274.078 73.3343 274.306 73.0538 274.441 72.7256C274.575 72.3974 274.611 72.0363 274.542 71.6879C274.473 71.3395 274.304 71.0194 274.055 70.7682C273.807 70.5171 273.49 70.346 273.145 70.2767C272.8 70.2074 272.442 70.243 272.117 70.3789C271.792 70.5148 271.515 70.7451 271.319 71.0404C271.124 71.3358 271.02 71.683 271.02 72.0383C271.02 72.5146 271.207 72.9714 271.54 73.3083C271.874 73.6451 272.326 73.8343 272.798 73.8343ZM272.798 70.9606C273.009 70.9606 273.215 71.0238 273.391 71.1422C273.566 71.2606 273.703 71.4289 273.784 71.6259C273.864 71.8228 273.886 72.0395 273.844 72.2485C273.803 72.4575 273.702 72.6496 273.552 72.8003C273.403 72.951 273.213 73.0536 273.006 73.0952C272.799 73.1368 272.585 73.1154 272.39 73.0339C272.195 72.9523 272.028 72.8142 271.911 72.637C271.793 72.4597 271.731 72.2514 271.731 72.0383C271.731 71.7524 271.843 71.4783 272.043 71.2762C272.243 71.0742 272.515 70.9606 272.798 70.9606Z" fill="#BCDDEC"/>
<path d="M272.663 72.3731C272.728 72.4001 272.799 72.4071 272.868 72.393C272.937 72.3789 273.001 72.3445 273.05 72.294C273.1 72.244 273.134 72.1801 273.148 72.1105C273.162 72.0409 273.156 71.9687 273.129 71.9029C273.102 71.8372 273.057 71.7809 272.999 71.7412C272.94 71.7014 272.872 71.6801 272.801 71.6798C272.718 71.6778 272.636 71.7056 272.571 71.7583C272.506 71.8109 272.461 71.8851 272.445 71.9678C272.428 72.0504 272.441 72.1363 272.481 72.2104C272.521 72.2846 272.585 72.3421 272.663 72.3731Z" fill="#396E8E"/>
<path d="M283.838 72.0374C285.787 70.1588 289.048 68.4453 292.018 68.4453C294.988 68.4453 298.282 70.1731 300.199 72.0374C300.199 72.0374 296.535 75.6296 292.018 75.6296C287.501 75.6296 283.838 72.0374 283.838 72.0374Z" fill="#E2E2E2"/>
<path d="M284.069 71.8327C284.93 71.064 288.163 68.4453 292.019 68.4453C295.461 68.4453 298.421 70.5323 299.616 71.5274C298.751 72.2961 295.518 74.9112 291.663 74.9112C288.22 74.9112 285.261 72.8277 284.069 71.8327Z" fill="white"/>
<path d="M288.461 72.0401C288.461 68.4696 293.085 67.101 294.998 70.0788C295.3 70.5473 295.49 71.0806 295.552 71.6361C295.614 72.1917 295.547 72.7542 295.356 73.2789C295.165 73.8036 294.855 74.276 294.451 74.6585C294.048 75.0411 293.561 75.3232 293.03 75.4824C292.5 75.6416 291.94 75.6735 291.395 75.5756C290.85 75.4777 290.335 75.2526 289.891 74.9184C289.447 74.5841 289.087 74.1499 288.839 73.6502C288.591 73.1505 288.461 72.5992 288.461 72.0401Z" fill="#374F68"/>
<path d="M288.461 72.0384C288.461 68.4678 293.085 67.0992 295.005 70.0843C295.15 70.4796 295.223 70.8984 295.219 71.32C295.219 74.9121 290.595 76.2592 288.678 73.2705C288.535 72.8758 288.461 72.4588 288.461 72.0384Z" fill="#425B72"/>
<path d="M290.596 72.0392C290.596 71.7384 290.69 71.4454 290.865 71.2015C291.039 70.9576 291.285 70.7751 291.567 70.6797C291.85 70.5843 292.155 70.5808 292.439 70.6697C292.724 70.7587 292.973 70.9356 293.153 71.1755C293.333 71.4154 293.433 71.7062 293.441 72.0069C293.448 72.3076 293.362 72.603 293.194 72.8516C293.026 73.1001 292.785 73.2893 292.506 73.3923C292.226 73.4953 291.921 73.507 291.634 73.4258C291.335 73.341 291.071 73.1596 290.884 72.9092C290.696 72.6588 290.595 72.3532 290.596 72.0392Z" fill="#374F68"/>
<path d="M290.621 72.2969C290.326 70.9355 292.09 69.9944 293.061 71.0648C293.359 72.4298 291.595 73.3746 290.621 72.2969Z" fill="#425B72"/>
<path d="M292.018 72.3975C291.961 72.397 291.904 72.3824 291.853 72.3548C291.802 72.3273 291.759 72.2877 291.727 72.2395C291.694 72.1911 291.674 72.1356 291.668 72.0777C291.662 72.0198 291.67 71.9612 291.691 71.9071C291.712 71.8529 291.746 71.8047 291.79 71.7667C291.833 71.7287 291.886 71.702 291.942 71.6889C291.998 71.6758 292.056 71.6767 292.112 71.6915C292.168 71.7063 292.219 71.7346 292.262 71.774C292.304 71.8133 292.337 71.8625 292.356 71.9173C292.376 71.9721 292.382 72.0309 292.374 72.0886C292.362 72.1749 292.319 72.2538 292.254 72.3107C292.188 72.3675 292.105 72.3984 292.018 72.3975Z" fill="#2C435E"/>
<path d="M283.592 71.7848C283.558 71.8183 283.532 71.8583 283.513 71.9024C283.495 71.9465 283.485 71.9938 283.485 72.0417C283.485 72.0895 283.495 72.1369 283.513 72.181C283.532 72.2251 283.558 72.2651 283.592 72.2985C283.745 72.453 287.395 75.9912 292.018 75.9912C296.642 75.9912 300.295 72.4386 300.455 72.2985C300.489 72.2648 300.516 72.2246 300.534 72.1801C300.552 72.1357 300.562 72.088 300.561 72.0399C300.561 71.8531 300.469 71.7525 299.736 71.167C301.337 69.5649 300.042 69.2201 299.85 69.7697C299.697 70.137 299.462 70.4638 299.164 70.7252C298.904 70.5348 298.612 70.33 298.282 70.1217C298.641 69.7879 298.922 69.3766 299.103 68.9183C299.133 68.8283 299.125 68.7302 299.083 68.6454C299.041 68.5606 298.968 68.496 298.879 68.4657C298.835 68.4505 298.788 68.4443 298.741 68.4474C298.694 68.4506 298.649 68.463 298.607 68.4841C298.565 68.5051 298.527 68.5343 298.497 68.57C298.466 68.6057 298.442 68.6471 298.427 68.692C298.252 69.0961 297.985 69.453 297.648 69.7337C297.343 69.5649 297.026 69.3745 296.67 69.2237C296.952 68.9299 297.175 68.5834 297.325 68.2035C297.354 68.1134 297.347 68.0153 297.305 67.9306C297.263 67.8458 297.19 67.7812 297.101 67.7509C297.012 67.72 296.914 67.7261 296.829 67.7678C296.745 67.8096 296.68 67.8836 296.649 67.9736C296.496 68.3283 296.269 68.6456 295.984 68.904C295.624 68.7546 295.258 68.624 294.885 68.5124C295.174 68.2113 295.402 67.8563 295.557 67.4671C295.586 67.3761 295.579 67.2771 295.536 67.1919C295.493 67.1067 295.418 67.0422 295.328 67.0127C295.238 66.9832 295.14 66.991 295.055 67.0344C294.971 67.0779 294.907 67.1534 294.878 67.2444C294.699 67.6626 294.425 68.0319 294.078 68.322C293.705 68.2354 293.327 68.1754 292.947 68.1424C293.157 67.8205 293.32 67.4697 293.43 67.1007C293.454 67.0054 293.439 66.9046 293.389 66.8204C293.339 66.7362 293.258 66.6755 293.163 66.6517C293.069 66.6279 292.969 66.6429 292.886 66.6934C292.803 66.7439 292.742 66.8258 292.719 66.9211C292.591 67.3507 292.375 67.7485 292.086 68.0885C290.044 68.0885 290.909 68.6166 291.296 67.0971C291.307 67.0509 291.308 67.003 291.3 66.9562C291.292 66.9095 291.275 66.8648 291.25 66.8247C291.225 66.7846 291.192 66.75 291.154 66.7227C291.115 66.6955 291.072 66.6762 291.026 66.666C290.439 66.5116 290.731 67.4096 289.664 68.3831C287.213 68.9938 287.981 69.5218 288.782 67.5066C288.8 67.4628 288.809 67.4158 288.809 67.3683C288.809 67.3209 288.799 67.2739 288.781 67.2301C288.763 67.1864 288.736 67.1467 288.703 67.1134C288.669 67.0801 288.63 67.0538 288.586 67.036C288.542 67.018 288.496 67.0089 288.448 67.0092C288.401 67.0096 288.355 67.0194 288.311 67.0381C288.268 67.0569 288.229 67.0841 288.196 67.1183C288.163 67.1524 288.137 67.1929 288.12 67.2372C287.715 68.1768 287.126 69.0237 286.388 69.7265C285.376 70.2993 284.434 70.9901 283.582 71.7848H283.592ZM288.817 72.0399C288.817 71.4005 289.005 70.7754 289.357 70.2438C289.708 69.7121 290.208 69.2977 290.793 69.0531C291.378 68.8084 292.022 68.7443 292.643 68.8691C293.264 68.9938 293.834 69.3017 294.282 69.7539C294.729 70.206 295.034 70.782 295.158 71.4092C295.281 72.0363 295.218 72.6863 294.976 73.2771C294.733 73.8678 294.323 74.3727 293.797 74.728C293.27 75.0832 292.651 75.2728 292.018 75.2728C291.169 75.2728 290.355 74.9322 289.755 74.3259C289.154 73.7196 288.817 72.8973 288.817 72.0399ZM294.796 69.2632C296.581 69.8635 298.234 70.8063 299.665 72.0399C298.235 73.2758 296.582 74.22 294.796 74.8202C295.52 74.0805 295.927 73.0821 295.927 72.0417C295.927 71.0013 295.52 70.0029 294.796 69.2632ZM289.244 74.8202C287.458 74.2192 285.803 73.2751 284.371 72.0399C285.804 70.807 287.458 69.8642 289.244 69.2632C288.52 70.0029 288.113 71.0013 288.113 72.0417C288.113 73.0821 288.52 74.0805 289.244 74.8202Z" fill="#454851"/>
<path d="M292.019 73.8343C292.37 73.8343 292.714 73.729 293.007 73.5316C293.299 73.3343 293.527 73.0538 293.662 72.7256C293.796 72.3974 293.831 72.0363 293.763 71.6879C293.694 71.3395 293.525 71.0194 293.276 70.7682C293.027 70.5171 292.71 70.346 292.366 70.2767C292.021 70.2074 291.663 70.243 291.338 70.3789C291.013 70.5148 290.735 70.7451 290.54 71.0404C290.345 71.3358 290.24 71.683 290.24 72.0383C290.24 72.5146 290.428 72.9714 290.761 73.3083C291.095 73.6451 291.547 73.8343 292.019 73.8343ZM292.019 70.9606C292.23 70.9606 292.436 71.0238 292.611 71.1422C292.787 71.2606 292.924 71.4289 293.004 71.6259C293.085 71.8228 293.106 72.0395 293.065 72.2485C293.024 72.4575 292.922 72.6496 292.773 72.8003C292.624 72.951 292.434 73.0536 292.227 73.0952C292.02 73.1368 291.805 73.1154 291.61 73.0339C291.415 72.9523 291.249 72.8142 291.131 72.637C291.014 72.4597 290.952 72.2514 290.952 72.0383C290.952 71.7524 291.064 71.4783 291.264 71.2762C291.464 71.0742 291.736 70.9606 292.019 70.9606Z" fill="#BCDDEC"/>
<path d="M292.153 72.375C292.224 72.3457 292.283 72.2942 292.322 72.2282C292.362 72.1622 292.379 72.0852 292.372 72.0085C292.365 71.9318 292.333 71.8595 292.282 71.8023C292.231 71.7451 292.163 71.7059 292.088 71.6907C292.013 71.6755 291.936 71.6849 291.867 71.7176C291.798 71.7504 291.741 71.8047 291.705 71.8725C291.668 71.9403 291.655 72.0181 291.666 72.0944C291.677 72.1706 291.712 72.2413 291.765 72.296C291.815 72.3464 291.878 72.3809 291.947 72.3949C292.016 72.409 292.088 72.4021 292.153 72.375Z" fill="#396E8E"/>
<path d="M318.544 222.796C317.161 216.528 315.038 210.633 310.613 211.14C306.188 211.646 302.653 217.771 302.518 224.635C302.393 231.055 307.405 235.771 311.833 235.268C316.261 234.765 320.287 230.685 318.544 222.796Z" fill="#7BCE34"/>
<path d="M314.205 226.66C309.78 227.171 304.765 222.447 304.893 216.028C304.893 215.88 304.893 215.733 304.893 215.586C303.358 218.352 302.536 221.464 302.503 224.635C302.379 231.054 307.39 235.77 311.818 235.267C315.916 234.797 319.675 231.262 318.818 224.491C317.563 225.713 315.939 226.477 314.205 226.66Z" fill="#3C8F2D"/>
<path d="M330.574 241.1C330.218 234.688 326.661 232.838 322.219 233.345C317.777 233.851 314.259 239.972 314.124 246.837C313.999 253.26 316.347 255.749 320.771 255.239C325.196 254.729 331.043 249.746 330.574 241.1Z" fill="#7BCE34"/>
<path d="M327.757 249.465C323.332 249.971 320.999 247.482 321.113 241.063C321.151 238.38 321.738 235.735 322.838 233.293C322.632 233.293 322.429 233.322 322.219 233.347C317.794 233.853 314.259 239.974 314.124 246.839C313.999 253.262 316.347 255.751 320.771 255.241C323.535 254.925 326.853 252.863 328.838 249.253C328.483 249.348 328.121 249.419 327.757 249.465Z" fill="#3C8F2D"/>
<path d="M303.439 233.753C299.883 230.861 295.835 230.552 294.053 232.428C292.271 234.303 293.523 237.708 296.653 241.473C299.577 244.993 303.208 246.904 305.826 245.043C307.924 243.545 307.903 237.392 303.439 233.753Z" fill="#7BCE34"/>
<path d="M304.367 234.608C304.417 236.372 303.912 237.841 303.019 238.48C300.401 240.341 296.77 238.43 293.843 234.91C293.643 234.666 293.448 234.425 293.263 234.191C293.057 236.11 294.33 238.696 296.656 241.48C299.58 245 303.211 246.911 305.829 245.05C307.771 243.657 307.892 238.286 304.367 234.608Z" fill="#3C8F2D"/>
<path d="M298.385 234.727C299.351 235.32 300.258 236.008 301.091 236.781C301.19 236.883 301.279 236.994 301.358 237.112C301.44 237.227 301.529 237.338 301.618 237.449C301.789 237.672 301.973 237.884 302.137 238.118C302.461 238.581 302.809 239.026 303.112 239.504C304.37 241.384 305.421 243.398 306.245 245.51C307.087 247.615 307.69 249.809 308.041 252.051L308.184 252.888C308.205 253.028 308.233 253.169 308.248 253.309L308.283 253.733C308.326 254.3 308.383 254.864 308.422 255.428C308.388 255.998 308.32 256.565 308.219 257.127C308.13 257.691 308.034 258.248 307.927 258.801C307.824 258.241 307.732 257.684 307.646 257.131C307.561 256.578 307.508 256.032 307.358 255.489C307.305 254.947 307.269 254.411 307.223 253.851L307.188 253.442C307.188 253.309 307.145 253.172 307.124 253.036L306.988 252.227C306.648 250.062 306.066 247.942 305.253 245.909C304.462 243.868 303.449 241.923 302.233 240.108C301.941 239.644 301.604 239.213 301.291 238.768C300.978 238.322 300.618 237.909 300.277 237.485C299.687 236.551 299.064 235.632 298.385 234.727Z" fill="#2E6821"/>
<path d="M310.926 213.297C311.235 215.172 311.463 217.054 311.69 218.937L311.872 224.605C311.978 228.384 312.053 232.165 312.096 235.949C312.131 239.731 312.124 243.514 312.021 247.3C311.968 249.193 311.886 251.09 311.74 252.986C311.587 253.928 311.416 254.869 311.203 255.803C311.009 256.741 310.712 257.654 310.317 258.525L310.46 257.829L310.538 257.11C310.588 256.643 310.616 256.173 310.637 255.706C310.67 254.764 310.691 253.827 310.677 252.886C310.819 251.014 310.901 249.136 310.954 247.253C311.057 243.485 311.064 239.71 311.029 235.942C310.993 232.174 310.911 228.398 310.805 224.619C310.748 222.733 310.694 220.848 310.616 218.962C310.705 217.087 310.79 215.194 310.926 213.297Z" fill="#2E6821"/>
<path d="M314.113 258.089C314.576 257.205 314.956 256.293 315.337 255.398C315.86 254.583 316.343 253.739 316.827 252.884C317.784 251.192 318.691 249.46 319.584 247.725C320.476 245.99 321.337 244.234 322.187 242.474L323.446 239.826C324.008 239.011 324.566 238.192 325.175 237.395C324.954 238.375 324.68 239.331 324.41 240.29L323.144 242.944C322.295 244.712 321.425 246.471 320.533 248.221C319.633 249.967 318.723 251.706 317.752 253.419L317.012 254.698C316.756 255.118 316.514 255.549 316.251 255.969C315.613 256.749 314.896 257.459 314.113 258.089Z" fill="#2E6821"/>
<path d="M320.782 280.088H304.475C303.459 280.084 302.477 279.714 301.707 279.044C300.937 278.374 300.429 277.449 300.274 276.435L297.4 257.102C297.201 255.762 306.957 256.826 312.933 256.765C318.559 256.707 327.757 256.175 327.657 256.847L324.997 276.435C324.842 277.452 324.331 278.379 323.559 279.049C322.786 279.719 321.801 280.087 320.782 280.088Z" fill="#ABBCCA"/>
<path d="M312.526 256.767C306.555 256.828 297.2 255.761 297.4 257.101L300.273 276.434C300.428 277.448 300.937 278.373 301.707 279.043C302.477 279.713 303.458 280.083 304.474 280.087H310.926C309.243 278.256 308.296 275.858 308.267 273.36C308.239 270.862 309.132 268.443 310.773 266.573C312.228 264.957 314.593 264.131 319.309 262.478C321.578 261.681 323.396 261.282 325.355 259.605C326.182 258.935 326.93 258.172 327.585 257.331L327.653 256.85C327.756 256.174 318.157 256.717 312.526 256.767Z" fill="#91A6B5"/>
<path d="M222.101 235.167L220.661 232.738L212.004 237.128C212.38 238.024 212.571 238.989 212.566 239.962C212.52 241.431 222.101 235.167 222.101 235.167Z" fill="#EA9D7D"/>
<path d="M272.051 181.719C272.051 181.719 279.649 197.269 265.482 204.734C251.316 212.198 242.492 214.892 242.079 218.003C241.666 221.114 244.338 225.259 243.107 237.699C241.876 250.138 239.821 264.862 239.821 264.862C239.821 264.862 228.941 266.522 227.297 264.862C225.654 263.203 227.71 242.376 225.875 223.657C225.875 223.657 222.385 214.677 227.006 209.087L230.918 205.355L207.821 205.147C207.821 205.147 214.184 211.99 216.339 218.107C218.494 224.224 221.372 232.835 221.372 232.835L211.619 237.605C211.619 237.605 197.837 216.128 193.117 211.885C188.398 207.643 183.059 195.721 191.268 192.488C199.477 189.255 218.26 185.124 239.404 184.517L240.176 181.733L272.051 181.719Z" fill="#FFC065"/>
<path d="M241.532 194.71L230.894 205.35L207.797 205.142C207.797 205.142 214.16 211.985 216.315 218.102C218.47 224.219 221.344 232.83 221.344 232.83L211.595 237.6C212.986 234.177 214.416 229.126 213.409 223.465C211.211 211.133 200.271 206.481 201.316 201.628C202.138 197.857 210.24 194.261 241.532 194.71Z" fill="#FFAA39"/>
<path d="M211.513 237.561C212.001 235.927 212.39 234.264 212.676 232.582C212.952 230.921 213.079 229.238 213.056 227.553C213.038 226.72 212.975 225.889 212.868 225.064C212.769 224.241 212.625 223.424 212.434 222.617C212.044 221.01 211.518 219.439 210.862 217.923C210.199 216.378 209.412 214.891 208.511 213.475C208.052 212.757 207.565 212.067 207.056 211.388C206.548 210.71 205.989 210.045 205.452 209.391C204.353 208.08 203.165 206.844 202.137 205.422C201.872 205.064 201.634 204.685 201.426 204.29C201.206 203.885 201.041 203.451 200.935 203.001C200.833 202.529 200.817 202.042 200.889 201.564C200.977 201.08 201.155 200.618 201.415 200.203C201.935 199.419 202.617 198.758 203.414 198.266C204.164 197.779 204.96 197.368 205.79 197.038C207.418 196.404 209.097 195.911 210.809 195.565C212.502 195.206 214.205 194.922 215.912 194.696C217.62 194.47 219.327 194.311 221.038 194.2C224.459 193.988 227.881 193.941 231.295 194.02C234.71 194.1 238.121 194.279 241.524 194.631V194.811C234.71 195.303 227.92 195.551 221.176 196.115C217.805 196.384 214.419 196.664 211.132 197.232C209.493 197.507 207.875 197.895 206.288 198.392C205.513 198.638 204.76 198.95 204.037 199.322C203.337 199.664 202.72 200.154 202.226 200.759C202.001 201.054 201.833 201.389 201.732 201.747C201.641 202.114 201.623 202.494 201.679 202.868C201.836 203.666 202.16 204.422 202.628 205.084C203.098 205.788 203.614 206.46 204.172 207.096C204.719 207.75 205.299 208.382 205.875 209.014C207.038 210.275 208.202 211.55 209.297 212.901C210.409 214.258 211.379 215.728 212.192 217.287C213.007 218.867 213.605 220.551 213.971 222.294C214.155 223.166 214.288 224.047 214.369 224.934C214.444 225.82 214.465 226.708 214.433 227.596C214.267 231.114 213.325 234.551 211.676 237.654L211.513 237.561Z" fill="#7C2F13"/>
<path d="M214.451 276.674C217.737 273.703 225.537 269.971 227.315 264.855C228.681 266.235 236.421 265.322 238.999 264.974C238.999 264.974 240.251 269.004 240.319 271.907C240.386 274.809 240.319 275.639 240.319 275.639L235.528 276.26V275.014C235.528 275.014 232.722 275.154 231.217 276.674C229.713 278.193 225.398 280.197 220.746 279.993C216.094 279.788 211.182 279.648 214.451 276.674Z" fill="#D18165"/>
<path d="M220.75 279.993C225.402 280.197 229.713 278.197 231.221 276.674C232.729 275.151 235.532 275.014 235.532 275.014V276.26L240.323 275.639C240.323 275.639 240.39 274.809 240.323 271.907C240.24 270.371 240.01 268.847 239.636 267.356C239.313 265.983 239 264.978 239 264.978C236.421 265.337 228.685 266.231 227.319 264.855C226.945 265.869 226.401 266.811 225.712 267.639C225.488 267.92 225.249 268.196 225 268.466C224.751 268.735 224.577 268.9 224.36 269.112C224.083 269.382 223.798 269.655 223.496 269.92C220.462 272.586 216.543 274.784 214.451 276.674C211.183 279.648 216.098 279.784 220.75 279.993Z" fill="#25BEEF"/>
<path d="M238.999 264.98C238.999 264.98 240.251 269.011 240.318 271.913C240.318 272.592 240.343 273.153 240.347 273.623C238.657 273.824 236.665 273.875 237.352 272.869C238.49 271.198 237.932 265.117 237.932 265.117L238.999 264.98Z" fill="#EF3E3B"/>
<path d="M213.789 277.374C213.988 277.116 214.209 276.875 214.45 276.656C215.834 275.406 218.007 274.019 220.212 272.453C222.105 272.79 223.855 273.691 225.238 275.039C226.436 276.25 226.735 278.384 227.059 278.718C225.992 280.043 213.778 279.727 213.43 278.538V278.495C213.411 278.09 213.539 277.692 213.789 277.374Z" fill="#EF3E3B"/>
<path d="M220.746 279.992C217.012 279.823 213.103 279.701 213.405 278.121C225.085 280.951 229.713 276.325 230.563 274.945C231.413 273.566 233.476 273.426 233.476 273.426C237.26 273.383 239.28 272.169 240.283 271.238C240.283 271.465 240.312 271.687 240.319 271.906C240.386 274.809 240.319 275.639 240.319 275.639L235.528 276.26V275.014C235.528 275.014 232.722 275.154 231.217 276.673C229.713 278.193 225.409 280.197 220.746 279.992Z" fill="#7C2F13"/>
<path d="M225.004 268.465C225.224 268.616 225.459 268.76 225.694 268.893C226.009 269.08 226.339 269.242 226.679 269.378C227.051 269.536 227.442 269.642 227.842 269.694C227.701 269.292 227.478 268.925 227.188 268.616C226.918 268.322 226.605 268.071 226.259 267.873C226.083 267.775 225.9 267.691 225.712 267.621C225.488 267.919 225.249 268.214 225.004 268.465Z" fill="#7C2F13"/>
<path d="M223.499 269.918C223.659 270.015 223.816 270.112 223.983 270.205C224.301 270.386 224.63 270.547 224.968 270.686C225.339 270.847 225.73 270.955 226.131 271.006C225.99 270.61 225.767 270.248 225.477 269.946C225.207 269.652 224.893 269.401 224.548 269.203C224.489 269.167 224.427 269.136 224.363 269.109C224.086 269.379 223.801 269.648 223.499 269.918Z" fill="#7C2F13"/>
<path d="M203.542 254.451C205.609 250.499 211.652 244.289 211.57 238.872C213.323 239.687 220.27 236.127 222.571 234.902C222.571 234.902 225.124 238.243 226.184 240.944C227.244 243.646 227.461 244.447 227.461 244.447L223.193 246.702L222.766 245.535C222.766 245.535 220.181 246.645 219.291 248.596C218.402 250.546 215.023 253.937 210.602 255.367C206.181 256.796 201.479 258.388 203.542 254.451Z" fill="#D18165"/>
<path d="M210.588 255.367C215.027 253.93 218.384 250.55 219.277 248.596C220.17 246.641 222.756 245.535 222.756 245.535L223.182 246.703L227.45 244.447C227.45 244.447 227.23 243.642 226.17 240.944C225.573 239.532 224.842 238.183 223.986 236.914C223.211 235.739 222.564 234.902 222.564 234.902C220.266 236.127 213.316 239.683 211.566 238.854C211.561 239.935 211.372 241.008 211.008 242.026C210.898 242.385 210.766 242.712 210.627 243.053C210.506 243.329 210.382 243.606 210.25 243.879C210.079 244.238 209.895 244.598 209.713 244.957C207.778 248.52 204.855 251.951 203.539 254.454C201.483 258.388 206.153 256.796 210.588 255.367Z" fill="#25BEEF"/>
<path d="M222.563 234.902C222.563 234.902 225.116 238.243 226.176 240.944C226.422 241.577 226.624 242.101 226.788 242.539C225.269 243.319 223.42 244.062 223.719 242.877C224.216 240.912 221.609 235.402 221.609 235.402C221.983 235.211 222.31 235.042 222.563 234.902Z" fill="#EF3E3B"/>
<path d="M203.162 255.34C203.264 255.033 203.391 254.735 203.543 254.449C204.414 252.794 205.986 250.732 207.512 248.494C209.4 248.146 211.348 248.375 213.107 249.151C214.647 249.87 215.657 251.77 216.076 251.967C215.525 253.584 203.959 257.553 203.226 256.558L203.201 256.526C203.045 256.149 203.031 255.727 203.162 255.34Z" fill="#EF3E3B"/>
<path d="M210.588 255.368C207.031 256.517 203.315 257.764 203.059 256.176C214.988 254.739 217.744 248.801 218.068 247.196C218.392 245.59 220.284 244.749 220.284 244.749C223.819 243.392 225.299 241.545 225.921 240.32C226.014 240.525 226.103 240.733 226.184 240.935C227.251 243.636 227.461 244.437 227.461 244.437L223.193 246.693L222.766 245.525C222.766 245.525 220.181 246.635 219.291 248.586C218.402 250.536 215.023 253.938 210.588 255.368Z" fill="#7C2F13"/>
<path d="M210.635 243.068C210.894 243.129 211.165 243.183 211.428 243.226C211.788 243.293 212.153 243.329 212.52 243.333C212.924 243.354 213.328 243.318 213.722 243.226C213.451 242.906 213.118 242.646 212.744 242.461C212.388 242.284 212.008 242.162 211.616 242.101C211.417 242.072 211.217 242.056 211.015 242.055C210.905 242.385 210.773 242.726 210.635 243.068Z" fill="#7C2F13"/>
<path d="M209.721 244.955C209.902 244.991 210.076 245.027 210.272 245.056C210.633 245.115 210.998 245.153 211.364 245.167C211.768 245.187 212.172 245.149 212.566 245.056C212.296 244.735 211.963 244.474 211.588 244.291C211.233 244.113 210.852 243.992 210.46 243.931C210.393 243.919 210.326 243.911 210.258 243.906C210.087 244.248 209.913 244.603 209.721 244.955Z" fill="#7C2F13"/>
<path d="M239.821 264.861L238.985 264.98L237.694 265.145H237.673L236.396 265.289L235.987 265.328C235.4 265.389 234.82 265.432 234.241 265.479L233.497 265.526H233.362L232.651 265.562L231.882 265.583C231.63 265.583 231.381 265.583 231.136 265.583C230.269 265.593 229.403 265.519 228.55 265.364C233.508 260.802 235.699 256.416 236.784 253.337C240.379 243.1 238.309 228.721 237.808 225.243C237.264 221.464 236.656 219.007 237.929 216.062C239.597 212.211 242.908 210.868 249.1 207.829C254.734 205.059 259.771 202.584 263.495 199.646C266.055 197.616 267.051 194.071 265.682 191.082C264.803 189.15 263.057 187.562 259.739 187.314C254.037 186.819 248.55 184.89 243.776 181.703H272.095V181.735V181.761L272.123 181.825V181.847L272.173 181.962C272.175 181.975 272.175 181.988 272.173 182.001C272.173 182.034 272.205 182.07 272.219 182.109L272.244 182.163C272.244 182.206 272.283 182.253 272.301 182.303L272.319 182.343L272.401 182.551C272.401 182.569 272.401 182.587 272.425 182.608C272.45 182.63 272.468 182.723 272.493 182.784L272.525 182.867L272.596 183.061L272.625 183.133C272.657 183.223 272.692 183.32 272.724 183.42L272.746 183.481C272.774 183.56 272.802 183.643 272.831 183.729C272.831 183.761 272.856 183.797 272.866 183.833C272.877 183.869 272.92 183.995 272.945 184.078L272.977 184.178C273.012 184.293 273.051 184.412 273.087 184.537C273.086 184.554 273.086 184.571 273.087 184.588C273.119 184.692 273.147 184.803 273.179 184.914C273.179 184.954 273.204 184.994 273.215 185.037L273.29 185.324C273.29 185.364 273.311 185.407 273.325 185.446C273.357 185.583 273.393 185.723 273.428 185.863C273.462 186.002 273.494 186.145 273.524 186.294C273.524 186.337 273.546 186.384 273.553 186.43C273.578 186.535 273.599 186.646 273.62 186.754C273.62 186.804 273.642 186.851 273.649 186.901C273.675 187.03 273.7 187.163 273.724 187.3V187.372C273.752 187.526 273.777 187.688 273.802 187.846C273.802 187.892 273.802 187.939 273.802 187.986C273.802 188.104 273.837 188.226 273.852 188.345L273.873 188.507L273.916 188.905V189.02C273.916 189.189 273.948 189.38 273.958 189.534C273.958 189.577 273.958 189.624 273.958 189.667C273.958 189.801 273.965 189.934 273.98 190.066C273.98 190.123 273.98 190.181 273.98 190.238V190.64V190.784C273.98 190.964 273.98 191.143 273.98 191.323C273.98 191.362 273.98 191.402 273.98 191.441C273.98 191.585 273.98 191.732 273.962 191.88C273.962 191.937 273.962 191.998 273.962 192.059C273.962 192.192 273.962 192.329 273.933 192.465C273.933 192.519 273.933 192.573 273.933 192.627C273.933 192.81 273.894 192.986 273.869 193.184C273.871 193.211 273.871 193.239 273.869 193.266C273.848 193.428 273.823 193.59 273.798 193.751L273.766 193.927C273.741 194.064 273.713 194.2 273.684 194.337C273.684 194.398 273.663 194.455 273.649 194.513C273.606 194.699 273.564 194.872 273.514 195.073C273.253 196.159 272.865 197.209 272.358 198.202C272.262 198.378 272.166 198.561 272.059 198.73L271.949 198.92C271.824 199.125 271.689 199.33 271.55 199.531L271.444 199.682C271.15 200.097 270.834 200.495 270.498 200.874L270.37 201.022C270.192 201.216 270.014 201.41 269.818 201.6C268.711 202.685 267.467 203.618 266.119 204.377C265.906 204.495 265.693 204.614 265.468 204.736C264.143 205.438 262.864 206.096 261.631 206.712C260.809 207.128 260.009 207.523 259.234 207.904L258.085 208.465L255.894 209.521L253.863 210.49C249.915 212.362 246.853 213.792 244.836 215.049C244.383 215.329 243.946 215.635 243.527 215.965C243.298 216.147 243.08 216.344 242.876 216.554C242.466 216.935 242.187 217.439 242.08 217.991C242.031 218.399 242.024 218.81 242.058 219.219C242.188 220.391 242.377 221.555 242.624 222.707C242.656 222.891 242.691 223.067 242.727 223.275C242.762 223.483 242.784 223.634 242.816 223.796C242.848 223.957 242.873 224.155 242.901 224.342C243.358 227.328 243.525 230.353 243.399 233.372C243.399 233.706 243.374 234.051 243.356 234.403C243.302 235.426 243.219 236.52 243.107 237.687C243.061 238.154 243.015 238.621 242.965 239.091V239.224C242.869 240.165 242.77 241.117 242.666 242.073V242.187C242.613 242.665 242.563 243.143 242.51 243.624L242.307 245.42C242.24 245.995 242.176 246.566 242.108 247.137V247.224C242.02 247.997 241.93 248.759 241.838 249.508C241.795 249.867 241.752 250.227 241.706 250.586V250.687C241.663 251.021 241.624 251.355 241.585 251.682L241.567 251.811C241.482 252.504 241.4 253.183 241.315 253.84V253.963C241.229 254.638 241.146 255.294 241.066 255.931C240.732 258.55 240.436 260.777 240.226 262.35C240.226 262.451 240.202 262.544 240.187 262.638C240.173 262.731 240.162 262.824 240.152 262.911C240.034 263.78 239.949 264.383 239.91 264.667C239.832 264.796 239.821 264.861 239.821 264.861Z" fill="#FFAA39"/>
<path d="M228.449 265.42C229.281 264.526 230.085 263.624 230.846 262.668C231.606 261.726 232.319 260.745 232.98 259.73C233.632 258.72 234.225 257.673 234.759 256.594C235.278 255.518 235.728 254.409 236.107 253.275C237.558 248.713 237.963 243.853 238.106 239.011C238.268 234.131 238.02 229.246 237.366 224.409C237.192 223.194 237.01 221.977 236.925 220.73C236.875 220.105 236.875 219.477 236.925 218.852C237.109 216.941 237.845 215.127 239.041 213.636C239.854 212.653 240.814 211.805 241.886 211.121C242.918 210.403 243.996 209.817 245.07 209.228C246.144 208.639 247.229 208.082 248.306 207.518C250.462 206.394 252.631 205.298 254.758 204.153C256.88 203.028 258.942 201.793 260.936 200.453C261.427 200.115 261.904 199.763 262.377 199.407L262.732 199.138L262.91 199.001L263.06 198.872C263.262 198.7 263.454 198.517 263.636 198.323C263.994 197.928 264.306 197.495 264.568 197.029C264.813 196.558 265.008 196.062 265.151 195.549C265.427 194.52 265.427 193.436 265.151 192.406C264.883 191.382 264.333 190.455 263.565 189.734C262.755 189.026 261.773 188.55 260.719 188.354C260.445 188.304 260.172 188.247 259.891 188.218L258.984 188.099L258.059 187.981C257.753 187.934 257.447 187.869 257.141 187.816L256.227 187.64L255.324 187.42C254.719 187.28 254.129 187.09 253.545 186.914C252.962 186.738 252.372 186.515 251.788 186.318C251.205 186.12 250.64 185.869 250.081 185.599C248.953 185.108 247.855 184.548 246.795 183.922C245.727 183.315 244.705 182.631 243.736 181.874L243.839 181.73C245.925 182.953 248.127 183.963 250.412 184.744C252.668 185.54 254.999 186.098 257.369 186.411C257.664 186.447 257.956 186.494 258.251 186.522L259.137 186.591L260.043 186.659C260.367 186.68 260.691 186.72 261.018 186.77C262.371 186.977 263.645 187.543 264.71 188.412C266.879 190.244 267.673 193.329 267 196.02C266.826 196.692 266.572 197.339 266.243 197.949C265.905 198.552 265.5 199.114 265.034 199.623C264.797 199.876 264.546 200.116 264.283 200.341L264.087 200.507L263.899 200.65L263.526 200.938C263.024 201.297 262.508 201.656 261.989 202.015C259.913 203.354 257.762 204.572 255.548 205.661C253.36 206.764 251.159 207.817 248.947 208.822C246.734 209.828 244.479 210.766 242.42 211.958C241.395 212.53 240.463 213.257 239.656 214.114C238.865 214.989 238.266 216.023 237.899 217.149C237.531 218.285 237.39 219.485 237.487 220.676C237.582 221.889 237.739 223.097 237.956 224.294C238.757 229.139 239.503 234.032 239.607 238.993C239.662 241.48 239.519 243.968 239.18 246.432L239.052 247.359C239.006 247.668 238.938 247.973 238.885 248.278C238.76 248.893 238.671 249.51 238.504 250.118C238.337 250.725 238.212 251.335 238.02 251.914L237.426 253.71C236.986 254.886 236.454 256.026 235.837 257.119C235.231 258.21 234.546 259.255 233.788 260.244C232.29 262.212 230.556 263.983 228.623 265.517L228.449 265.42Z" fill="#7C2F13"/>
<path d="M245.644 167.522C245.445 153.851 246.661 149.307 249.556 143.559C251.134 140.482 253.206 137.69 255.688 135.297C255.617 137.485 255.275 138.573 255.428 139.371C255.656 140.567 259.341 137.894 265.511 133.426C265.607 134.058 265.799 134.671 266.081 135.243C266.431 135.849 266.893 136.381 267.443 136.81C269.566 138.505 271.068 140.868 271.711 143.523C272.169 145.418 272.525 147.337 272.778 149.271C273.358 154.157 273.509 159.085 273.23 163.998C272.927 168.618 272.298 171.513 272.924 176.693C273.279 179.657 273.66 180.149 273.365 181.04C272.461 183.795 266.578 185.979 245.548 183.974C245.304 183.952 245.07 183.869 244.865 183.734C244.66 183.599 244.491 183.416 244.373 183.2C244.255 182.983 244.191 182.741 244.187 182.494C244.183 182.247 244.238 182.003 244.349 181.783C245.761 177.498 245.711 172.023 245.644 167.522Z" fill="#25BEEF"/>
<path d="M258.337 184.93L267.73 184.854C269.393 184.748 271.044 184.488 272.66 184.075C273.481 180.96 274.495 168.359 274.367 167.493L271.6 149.098C271.345 147 270.316 145.076 268.719 143.71C266.403 141.756 262.74 140.147 258.6 143.879L257.099 145.811C254.965 148.559 253.978 152.038 254.346 155.51L255.538 169.879C255.538 171.035 254.858 171.391 255.691 172.188C255.94 172.391 256.133 172.656 256.249 172.957C256.914 176.887 256.946 180.9 256.345 184.84C257.031 184.876 257.697 184.901 258.337 184.93Z" fill="#1A87C4"/>
<path d="M253.535 215.051C253.682 214.4 253.905 213.769 254.2 213.172C256.661 208.143 265.87 188.954 267.442 178.838C267.943 175.605 266.812 157.285 266.812 157.285L253.684 153.625L255.185 176.543C255.252 177.559 255.161 178.58 254.915 179.567L247.321 210.226C247.218 210.647 247.022 211.039 246.749 211.374C246.476 211.708 246.132 211.976 245.742 212.159C243.519 213.197 239.073 215.341 238.785 216.01C238.401 216.904 238.269 218.736 243.018 216.444C243.018 216.444 243.245 217.202 242.488 218.959C241.73 220.715 238.632 227.397 239.112 227.781C239.593 228.165 239.994 230.353 244.138 221.243C244.138 221.243 245.148 221.211 244.807 222.008C244.465 222.806 241.172 230.339 242.477 230.023C243.782 229.706 244.053 228.528 246.745 222.554C246.745 222.554 247.577 222.389 247.545 222.731C247.513 223.072 244.643 230.317 245.234 230.576C245.824 230.834 246.005 232.447 249.911 221.991C249.911 221.991 250.32 221.991 250.167 223.169C250.014 224.347 249.181 229.408 250.234 228.453C251.287 227.497 251.106 227.242 251.963 221.297L253.535 215.051Z" fill="#EA9D7D"/>
<path d="M254.335 214.305C254.833 214.237 264.689 193.022 268.822 179.376C271.639 170.068 266.592 148.332 266.592 148.332V148.278C265.607 143.332 259.315 141.849 256.235 145.814L255.168 147.183C253.233 149.686 252.34 152.852 252.678 156.009L254.723 177.562C254.723 177.687 246.414 210.868 246.575 210.846L254.335 214.305Z" fill="#25BEEF"/>
<path d="M266.528 148.29C266.21 147.253 265.626 146.319 264.835 145.585C264.069 144.888 263.132 144.412 262.121 144.205C261.135 143.998 260.112 144.062 259.159 144.392C258.207 144.722 257.36 145.305 256.708 146.081L255.641 147.359C255.297 147.772 254.979 148.205 254.688 148.656C254.09 149.556 253.612 150.53 253.265 151.555C252.916 152.596 252.738 153.688 252.738 154.788C252.756 155.34 252.803 155.89 252.877 156.437C252.941 156.99 253.009 157.547 253.083 158.096C253.375 160.309 253.717 162.515 253.948 164.731L254.115 166.394L254.257 168.061C254.357 169.171 254.431 170.284 254.513 171.394C254.595 172.504 254.663 173.621 254.716 174.735C254.748 175.292 254.776 175.849 254.794 176.409L254.826 177.246V177.454V177.584C254.826 177.638 254.826 177.666 254.805 177.706C254.773 177.849 254.737 177.982 254.702 178.119C254.407 179.196 254.09 180.274 253.784 181.352L253.332 182.961L253.123 183.766C253.091 183.902 253.059 184.035 253.034 184.172C253.034 184.24 253.009 184.308 252.998 184.373C252.995 184.406 252.995 184.44 252.998 184.473V184.516C252.998 184.516 252.998 184.498 252.963 184.498V184.606C252.947 184.607 252.931 184.604 252.918 184.595C252.904 184.587 252.894 184.574 252.888 184.56C252.885 184.547 252.885 184.533 252.888 184.52C252.886 184.5 252.886 184.479 252.888 184.459C252.886 184.422 252.886 184.385 252.888 184.348L252.92 184.139C252.945 183.999 252.973 183.863 253.002 183.726L253.187 182.911L253.596 181.287C253.869 180.209 254.168 179.132 254.435 178.054C254.467 177.921 254.499 177.785 254.524 177.655C254.524 177.623 254.524 177.587 254.524 177.569C254.524 177.551 254.524 177.569 254.524 177.544V177.494L254.488 177.285L254.364 176.459C254.278 175.906 254.2 175.353 254.126 174.803C253.969 173.697 253.834 172.591 253.699 171.484C253.564 170.378 253.436 169.271 253.325 168.161L253.151 166.484L253.002 164.821C252.813 162.597 252.731 160.367 252.603 158.139C252.554 157.022 252.422 155.919 252.411 154.784C252.407 153.649 252.527 152.517 252.767 151.408C253 150.279 253.394 149.19 253.937 148.175C254.217 147.674 254.53 147.194 254.876 146.738C255.21 146.289 255.527 145.847 255.875 145.391C256.245 144.909 256.68 144.483 257.167 144.123C257.665 143.77 258.211 143.492 258.788 143.297C259.942 142.924 261.179 142.902 262.345 143.232C263.496 143.549 264.528 144.206 265.308 145.118C266.06 146.004 266.52 147.106 266.624 148.268L266.528 148.29Z" fill="#1A87C4"/>
<path d="M62.6638 280.004H249.715V174.726L62.6638 174.726V280.004Z" fill="#CC7829"/>
<path d="M62.6633 280.004H104.49L104.49 174.726H62.6633L62.6633 280.004Z" fill="#A04833"/>
<path d="M50.7269 174.719L261.644 174.719V164.6L50.7269 164.6V174.719Z" fill="#895237"/>
<path d="M50.7269 174.719L261.644 174.719V164.6L50.7269 164.6V174.719Z" fill="#A04833"/>
<path d="M50.7268 174.719H116.224V164.6H50.7268V174.719Z" fill="#843A2C"/>
<path d="M136.142 225.844H220.08V200.34H136.142V225.844Z" fill="#E3EAF3"/>
</svg>
