<?xml version="1.0" standalone="yes"?>
<svg xmlns="http://www.w3.org/2000/svg" width="400" height="500">
<path style="fill:#b1b1b1; stroke:none;" d="M0 0L0 500L400 500L400 0L0 0z"/>
<path style="fill:#fcfcfc; stroke:none;" d="M184 74L184 75C180.129 76.4086 170.798 79.5749 169.878 84.1844C168.187 92.656 187.05 97.8869 192.83 99.3303C202.687 101.792 212.078 97.4835 220.91 93.5918C224.257 92.1174 229.874 88.623 228.979 84.1844C228.021 79.4305 218.9 76.6235 215 75C234.682 72.4302 253.89 62.7141 272 54.7863C275.746 53.1463 290.566 47.9242 285.353 41.5139C281.827 37.1789 271.888 39.0543 267 38.9962C255.88 38.8639 245.055 36.6892 234 39.5147C226.939 41.3195 221.581 48.4843 214.015 48.3318C203.575 48.1214 212.284 32.3913 200.999 30.4375C186.419 27.9131 195.339 47.3102 184.995 48.2423C177.828 48.8881 171.551 41.6445 165 39.6227C154.513 36.386 143.633 38.7248 133 38.9854C127.763 39.1136 120.993 37.817 116.059 39.8935C106.406 43.9565 119.839 52.0456 124 53.7947C135.696 58.7111 147.342 62.6238 159 67.3102C167.515 70.7333 174.426 75.5798 184 74z"/>
<path style="fill:#8e7763; stroke:none;" d="M144 163C157.301 156.797 174.56 136.982 183 125L145 162L145 111L197 111C186.734 106.692 169.158 110 158 110C154.684 110 147.368 108.649 145.028 111.603C142.577 114.698 144 122.269 144 126L144 163M203 110L203 111L255 111L255 164C259.408 153.496 256 135.42 256 124C256 120.685 257.351 113.368 254.397 111.028C251.302 108.577 243.731 110 240 110L203 110z"/>
<path style="fill:#5a2e04; stroke:none;" d="M145 111L145 162L171 137L196 111L145 111z"/>
<path style="fill:#b1b1b1; stroke:none;" d="M196 111L183 125L196 111z"/>
<path style="fill:#fcfb08; stroke:none;" d="M144 194C135.493 194 123.354 191.763 115.285 194.514C107.521 197.161 99.1185 209.365 93.4823 215.326C84.5548 224.767 66.1143 236.765 61.6034 249C59.3242 255.182 61 264.462 61 271L61 295C61.0012 297.617 60.2505 302.109 62.6034 303.972C64.8755 305.772 69.3066 305 72 305C78.8914 305 99.0888 308.393 103.648 302.682C108.662 296.402 111.656 287.182 115.247 280L139.247 232C152.049 206.396 164.444 180.606 177.247 155C184.131 141.232 193.738 126.795 198 112L199 112C195.636 154.566 184.008 197.966 176.424 240C167.583 289.001 161.908 339.662 150 388L183 389L249 389L232.435 294L200 112L201 112C218.16 153.217 240.78 193.053 260.753 233C271.67 254.835 280.667 282.221 295.049 301.852C299.904 308.477 319.485 305 327 305C329.91 305 334.948 305.912 337.397 303.972C339.75 302.109 338.999 297.617 339 295L339 271C339 264.462 340.676 255.182 338.397 249C333.783 236.486 314.389 223.389 305 214C299.162 208.162 291.872 197.506 284 194.603C276.014 191.659 263.485 194 255 194C255 185.515 257.341 172.986 254.397 165C249.71 152.29 230.91 140.222 221.652 130.24C216.801 125.009 207.802 111.296 200 111.296C192.392 111.296 182.975 125.025 178 130C168.468 139.532 149.799 152.165 144.742 164.715C141.554 172.628 144 185.53 144 194z"/>
<path style="fill:#5a2e04; stroke:none;" d="M203 111L203 112L255 163L255 111L203 111z"/>
<path style="fill:#b1b1b1; stroke:none;" d="M198 112L199 113L198 112M200 112L200 115L202 114L202 113L200 112z"/>
<path style="fill:#8e7763; stroke:none;" d="M204 112L205 113L204 112M198 113L199 116L198 113M205 113L206 114L205 113M201 114L202 115L201 114M206 114L207 115L206 114z"/>
<path style="fill:#5a2e04; stroke:none;" d="M197 115L128.576 254L104 305L145 305L145 388L150 388L163.389 311L184.424 192L194.081 138L197 115M201 115L215.424 195L250 388L255 388L255 305L296 305L232.247 176L212.247 136L201 115z"/>
<path style="fill:#b1b1b1; stroke:none;" d="M202 115L203 116L202 115z"/>
<path style="fill:#8e7763; stroke:none;" d="M207 115L208 116L207 115M196 116L197 117L196 116z"/>
<path style="fill:#b1b1b1; stroke:none;" d="M198 116L199 117L198 116z"/>
<path style="fill:#8e7763; stroke:none;" d="M201 116L201 119L202 119L201 116M208 116L209 117L208 116z"/>
<path style="fill:#b1b1b1; stroke:none;" d="M203 117L204 118L203 117z"/>
<path style="fill:#8e7763; stroke:none;" d="M209 117L210 118L209 117M195 118L196 119L195 118M197 118L197 121L198 121L197 118M203 118L204 119L203 118M210 118L211 119L210 118z"/>
<path style="fill:#b1b1b1; stroke:none;" d="M201 119L202 120L201 119M204 119L205 120L204 119z"/>
<path style="fill:#8e7763; stroke:none;" d="M211 119L212 120L211 119M194 120L195 121L194 120M204 120L205 121L204 120M212 120L213 121L212 120z"/>
<path style="fill:#b1b1b1; stroke:none;" d="M197.333 121.667L197.667 122.333L197.333 121.667M205 121L206 122L205 121z"/>
<path style="fill:#8e7763; stroke:none;" d="M213 121L214 122L213 121M193 122L194 123L193 122M202 122L202 125L203 125L202 122M205 122L206 123L205 122M214 122L215 123L214 122z"/>
<path style="fill:#b1b1b1; stroke:none;" d="M206 123L207 124L206 123z"/>
<path style="fill:#8e7763; stroke:none;" d="M215 123L216 124L215 123M192 124L193 125L192 124M196 124L196 127L197 127L196 124M206 124L207 125L206 124z"/>
<path style="fill:#b1b1b1; stroke:none;" d="M202 125L203 126L202 125M207 125L208 126L207 125z"/>
<path style="fill:#8e7763; stroke:none;" d="M191 126L192 127L191 126M207 126L208 127L207 126z"/>
<path style="fill:#b1b1b1; stroke:none;" d="M196 127L197 128L196 127z"/>
<path style="fill:#8e7763; stroke:none;" d="M203 127L203 130L204 130L203 127z"/>
<path style="fill:#b1b1b1; stroke:none;" d="M208 127L209 128L208 127z"/>
<path style="fill:#8e7763; stroke:none;" d="M190 128L191 129L190 128M208 128L209 129L208 128z"/>
<path style="fill:#b1b1b1; stroke:none;" d="M209 129L210 130L209 129M220 129L221 130L220 129M189 130L190 131L189 130z"/>
<path style="fill:#8e7763; stroke:none;" d="M195.333 130.667L195.667 131.333L195.333 130.667z"/>
<path style="fill:#b1b1b1; stroke:none;" d="M203 130L204 131L203 130z"/>
<path style="fill:#8e7763; stroke:none;" d="M209 130L210 131L209 130M189 131L190 132L189 131z"/>
<path style="fill:#b1b1b1; stroke:none;" d="M210 131L211 132L210 131M222 131L223 132L222 131M188 132L189 133L188 132M195.333 132.667L195.667 133.333L195.333 132.667z"/>
<path style="fill:#8e7763; stroke:none;" d="M210 132L211 133L210 132M204.333 133.667L204.667 134.333L204.333 133.667z"/>
<path style="fill:#b1b1b1; stroke:none;" d="M211 133L212 134L211 133M224 133L225 134L224 133M187 134L188 135L187 134z"/>
<path style="fill:#8e7763; stroke:none;" d="M211 134L212 135L211 134M194 135L194 138L195 138L194 135z"/>
<path style="fill:#b1b1b1; stroke:none;" d="M204 135L204 138L205 138L204 135M212 135L213 136L212 135M226 135L227 136L226 135M186 136L187 137L186 136z"/>
<path style="fill:#8e7763; stroke:none;" d="M212 136L213 137L212 136z"/>
<path style="fill:#b1b1b1; stroke:none;" d="M213 137L214 138L213 137M185 138L186 139L185 138M194.333 138.667L194.667 139.333L194.333 138.667z"/>
<path style="fill:#8e7763; stroke:none;" d="M205 138L205 141L206 141L205 138M213 138L214 139L213 138M185 139L186 140L185 139z"/>
<path style="fill:#b1b1b1; stroke:none;" d="M214 139L215 140L214 139M230 139L231 140L230 139M184 140L185 141L184 140z"/>
<path style="fill:#8e7763; stroke:none;" d="M214 140L215 141L214 140z"/>
<path style="fill:#b1b1b1; stroke:none;" d="M231 140L232 141L231 140z"/>
<path style="fill:#8e7763; stroke:none;" d="M184 141L185 142L184 141M193.333 141.667L193.667 142.333L193.333 141.667z"/>
<path style="fill:#b1b1b1; stroke:none;" d="M205.333 141.667L205.667 142.333L205.333 141.667M215 141L216 142L215 141M232 141L233 142L232 141M183 142L184 143L183 142z"/>
<path style="fill:#8e7763; stroke:none;" d="M215 142L216 143L215 142z"/>
<path style="fill:#b1b1b1; stroke:none;" d="M233 142L234 143L233 142z"/>
<path style="fill:#8e7763; stroke:none;" d="M183 143L184 144L183 143z"/>
<path style="fill:#b1b1b1; stroke:none;" d="M193.333 143.667L193.667 144.333L193.333 143.667M216 143L217 144L216 143M234 143L235 144L234 143M182 144L183 145L182 144z"/>
<path style="fill:#8e7763; stroke:none;" d="M206 144L206 147L207 147L206 144M216 144L217 145L216 144z"/>
<path style="fill:#b1b1b1; stroke:none;" d="M235 144L236 145L235 144z"/>
<path style="fill:#8e7763; stroke:none;" d="M182 145L183 146L182 145z"/>
<path style="fill:#b1b1b1; stroke:none;" d="M217 145L218 146L217 145M236 145L237 146L236 145M181 146L182 147L181 146z"/>
<path style="fill:#8e7763; stroke:none;" d="M192 146L192 150L193 150L192 146M217 146L218 147L217 146z"/>
<path style="fill:#b1b1b1; stroke:none;" d="M237 146L238 147L237 146z"/>
<path style="fill:#8e7763; stroke:none;" d="M181 147L182 148L181 147z"/>
<path style="fill:#b1b1b1; stroke:none;" d="M206.333 147.667L206.667 148.333L206.333 147.667M218 147L219 148L218 147M238 147L239 148L238 147M180 148L181 149L180 148z"/>
<path style="fill:#8e7763; stroke:none;" d="M218 148L219 149L218 148z"/>
<path style="fill:#b1b1b1; stroke:none;" d="M239 148L240 149L239 148z"/>
<path style="fill:#8e7763; stroke:none;" d="M180 149L181 150L180 149z"/>
<path style="fill:#b1b1b1; stroke:none;" d="M219 149L220 150L219 149M240 149L241 150L240 149M179 150L180 151L179 150z"/>
<path style="fill:#8e7763; stroke:none;" d="M207 150L207 153L208 153L207 150M219 150L220 151L219 150z"/>
<path style="fill:#b1b1b1; stroke:none;" d="M241 150L242 151L241 150z"/>
<path style="fill:#8e7763; stroke:none;" d="M179 151L180 152L179 151z"/>
<path style="fill:#b1b1b1; stroke:none;" d="M220 151L221 152L220 151M242 151L243 152L242 151M178 152L179 153L178 152z"/>
<path style="fill:#8e7763; stroke:none;" d="M191 152L191 155L192 155L191 152M220 152L221 153L220 152z"/>
<path style="fill:#b1b1b1; stroke:none;" d="M243 152L244 153L243 152z"/>
<path style="fill:#8e7763; stroke:none;" d="M178 153L179 154L178 153z"/>
<path style="fill:#b1b1b1; stroke:none;" d="M207 153L208 154L207 153M221 153L222 154L221 153M244 153L245 154L244 153M177 154L178 155L177 154z"/>
<path style="fill:#8e7763; stroke:none;" d="M221 154L222 155L221 154z"/>
<path style="fill:#b1b1b1; stroke:none;" d="M245 154L246 155L245 154z"/>
<path style="fill:#8e7763; stroke:none;" d="M177 155L178 156L177 155z"/>
<path style="fill:#b1b1b1; stroke:none;" d="M191.333 155.667L191.667 156.333L191.333 155.667z"/>
<path style="fill:#8e7763; stroke:none;" d="M208 155L208 158L209 158L208 155z"/>
<path style="fill:#b1b1b1; stroke:none;" d="M222 155L223 156L222 155M246 155L247 156L246 155M176 156L177 157L176 156z"/>
<path style="fill:#8e7763; stroke:none;" d="M222 156L223 157L222 156z"/>
<path style="fill:#b1b1b1; stroke:none;" d="M247 156L248 157L247 156z"/>
<path style="fill:#8e7763; stroke:none;" d="M176 157L177 158L176 157z"/>
<path style="fill:#b1b1b1; stroke:none;" d="M223 157L224 158L223 157M248 157L249 158L248 157M175 158L176 159L175 158z"/>
<path style="fill:#8e7763; stroke:none;" d="M190.333 158.667L190.667 159.333L190.333 158.667z"/>
<path style="fill:#b1b1b1; stroke:none;" d="M208 158L209 159L208 158z"/>
<path style="fill:#8e7763; stroke:none;" d="M223 158L224 159L223 158z"/>
<path style="fill:#b1b1b1; stroke:none;" d="M249 158L250 159L249 158z"/>
<path style="fill:#8e7763; stroke:none;" d="M175 159L176 160L175 159z"/>
<path style="fill:#b1b1b1; stroke:none;" d="M224 159L225 160L224 159M250 159L251 160L250 159M174 160L175 161L174 160M190.333 160.667L190.667 161.333L190.333 160.667z"/>
<path style="fill:#8e7763; stroke:none;" d="M224 160L225 161L224 160z"/>
<path style="fill:#b1b1b1; stroke:none;" d="M251 160L252 161L251 160z"/>
<path style="fill:#8e7763; stroke:none;" d="M174 161L175 162L174 161M209.333 161.667L209.667 162.333L209.333 161.667z"/>
<path style="fill:#b1b1b1; stroke:none;" d="M225 161L226 162L225 161M252 161L253 162L252 161M173 162L174 163L173 162z"/>
<path style="fill:#8e7763; stroke:none;" d="M225 162L226 163L225 162z"/>
<path style="fill:#b1b1b1; stroke:none;" d="M253 162L254 163L253 162z"/>
<path style="fill:#8e7763; stroke:none;" d="M173 163L174 164L173 163M189 163L189 166L190 166L189 163z"/>
<path style="fill:#b1b1b1; stroke:none;" d="M209.333 163.667L209.667 164.333L209.333 163.667M226 163L227 164L226 163M254 163L255 164L254 163M172 164L173 165L172 164z"/>
<path style="fill:#8e7763; stroke:none;" d="M226 164L227 165L226 164M172 165L173 166L172 165z"/>
<path style="fill:#b1b1b1; stroke:none;" d="M227 165L228 166L227 165M171 166L172 167L171 166M189.333 166.667L189.667 167.333L189.333 166.667z"/>
<path style="fill:#8e7763; stroke:none;" d="M227 166L228 167L227 166M171 167L172 168L171 167M210.333 167.667L210.667 168.333L210.333 167.667z"/>
<path style="fill:#b1b1b1; stroke:none;" d="M228 167L229 168L228 167M170 168L171 169L170 168z"/>
<path style="fill:#8e7763; stroke:none;" d="M228 168L229 169L228 168M170 169L171 170L170 169M188.333 169.667L188.667 170.333L188.333 169.667z"/>
<path style="fill:#b1b1b1; stroke:none;" d="M210.333 169.667L210.667 170.333L210.333 169.667M169 170L170 171L169 170z"/>
<path style="fill:#8e7763; stroke:none;" d="M229 170L230 171L229 170M169 171L170 172L169 171z"/>
<path style="fill:#b1b1b1; stroke:none;" d="M188.333 171.667L188.667 172.333L188.333 171.667M168 172L169 173L168 172z"/>
<path style="fill:#8e7763; stroke:none;" d="M211 172L211 175L212 175L211 172M230 172L231 173L230 172M168 173L169 174L168 173z"/>
<path style="fill:#b1b1b1; stroke:none;" d="M231 173L232 174L231 173M167 174L168 175L167 174z"/>
<path style="fill:#8e7763; stroke:none;" d="M187 174L187 178L188 178L187 174M231 174L232 175L231 174M167 175L168 176L167 175z"/>
<path style="fill:#b1b1b1; stroke:none;" d="M211.333 175.667L211.667 176.333L211.333 175.667M232 175L233 176L232 175M166 176L167 177L166 176z"/>
<path style="fill:#8e7763; stroke:none;" d="M232 176L233 177L232 176M166 177L167 178L166 177z"/>
<path style="fill:#b1b1b1; stroke:none;" d="M233 177L234 178L233 177M165 178L166 179L165 178M187 178L188 179L187 178z"/>
<path style="fill:#8e7763; stroke:none;" d="M212 178L212 181L213 181L212 178M233 178L234 179L233 178M165 179L166 180L165 179z"/>
<path style="fill:#b1b1b1; stroke:none;" d="M164 180L165 181L164 180z"/>
<path style="fill:#8e7763; stroke:none;" d="M186 180L186 183L187 183L186 180M234 180L235 181L234 180M164 181L165 182L164 181z"/>
<path style="fill:#b1b1b1; stroke:none;" d="M212 181L213 182L212 181M163 182L164 183L163 182z"/>
<path style="fill:#8e7763; stroke:none;" d="M235 182L236 183L235 182M163 183L164 184L163 183z"/>
<path style="fill:#b1b1b1; stroke:none;" d="M186 183L187 184L186 183z"/>
<path style="fill:#8e7763; stroke:none;" d="M213 183L213 186L214 186L213 183z"/>
<path style="fill:#b1b1b1; stroke:none;" d="M162 184L163 185L162 184z"/>
<path style="fill:#8e7763; stroke:none;" d="M236 184L237 185L236 184M162 185L163 186L162 185z"/>
<path style="fill:#b1b1b1; stroke:none;" d="M161 186L162 187L161 186z"/>
<path style="fill:#8e7763; stroke:none;" d="M185 186L185 189L186 189L185 186z"/>
<path style="fill:#b1b1b1; stroke:none;" d="M213 186L214 187L213 186z"/>
<path style="fill:#8e7763; stroke:none;" d="M237 186L238 187L237 186M161 187L162 188L161 187z"/>
<path style="fill:#b1b1b1; stroke:none;" d="M160 188L161 189L160 188z"/>
<path style="fill:#8e7763; stroke:none;" d="M238 188L239 189L238 188M160 189L161 190L160 189z"/>
<path style="fill:#b1b1b1; stroke:none;" d="M185 189L186 190L185 189z"/>
<path style="fill:#8e7763; stroke:none;" d="M214 189L214 192L215 192L214 189M239 190L240 191L239 190M159 191L160 192L159 191M184 191L184 194L185 194L184 191z"/>
<path style="fill:#b1b1b1; stroke:none;" d="M158 192L159 193L158 192M214 192L215 193L214 192z"/>
<path style="fill:#8e7763; stroke:none;" d="M240 192L241 193L240 192M158 193L159 194L158 193M60 248L61 248L61 195L114 195C103.496 190.592 85.4201 194 74 194C70.6845 194 63.3676 192.649 61.0278 195.603C58.5766 198.698 60 206.269 60 210L60 248z"/>
<path style="fill:#b1b1b1; stroke:none;" d="M184 194L185 195L184 194z"/>
<path style="fill:#8e7763; stroke:none;" d="M241 194L242 195L241 194M286 194L302 212L333 242L287 195L339 195L322 194L286 194z"/>
<path style="fill:#5a2e04; stroke:none;" d="M61 195L61 247L113 196L96 195L61 195z"/>
<path style="fill:#b1b1b1; stroke:none;" d="M113 195L114 196L113 195z"/>
<path style="fill:#8e7763; stroke:none;" d="M157 195L158 196L157 195M215.333 195.667L215.667 196.333L215.333 195.667z"/>
<path style="fill:#5a2e04; stroke:none;" d="M287 195L321 230L339 247L339 195L287 195z"/>
<path style="fill:#8e7763; stroke:none;" d="M111 196L112 197L111 196z"/>
<path style="fill:#b1b1b1; stroke:none;" d="M156 196L157 197L156 196z"/>
<path style="fill:#8e7763; stroke:none;" d="M242 196L243 197L242 196M156 197L157 198L156 197M183.333 197.667L183.667 198.333L183.333 197.667z"/>
<path style="fill:#b1b1b1; stroke:none;" d="M215.333 197.667L215.667 198.333L215.333 197.667z"/>
<path style="fill:#8e7763; stroke:none;" d="M243 198L244 199L243 198M155 199L156 200L155 199z"/>
<path style="fill:#b1b1b1; stroke:none;" d="M183 199L183 202L184 202L183 199z"/>
<path style="fill:#8e7763; stroke:none;" d="M216 200L216 203L217 203L216 200M244 200L245 201L244 200z"/>
<path style="fill:#b1b1b1; stroke:none;" d="M107 201L108 202L107 201z"/>
<path style="fill:#8e7763; stroke:none;" d="M154 201L155 202L154 201M182 202L182 206L183 206L182 202M245 202L246 203L245 202z"/>
<path style="fill:#b1b1b1; stroke:none;" d="M105 203L106 204L105 203z"/>
<path style="fill:#8e7763; stroke:none;" d="M153 203L154 204L153 203z"/>
<path style="fill:#b1b1b1; stroke:none;" d="M216.333 203.667L216.667 204.333L216.333 203.667z"/>
<path style="fill:#8e7763; stroke:none;" d="M246 204L247 205L246 204z"/>
<path style="fill:#b1b1b1; stroke:none;" d="M103 205L104 206L103 205z"/>
<path style="fill:#8e7763; stroke:none;" d="M152 205L153 206L152 205z"/>
<path style="fill:#b1b1b1; stroke:none;" d="M102 206L103 207L102 206M182 206L183 207L182 206z"/>
<path style="fill:#8e7763; stroke:none;" d="M217 206L217 209L218 209L217 206M247 206L248 207L247 206z"/>
<path style="fill:#b1b1b1; stroke:none;" d="M101 207L102 208L101 207z"/>
<path style="fill:#8e7763; stroke:none;" d="M151 207L152 208L151 207z"/>
<path style="fill:#b1b1b1; stroke:none;" d="M150 208L151 209L150 208z"/>
<path style="fill:#8e7763; stroke:none;" d="M181 208L181 211L182 211L181 208M248 208L249 209L248 208z"/>
<path style="fill:#b1b1b1; stroke:none;" d="M99 209L100 210L99 209z"/>
<path style="fill:#8e7763; stroke:none;" d="M150 209L151 210L150 209z"/>
<path style="fill:#b1b1b1; stroke:none;" d="M217 209L218 210L217 209z"/>
<path style="fill:#8e7763; stroke:none;" d="M249 210L250 211L249 210z"/>
<path style="fill:#b1b1b1; stroke:none;" d="M97 211L98 212L97 211z"/>
<path style="fill:#8e7763; stroke:none;" d="M149 211L150 212L149 211z"/>
<path style="fill:#b1b1b1; stroke:none;" d="M181 211L182 212L181 211z"/>
<path style="fill:#8e7763; stroke:none;" d="M218 211L218 214L219 214L218 211M250 212L251 213L250 212z"/>
<path style="fill:#b1b1b1; stroke:none;" d="M95 213L96 214L95 213z"/>
<path style="fill:#8e7763; stroke:none;" d="M148 213L149 214L148 213M180.333 214.667L180.667 215.333L180.333 214.667z"/>
<path style="fill:#b1b1b1; stroke:none;" d="M218.333 214.667L218.667 215.333L218.333 214.667z"/>
<path style="fill:#8e7763; stroke:none;" d="M251 214L252 215L251 214z"/>
<path style="fill:#b1b1b1; stroke:none;" d="M93 215L94 216L93 215z"/>
<path style="fill:#8e7763; stroke:none;" d="M147 215L148 216L147 215z"/>
<path style="fill:#b1b1b1; stroke:none;" d="M92 216L93 217L92 216M180.333 216.667L180.667 217.333L180.333 216.667z"/>
<path style="fill:#8e7763; stroke:none;" d="M252 216L253 217L252 216z"/>
<path style="fill:#b1b1b1; stroke:none;" d="M91 217L92 218L91 217z"/>
<path style="fill:#8e7763; stroke:none;" d="M146 217L147 218L146 217M219 217L219 220L220 220L219 217z"/>
<path style="fill:#b1b1b1; stroke:none;" d="M90 218L91 219L90 218z"/>
<path style="fill:#8e7763; stroke:none;" d="M253 218L254 219L253 218z"/>
<path style="fill:#b1b1b1; stroke:none;" d="M89 219L90 220L89 219z"/>
<path style="fill:#8e7763; stroke:none;" d="M145 219L146 220L145 219M179 219L179 222L180 222L179 219z"/>
<path style="fill:#b1b1b1; stroke:none;" d="M88 220L89 221L88 220M219 220L220 221L219 220z"/>
<path style="fill:#8e7763; stroke:none;" d="M254 220L255 221L254 220z"/>
<path style="fill:#b1b1b1; stroke:none;" d="M87 221L88 222L87 221z"/>
<path style="fill:#8e7763; stroke:none;" d="M144 221L145 222L144 221z"/>
<path style="fill:#b1b1b1; stroke:none;" d="M86 222L87 223L86 222M179.333 222.667L179.667 223.333L179.333 222.667z"/>
<path style="fill:#8e7763; stroke:none;" d="M255 222L256 223L255 222z"/>
<path style="fill:#b1b1b1; stroke:none;" d="M85 223L86 224L85 223z"/>
<path style="fill:#8e7763; stroke:none;" d="M143 223L144 224L143 223M220.333 223.667L220.667 224.333L220.333 223.667z"/>
<path style="fill:#b1b1b1; stroke:none;" d="M84 224L85 225L84 224z"/>
<path style="fill:#8e7763; stroke:none;" d="M256 224L257 225L256 224z"/>
<path style="fill:#b1b1b1; stroke:none;" d="M83 225L84 226L83 225z"/>
<path style="fill:#8e7763; stroke:none;" d="M142 225L143 226L142 225M178.333 225.667L178.667 226.333L178.333 225.667z"/>
<path style="fill:#b1b1b1; stroke:none;" d="M220.333 225.667L220.667 226.333L220.333 225.667M82 226L83 227L82 226z"/>
<path style="fill:#8e7763; stroke:none;" d="M257 226L258 227L257 226z"/>
<path style="fill:#b1b1b1; stroke:none;" d="M81 227L82 228L81 227z"/>
<path style="fill:#8e7763; stroke:none;" d="M141 227L142 228L141 227z"/>
<path style="fill:#b1b1b1; stroke:none;" d="M178 227L178 230L179 230L178 227M80 228L81 229L80 228z"/>
<path style="fill:#8e7763; stroke:none;" d="M221 228L221 231L222 231L221 228M258 228L259 229L258 228z"/>
<path style="fill:#b1b1b1; stroke:none;" d="M79 229L80 230L79 229z"/>
<path style="fill:#8e7763; stroke:none;" d="M140 229L141 230L140 229z"/>
<path style="fill:#b1b1b1; stroke:none;" d="M78 230L79 231L78 230M259 230L260 231L259 230M77 231L78 232L77 231z"/>
<path style="fill:#8e7763; stroke:none;" d="M139 231L140 232L139 231M177 231L177 234L178 234L177 231z"/>
<path style="fill:#b1b1b1; stroke:none;" d="M221.333 231.667L221.667 232.333L221.333 231.667z"/>
<path style="fill:#8e7763; stroke:none;" d="M259 231L260 232L259 231z"/>
<path style="fill:#b1b1b1; stroke:none;" d="M76 232L77 233L76 232M260 232L261 233L260 232M75 233L76 234L75 233z"/>
<path style="fill:#8e7763; stroke:none;" d="M138 233L139 234L138 233M260 233L261 234L260 233z"/>
<path style="fill:#b1b1b1; stroke:none;" d="M74 234L75 235L74 234M177 234L178 235L177 234z"/>
<path style="fill:#8e7763; stroke:none;" d="M222 234L222 237L223 237L222 234z"/>
<path style="fill:#b1b1b1; stroke:none;" d="M261 234L262 235L261 234M73 235L74 236L73 235z"/>
<path style="fill:#8e7763; stroke:none;" d="M137 235L138 236L137 235M261 235L262 236L261 235z"/>
<path style="fill:#b1b1b1; stroke:none;" d="M72 236L73 237L72 236z"/>
<path style="fill:#8e7763; stroke:none;" d="M176 236L176 239L177 239L176 236z"/>
<path style="fill:#b1b1b1; stroke:none;" d="M262 236L263 237L262 236M71 237L72 238L71 237z"/>
<path style="fill:#8e7763; stroke:none;" d="M136 237L137 238L136 237z"/>
<path style="fill:#b1b1b1; stroke:none;" d="M222 237L223 238L222 237M70 238L71 239L70 238M263 238L264 239L263 238M69 239L70 240L69 239z"/>
<path style="fill:#8e7763; stroke:none;" d="M135 239L136 240L135 239z"/>
<path style="fill:#b1b1b1; stroke:none;" d="M176 239L177 240L176 239z"/>
<path style="fill:#8e7763; stroke:none;" d="M223 239L223 243L224 243L223 239M263 239L264 240L263 239z"/>
<path style="fill:#b1b1b1; stroke:none;" d="M68 240L69 241L68 240M264 240L265 241L264 240M67 241L68 242L67 241z"/>
<path style="fill:#8e7763; stroke:none;" d="M134 241L135 242L134 241M264 241L265 242L264 241z"/>
<path style="fill:#b1b1b1; stroke:none;" d="M66 242L67 243L66 242z"/>
<path style="fill:#8e7763; stroke:none;" d="M175.333 242.667L175.667 243.333L175.333 242.667z"/>
<path style="fill:#b1b1b1; stroke:none;" d="M265 242L266 243L265 242M65 243L66 244L65 243z"/>
<path style="fill:#8e7763; stroke:none;" d="M133 243L134 244L133 243M265 243L266 244L265 243M334 243L335 244L334 243z"/>
<path style="fill:#b1b1b1; stroke:none;" d="M64 244L65 245L64 244M175.333 244.667L175.667 245.333L175.333 244.667M266 244L267 245L266 244z"/>
<path style="fill:#8e7763; stroke:none;" d="M335 244L336 245L335 244z"/>
<path style="fill:#b1b1b1; stroke:none;" d="M63 245L64 246L63 245M132 245L133 246L132 245z"/>
<path style="fill:#8e7763; stroke:none;" d="M224 245L224 248L225 248L224 245M266 245L267 246L266 245z"/>
<path style="fill:#b1b1b1; stroke:none;" d="M62 246L63 247L62 246M267 246L268 247L267 246M61 247L62 248L61 247M131 247L132 248L131 247z"/>
<path style="fill:#8e7763; stroke:none;" d="M174 247L174 250L175 250L174 247M267 247L268 248L267 247M338 247L339 248L338 247z"/>
<path style="fill:#b1b1b1; stroke:none;" d="M224.333 248.667L224.667 249.333L224.333 248.667M268 248L269 249L268 248z"/>
<path style="fill:#8e7763; stroke:none;" d="M130 249L131 250L130 249M268 249L269 250L268 249z"/>
<path style="fill:#b1b1b1; stroke:none;" d="M174 250L175 251L174 250M269 250L270 251L269 250M129 251L130 252L129 251z"/>
<path style="fill:#8e7763; stroke:none;" d="M225 251L225 254L226 254L225 251M269 251L270 252L269 251M129 252L130 253L129 252z"/>
<path style="fill:#b1b1b1; stroke:none;" d="M270 252L271 253L270 252M128 253L129 254L128 253z"/>
<path style="fill:#8e7763; stroke:none;" d="M173.333 253.667L173.667 254.333L173.333 253.667M270 253L271 254L270 253M128 254L129 255L128 254z"/>
<path style="fill:#b1b1b1; stroke:none;" d="M225 254L226 255L225 254M271 254L272 255L271 254M127 255L128 256L127 255M173 255L173 258L174 258L173 255z"/>
<path style="fill:#8e7763; stroke:none;" d="M271 255L272 256L271 255M226 256L226 259L227 259L226 256z"/>
<path style="fill:#b1b1b1; stroke:none;" d="M272 256L273 257L272 256M126 257L127 258L126 257z"/>
<path style="fill:#8e7763; stroke:none;" d="M272 257L273 258L272 257M126 258L127 259L126 258z"/>
<path style="fill:#b1b1b1; stroke:none;" d="M273 258L274 259L273 258M125 259L126 260L125 259z"/>
<path style="fill:#8e7763; stroke:none;" d="M172 259L172 262L173 262L172 259z"/>
<path style="fill:#b1b1b1; stroke:none;" d="M226.333 259.667L226.667 260.333L226.333 259.667z"/>
<path style="fill:#8e7763; stroke:none;" d="M273 259L274 260L273 259M125 260L126 261L125 260z"/>
<path style="fill:#b1b1b1; stroke:none;" d="M274 260L275 261L274 260M124 261L125 262L124 261z"/>
<path style="fill:#8e7763; stroke:none;" d="M274 261L275 262L274 261M124 262L125 263L124 262z"/>
<path style="fill:#b1b1b1; stroke:none;" d="M172 262L173 263L172 262z"/>
<path style="fill:#8e7763; stroke:none;" d="M227.333 262.667L227.667 263.333L227.333 262.667z"/>
<path style="fill:#b1b1b1; stroke:none;" d="M275 262L276 263L275 262M123 263L124 264L123 263z"/>
<path style="fill:#8e7763; stroke:none;" d="M275 263L276 264L275 263M123 264L124 265L123 264M171 264L171 267L172 267L171 264z"/>
<path style="fill:#b1b1b1; stroke:none;" d="M227.333 264.667L227.667 265.333L227.333 264.667M276 264L277 265L276 264M122 265L123 266L122 265z"/>
<path style="fill:#8e7763; stroke:none;" d="M276 265L277 266L276 265M122 266L123 267L122 266z"/>
<path style="fill:#b1b1b1; stroke:none;" d="M277 266L278 267L277 266M121 267L122 268L121 267M171 267L172 268L171 267z"/>
<path style="fill:#8e7763; stroke:none;" d="M228 267L228 271L229 271L228 267M277 267L278 268L277 267M121 268L122 269L121 268z"/>
<path style="fill:#b1b1b1; stroke:none;" d="M278 268L279 269L278 268M120 269L121 270L120 269z"/>
<path style="fill:#8e7763; stroke:none;" d="M278 269L279 270L278 269M120 270L121 271L120 270M170 270L170 273L171 273L170 270z"/>
<path style="fill:#b1b1b1; stroke:none;" d="M279 270L280 271L279 270M119 271L120 272L119 271M228 271L229 272L228 271z"/>
<path style="fill:#8e7763; stroke:none;" d="M279 271L280 272L279 271M119 272L120 273L119 272z"/>
<path style="fill:#b1b1b1; stroke:none;" d="M280 272L281 273L280 272M118 273L119 274L118 273M170 273L171 274L170 273z"/>
<path style="fill:#8e7763; stroke:none;" d="M229 273L229 276L230 276L229 273M280 273L281 274L280 273M118 274L119 275L118 274z"/>
<path style="fill:#b1b1b1; stroke:none;" d="M281 274L282 275L281 274M117 275L118 276L117 275z"/>
<path style="fill:#8e7763; stroke:none;" d="M169 275L169 278L170 278L169 275M281 275L282 276L281 275M117 276L118 277L117 276z"/>
<path style="fill:#b1b1b1; stroke:none;" d="M229 276L230 277L229 276M282 276L283 277L282 276M116 277L117 278L116 277z"/>
<path style="fill:#8e7763; stroke:none;" d="M282 277L283 278L282 277M116 278L117 279L116 278z"/>
<path style="fill:#b1b1b1; stroke:none;" d="M169.333 278.667L169.667 279.333L169.333 278.667M283 278L284 279L283 278M115 279L116 280L115 279z"/>
<path style="fill:#8e7763; stroke:none;" d="M230 279L230 282L231 282L230 279M283 279L284 280L283 279M115 280L116 281L115 280z"/>
<path style="fill:#b1b1b1; stroke:none;" d="M284 280L285 281L284 280M114 281L115 282L114 281z"/>
<path style="fill:#8e7763; stroke:none;" d="M168 281L168 284L169 284L168 281M284 281L285 282L284 281M114 282L115 283L114 282z"/>
<path style="fill:#b1b1b1; stroke:none;" d="M230 282L231 283L230 282M285 282L286 283L285 282M113 283L114 284L113 283z"/>
<path style="fill:#8e7763; stroke:none;" d="M285 283L286 284L285 283M113 284L114 285L113 284z"/>
<path style="fill:#b1b1b1; stroke:none;" d="M168 284L169 285L168 284z"/>
<path style="fill:#8e7763; stroke:none;" d="M231 284L231 287L232 287L231 284z"/>
<path style="fill:#b1b1b1; stroke:none;" d="M286 284L287 285L286 284M112 285L113 286L112 285z"/>
<path style="fill:#8e7763; stroke:none;" d="M286 285L287 286L286 285M112 286L113 287L112 286z"/>
<path style="fill:#b1b1b1; stroke:none;" d="M287 286L288 287L287 286M111 287L112 288L111 287z"/>
<path style="fill:#8e7763; stroke:none;" d="M167 287L167 290L168 290L167 287z"/>
<path style="fill:#b1b1b1; stroke:none;" d="M231 287L232 288L231 287z"/>
<path style="fill:#8e7763; stroke:none;" d="M287 287L288 288L287 287M111 288L112 289L111 288z"/>
<path style="fill:#b1b1b1; stroke:none;" d="M288 288L289 289L288 288M110 289L111 290L110 289z"/>
<path style="fill:#8e7763; stroke:none;" d="M288 289L289 290L288 289M110 290L111 291L110 290z"/>
<path style="fill:#b1b1b1; stroke:none;" d="M167 290L168 291L167 290z"/>
<path style="fill:#8e7763; stroke:none;" d="M232 290L232 293L233 293L232 290z"/>
<path style="fill:#b1b1b1; stroke:none;" d="M289 290L290 291L289 290M109 291L110 292L109 291z"/>
<path style="fill:#8e7763; stroke:none;" d="M289 291L290 292L289 291M109 292L110 293L109 292M166 292L166 295L167 295L166 292z"/>
<path style="fill:#b1b1b1; stroke:none;" d="M108 293L109 294L108 293M232.333 293.667L232.667 294.333L232.333 293.667z"/>
<path style="fill:#8e7763; stroke:none;" d="M290 293L291 294L290 293M108 294L109 295L108 294z"/>
<path style="fill:#b1b1b1; stroke:none;" d="M291 294L292 295L291 294M107 295L108 296L107 295M166 295L167 296L166 295z"/>
<path style="fill:#8e7763; stroke:none;" d="M233 295L233 299L234 299L233 295M291 295L292 296L291 295M107 296L108 297L107 296z"/>
<path style="fill:#b1b1b1; stroke:none;" d="M106 297L107 298L106 297z"/>
<path style="fill:#8e7763; stroke:none;" d="M292 297L293 298L292 297M106 298L107 299L106 298M165 298L165 301L166 301L165 298z"/>
<path style="fill:#b1b1b1; stroke:none;" d="M293 298L294 299L293 298M105 299L106 300L105 299M233 299L234 300L233 299z"/>
<path style="fill:#8e7763; stroke:none;" d="M293 299L294 300L293 299M105 300L106 301L105 300z"/>
<path style="fill:#b1b1b1; stroke:none;" d="M104 301L105 302L104 301M165 301L166 302L165 301z"/>
<path style="fill:#8e7763; stroke:none;" d="M294 301L295 302L294 301M104 302L105 303L104 302M234.333 302.667L234.667 303.333L234.333 302.667z"/>
<path style="fill:#b1b1b1; stroke:none;" d="M103 303L104 304L103 303z"/>
<path style="fill:#8e7763; stroke:none;" d="M295 303L296 304L295 303z"/>
<path style="fill:#fcfcfc; stroke:none;" d="M61 304L62 305L61 304z"/>
<path style="fill:#8e7763; stroke:none;" d="M103 304L104 305L103 304M164.333 304.667L164.667 305.333L164.333 304.667z"/>
<path style="fill:#b1b1b1; stroke:none;" d="M234.333 304.667L234.667 305.333L234.333 304.667z"/>
<path style="fill:#fcfcfc; stroke:none;" d="M338 304L339 305L338 304z"/>
<path style="fill:#8e7763; stroke:none;" d="M144 305L144 389L150 389L150 388L145 388L145 331L144 305M255 305L255 388L256 388L256 331L255 305z"/>
<path style="fill:#b1b1b1; stroke:none;" d="M164 306L165 307L164 306z"/>
<path style="fill:#8e7763; stroke:none;" d="M235 307L235 310L236 310L235 307M163.333 310.667L163.667 311.333L163.333 310.667z"/>
<path style="fill:#b1b1b1; stroke:none;" d="M235 310L236 311L235 310M163 312L164 313L163 312z"/>
<path style="fill:#8e7763; stroke:none;" d="M236 312L236 315L237 315L236 312M162 315L162 318L163 318L162 315z"/>
<path style="fill:#b1b1b1; stroke:none;" d="M236.333 315.667L236.667 316.333L236.333 315.667M162 318L163 319L162 318z"/>
<path style="fill:#8e7763; stroke:none;" d="M237 318L237 321L238 321L237 318M161 320L161 323L162 323L161 320z"/>
<path style="fill:#b1b1b1; stroke:none;" d="M237 321L238 322L237 321M161.333 323.667L161.667 324.333L161.333 323.667z"/>
<path style="fill:#8e7763; stroke:none;" d="M238 323L238 327L239 327L238 323M160 326L160 329L161 329L160 326z"/>
<path style="fill:#b1b1b1; stroke:none;" d="M238 327L239 328L238 327M160 329L161 330L160 329z"/>
<path style="fill:#8e7763; stroke:none;" d="M239 329L239 332L240 332L239 329M159 332L159 335L160 335L159 332z"/>
<path style="fill:#b1b1b1; stroke:none;" d="M239.333 332.667L239.667 333.333L239.333 332.667M159 335L160 336L159 335z"/>
<path style="fill:#8e7763; stroke:none;" d="M240 335L240 338L241 338L240 335M158 337L158 340L159 340L158 337z"/>
<path style="fill:#b1b1b1; stroke:none;" d="M240 338L241 339L240 338M158 340L159 341L158 340z"/>
<path style="fill:#8e7763; stroke:none;" d="M241.333 341.667L241.667 342.333L241.333 341.667M157.333 343.667L157.667 344.333L157.333 343.667z"/>
<path style="fill:#b1b1b1; stroke:none;" d="M241 343L242 344L241 343M157.333 345.667L157.667 346.333L157.333 345.667z"/>
<path style="fill:#8e7763; stroke:none;" d="M242 347L243 348L242 347M156 348L156 351L157 351L156 348z"/>
<path style="fill:#b1b1b1; stroke:none;" d="M242.333 348.667L242.667 349.333L242.333 348.667M156.333 351.667L156.667 352.333L156.333 351.667z"/>
<path style="fill:#8e7763; stroke:none;" d="M243 352L243 355L244 355L243 352M155 354L155 357L156 357L155 354z"/>
<path style="fill:#b1b1b1; stroke:none;" d="M243 355L244 356L243 355M155.333 357.667L155.667 358.333L155.333 357.667z"/>
<path style="fill:#8e7763; stroke:none;" d="M244 357L244 360L245 360L244 357M154 360L154 363L155 363L154 360z"/>
<path style="fill:#b1b1b1; stroke:none;" d="M244.333 360.667L244.667 361.333L244.333 360.667M154 363L155 364L154 363z"/>
<path style="fill:#8e7763; stroke:none;" d="M245 363L245 366L246 366L245 363M153 365L153 368L154 368L153 365z"/>
<path style="fill:#b1b1b1; stroke:none;" d="M245 366L246 367L245 366M153.333 368.667L153.667 369.333L153.333 368.667z"/>
<path style="fill:#8e7763; stroke:none;" d="M246 368L246 371L247 371L246 368M152 371L152 374L153 374L152 371z"/>
<path style="fill:#b1b1b1; stroke:none;" d="M246.333 371.667L246.667 372.333L246.333 371.667M152 374L153 375L152 374z"/>
<path style="fill:#8e7763; stroke:none;" d="M247.333 375.667L247.667 376.333L247.333 375.667M151 376L151 379L152 379L151 376z"/>
<path style="fill:#b1b1b1; stroke:none;" d="M247 377L248 378L247 377M151.333 379.667L151.667 380.333L151.333 379.667z"/>
<path style="fill:#8e7763; stroke:none;" d="M248 380L248 383L249 383L248 380M150 382L150 385L151 385L150 382z"/>
<path style="fill:#b1b1b1; stroke:none;" d="M248 383L249 384L248 383M150.333 385.667L150.667 386.333L150.333 385.667z"/>
<path style="fill:#8e7763; stroke:none;" d="M249 385L249 388L250 388L249 385M250 388L250 389L255 389L250 388M222 430L222 431L226 431L222 430M35 431L34 471L35 471L35 431M82 431L83 432L82 431M84 431L85 432L84 431M94 431L95 432L94 431M97 431L98 466L111 466L111 471L112 471C111.417 463.519 104.97 465 99 465C99 456.175 102.394 438.12 97 431M170.333 431.667L170.667 432.333L170.333 431.667z"/>
<path style="fill:#5a2e04; stroke:none;" d="M171 431L154 471L163.394 462.603L174.996 461.059L189 471C186.877 459.088 178.303 440.65 171 431z"/>
<path style="fill:#8e7763; stroke:none;" d="M219 431L220 432L219 431z"/>
<path style="fill:#5a2e04; stroke:none;" d="M216 460L211 461C215.103 474.806 238.935 475.882 236.771 459C235.732 450.895 217.595 446.144 219.346 440.094C221.299 433.346 231.47 438.879 236 437C230.294 429.779 212.683 427.941 213.164 441.001C213.557 451.694 227.638 450.485 230.673 459.015C234.497 469.763 219.465 464.801 216 460z"/>
<path style="fill:#8e7763; stroke:none;" d="M228.667 431.333L229.333 431.667L228.667 431.333M323.333 431.667L323.667 432.333L323.333 431.667z"/>
<path style="fill:#5a2e04; stroke:none;" d="M324 431L306 471L322.001 461.019L332.502 462.603L342 471C339.094 458.766 331.588 441.026 324 431M35 432L35 471L39 471L39 455C48.7123 454.798 65.2287 445.85 52.8912 435.419C47.9209 431.217 41.0539 432 35 432z"/>
<path style="fill:#8e7763; stroke:none;" d="M47.6667 432.333L48.3333 432.667L47.6667 432.333z"/>
<path style="fill:#5a2e04; stroke:none;" d="M64 432L64 471L86 471L86 466L69 466L69 452L86 452L86 447L69 447L69 437L86 437L86 432L64 432M93 432L93 471L111 471L111 466L98 466L98 432L93 432z"/>
<path style="fill:#8e7763; stroke:none;" d="M116 432L116 471L117 471C117 459.828 120.311 442.274 116 432z"/>
<path style="fill:#5a2e04; stroke:none;" d="M117 432L117 471C126.566 469.404 121.449 441.003 122 433L117 432z"/>
<path style="fill:#8e7763; stroke:none;" d="M121 432L122 433L121 432z"/>
<path style="fill:#5a2e04; stroke:none;" d="M128 432L128 437L138 438L137 470L142 471C142 459.488 136.518 437.055 152 437L152 432L128 432z"/>
<path style="fill:#8e7763; stroke:none;" d="M172 432L173 433L172 432M217 432L218 433L217 432M231 432L232 433L231 432M243 432L243 471L244 471C244 459.828 247.311 442.274 243 432z"/>
<path style="fill:#5a2e04; stroke:none;" d="M244 432L244 471L265 471L265 466L248 465L248 453L265 452L265 447L249 447L248 438L265 437L265 432L244 432z"/>
<path style="fill:#8e7763; stroke:none;" d="M265 432L265 437L266 437L265 432M271 432L271 471L272 471C272 459.828 275.311 442.274 271 432z"/>
<path style="fill:#5a2e04; stroke:none;" d="M272 432L272 471L277 471L277 452L296 452L296 471L301 471L301 432L296 432L296 447L277 447L277 432L272 432z"/>
<path style="fill:#8e7763; stroke:none;" d="M295 432L295 447L296 447L295 432M325 432L326 433L325 432z"/>
<path style="fill:#5a2e04; stroke:none;" d="M342 432L342 437L352 437L352 471L357 471L357 437L366 437L366 432L342 432z"/>
<path style="fill:#8e7763; stroke:none;" d="M366 432L366 437L367 437L366 432M50 433L51 434L50 433M216 433L217 434L216 433M233 433L234 434L233 433M52 434L53 435L52 434M121 434L122 435L121 434M169 434L170 435L169 434M173.333 434.667L173.667 435.333L173.333 434.667M234 434L235 435L234 434M322 434L323 435L322 434M326.333 434.667L326.667 435.333L326.333 434.667M53 435L54 436L53 435M214 435L215 436L214 435M235 435L236 436L235 435M40 436L40 451L41 451C39.8896 446.336 38.975 440.993 42 437L40 436M54 436L55 437L54 436M168 436L169 437L168 436M174.333 436.667L174.667 437.333L174.333 436.667M213 436L214 437L213 436M222 436L222 437L228 437L222 436M321 436L322 437L321 436M327.333 436.667L327.667 437.333L327.333 436.667z"/>
<path style="fill:#b1b1b1; stroke:none;" d="M40 437L40 450C53.1591 449.397 53.2803 437.284 40 437z"/>
<path style="fill:#8e7763; stroke:none;" d="M46.6667 437.333L47.3333 437.667L46.6667 437.333M55 437L56 438L55 437M69 437L69 447L70 447L70 438L86 438L69 437M128 437L128 438L137 438L128 437M143 437L143 438L152 438L143 437M220 437L221 438L220 437M229 437L230 438L229 437M249 437L249 438L265 438L249 437M342 437L342 438L351 438L351 471L352 471L352 437L342 437M357 437L357 438L366 438L357 437M137 438L138 439L137 438M142 438L142 471L143 471L142 438M167 438L168 439L167 438M219 438L220 439L219 438M230 438L231 439L230 438M233 438L234 439L233 438M248 438L249 439L248 438M320 438L321 439L320 438M56 439L57 440L56 439M175 439L176 440L175 439M212 439L212 443L213 443L212 439M218 439L218 443L219 443L218 439M231.667 439.333L232.333 439.667L231.667 439.333M328 439L329 440L328 439M50 440L51 441L50 440M166.333 440.667L166.667 441.333L166.333 440.667M319.333 440.667L319.667 441.333L319.333 440.667M176 441L177 442L176 441M329 441L330 442L329 441M51 442L51 445L52 445L51 442M57.3333 442.667L57.6667 443.333L57.3333 442.667M165 443L166 444L165 443M171 443L169 448L170 448L171 443M177 443L178 444L177 443M219 443L220 444L219 443M318 443L319 444L318 443M324 443L323 445L324 443M330 443L331 444L330 443z"/>
<path style="fill:#b1b1b1; stroke:none;" d="M171 444L166 456L177 456L171 444z"/>
<path style="fill:#8e7763; stroke:none;" d="M213 444L214 445L213 444M220 444L221 445L220 444z"/>
<path style="fill:#b1b1b1; stroke:none;" d="M324 444L319 456L330 456L324 444z"/>
<path style="fill:#8e7763; stroke:none;" d="M164 445L165 446L164 445M172 445L173 446L172 445M178 445L179 446L178 445M222 445L223 446L222 445M317 445L318 446L317 445M325 445L326 446L325 445M331.333 445.667L331.667 446.333L331.333 445.667M50 446L51 447L50 446M56.3333 446.667L56.6667 447.333L56.3333 446.667M214 446L215 447L214 446M223.667 446.333L224.333 446.667L223.667 446.333M277 446L278 447L277 446M322.333 446.667L322.667 447.333L322.333 446.667M163 447L164 448L163 447M173 447L174 448L173 447M179.333 447.667L179.667 448.333L179.333 447.667M215 447L216 448L215 447M226 447L227 448L226 447M265 447L265 452L266 452L265 447M316 447L317 448L316 447M326 447L327 448L326 447M332.333 447.667L332.667 448.333L332.333 447.667M48 448L49 449L48 448M216 448L217 449L216 448M228 448L229 449L228 448M45.6667 449.333L46.3333 449.667L45.6667 449.333M162.333 449.667L162.667 450.333L162.333 449.667M168 449L169 450L168 449M174 449L175 450L174 449M217 449L218 450L217 449M230 449L231 450L230 449M315 449L316 450L315 449M321 449L322 450L321 449M327 449L328 450L327 449M54 450L55 451L54 450M180 450L181 451L180 450M219 450L220 451L219 450M231 450L232 451L231 450M333 450L334 451L333 450M53 451L54 452L53 451M161.333 451.667L161.667 452.333L161.333 451.667M167 451L168 452L167 451M175.333 451.667L175.667 452.333L175.333 451.667M220.667 451.333L221.333 451.667L220.667 451.333M314.333 451.667L314.667 452.333L314.333 451.667M320 451L321 452L320 451M328.333 451.667L328.667 452.333L328.333 451.667M51 452L52 453L51 452M69 452L69 466L86 466L86 465L70 465L70 453L86 453L69 452M181 452L182 453L181 452M223 452L224 453L223 452M249 452L249 453L265 453L249 452M277 452L277 453L295 453L295 471L296 471L296 452L277 452M334 452L335 453L334 452M49.6667 453.333L50.3333 453.667L49.6667 453.333M166 453L167 454L166 453M176.333 453.667L176.667 454.333L176.333 453.667M225 453L226 454L225 453M248 453L249 454L248 453M319 453L320 454L319 453M45 454L45 455L48 455L45 454M160 454L161 455L160 454M182 454L183 455L182 454M227 454L228 455L227 454M235 454L236 455L235 454M313 454L314 455L313 454M329 454L330 455L329 454M335 454L336 455L335 454M39 455L39 471L40 471L39 455M165 455C167.69 458.078 175.31 458.078 178 455L165 455M228 455L229 456L228 455M318 455L331 457L331 456L318 455M159 456L160 457L159 456M183 456L184 457L183 456M236 456L237 457L236 456M312 456L313 457L312 456M336.333 456.667L336.667 457.333L336.333 456.667M230 457L231 458L230 457M158 458L159 459L158 458M184.333 458.667L184.667 459.333L184.333 458.667M311 458L312 459L311 458M337.333 458.667L337.667 459.333L337.333 458.667M231 459L231 463L232 463L231 459M237 459L237 462L238 462L237 459M157.333 460.667L157.667 461.333L157.333 460.667M213.667 460.333L214.333 460.667L213.667 460.333M216.333 460.667L216.667 461.333L216.333 460.667M310.333 460.667L310.667 461.333L310.333 460.667M179 461L180 462L179 461M185 461L186 462L185 461M210.333 461.667L210.667 462.333L210.333 461.667M332 461L333 462L332 461M338 461L339 462L338 461M156.333 462.667L156.667 463.333L156.333 462.667M162 462L163 463L162 462M180.333 462.667L180.667 463.333L180.333 462.667M217 462L218 463L217 462M309.333 462.667L309.667 463.333L309.333 462.667M315 462L316 463L315 462M333.333 462.667L333.667 463.333L333.333 462.667M186 463L187 464L186 463M211.333 463.667L211.667 464.333L211.333 463.667M339 463L340 464L339 463M161.333 464.667L161.667 465.333L161.333 464.667M181.333 464.667L181.667 465.333L181.333 464.667M236.333 464.667L236.667 465.333L236.333 464.667M248 464L249 465L248 464M314 464L315 465L314 464M155 465L156 466L155 465M187 465L188 466L187 465M212 465L213 466L212 465M220 465L221 466L220 465M228 465L229 466L228 465M249 465L249 466L265 466L249 465M308 465L309 466L308 465M334 465L335 466L334 465M340 465L341 466L340 465M160.333 466.667L160.667 467.333L160.333 466.667M222 466L222 467L228 467L222 466M235 466L236 467L235 466M265 466L265 471L266 471L265 466M313.333 466.667L313.667 467.333L313.333 466.667M154 467L155 468L154 467M182 467L183 468L182 467M188 467L189 468L188 467M307 467L308 468L307 467M335 467L336 468L335 467M341.333 467.667L341.667 468.333L341.333 467.667M137 468L138 469L137 468M214 468L215 469L214 468M153.333 469.667L153.667 470.333L153.333 469.667M159 469L160 470L159 469M183 469L184 470L183 469M189.333 469.667L189.667 470.333L189.333 469.667M306 469L307 470L306 469M312 469L313 470L312 469M336 469L337 470L336 469M342.333 469.667L342.667 470.333L342.333 469.667M121 470L122 471L121 470M137 470L138 471L137 470M217 470L218 471L217 470M231 470L232 471L231 470M84 471L85 472L84 471M219.667 471.333L220.333 471.667L219.667 471.333M229.667 471.333L230.333 471.667L229.667 471.333M355 471L356 472L355 471M222 472L222 473L227 473L222 472z"/>
</svg>
